%FSAX24Y24*%
%MOIN*%
G70*
G01*
G75*
G04 Layer_Color=65535*
%ADD10C,0.0100*%
%ADD11R,0.0630X0.0512*%
%ADD12R,0.0512X0.0630*%
%ADD13R,0.0400X0.0400*%
%ADD14R,0.0400X0.0400*%
%ADD15R,0.0532X0.0394*%
%ADD16R,0.0374X0.0394*%
G04:AMPARAMS|DCode=17|XSize=86.6mil|YSize=27.6mil|CornerRadius=6.9mil|HoleSize=0mil|Usage=FLASHONLY|Rotation=90.000|XOffset=0mil|YOffset=0mil|HoleType=Round|Shape=RoundedRectangle|*
%AMROUNDEDRECTD17*
21,1,0.0866,0.0138,0,0,90.0*
21,1,0.0728,0.0276,0,0,90.0*
1,1,0.0138,0.0069,0.0364*
1,1,0.0138,0.0069,-0.0364*
1,1,0.0138,-0.0069,-0.0364*
1,1,0.0138,-0.0069,0.0364*
%
%ADD17ROUNDEDRECTD17*%
%ADD18O,0.0276X0.0866*%
G04:AMPARAMS|DCode=19|XSize=59.1mil|YSize=15.7mil|CornerRadius=3.9mil|HoleSize=0mil|Usage=FLASHONLY|Rotation=270.000|XOffset=0mil|YOffset=0mil|HoleType=Round|Shape=RoundedRectangle|*
%AMROUNDEDRECTD19*
21,1,0.0591,0.0079,0,0,270.0*
21,1,0.0512,0.0157,0,0,270.0*
1,1,0.0079,-0.0039,-0.0256*
1,1,0.0079,-0.0039,0.0256*
1,1,0.0079,0.0039,0.0256*
1,1,0.0079,0.0039,-0.0256*
%
%ADD19ROUNDEDRECTD19*%
%ADD20R,0.0600X0.0470*%
%ADD21R,0.0472X0.0591*%
%ADD22R,0.0591X0.0472*%
%ADD23R,0.0600X0.0825*%
%ADD24R,0.0550X0.0650*%
%ADD25R,0.0650X0.0550*%
G04:AMPARAMS|DCode=26|XSize=10.2mil|YSize=82.7mil|CornerRadius=2.6mil|HoleSize=0mil|Usage=FLASHONLY|Rotation=270.000|XOffset=0mil|YOffset=0mil|HoleType=Round|Shape=RoundedRectangle|*
%AMROUNDEDRECTD26*
21,1,0.0102,0.0776,0,0,270.0*
21,1,0.0051,0.0827,0,0,270.0*
1,1,0.0051,-0.0388,-0.0026*
1,1,0.0051,-0.0388,0.0026*
1,1,0.0051,0.0388,0.0026*
1,1,0.0051,0.0388,-0.0026*
%
%ADD26ROUNDEDRECTD26*%
G04:AMPARAMS|DCode=27|XSize=10.2mil|YSize=82.7mil|CornerRadius=2.6mil|HoleSize=0mil|Usage=FLASHONLY|Rotation=0.000|XOffset=0mil|YOffset=0mil|HoleType=Round|Shape=RoundedRectangle|*
%AMROUNDEDRECTD27*
21,1,0.0102,0.0776,0,0,0.0*
21,1,0.0051,0.0827,0,0,0.0*
1,1,0.0051,0.0026,-0.0388*
1,1,0.0051,-0.0026,-0.0388*
1,1,0.0051,-0.0026,0.0388*
1,1,0.0051,0.0026,0.0388*
%
%ADD27ROUNDEDRECTD27*%
%ADD28R,0.0394X0.0394*%
%ADD29R,0.1969X0.0827*%
G04:AMPARAMS|DCode=30|XSize=86.6mil|YSize=27.6mil|CornerRadius=6.9mil|HoleSize=0mil|Usage=FLASHONLY|Rotation=0.000|XOffset=0mil|YOffset=0mil|HoleType=Round|Shape=RoundedRectangle|*
%AMROUNDEDRECTD30*
21,1,0.0866,0.0138,0,0,0.0*
21,1,0.0728,0.0276,0,0,0.0*
1,1,0.0138,0.0364,-0.0069*
1,1,0.0138,-0.0364,-0.0069*
1,1,0.0138,-0.0364,0.0069*
1,1,0.0138,0.0364,0.0069*
%
%ADD30ROUNDEDRECTD30*%
%ADD31O,0.0866X0.0276*%
%ADD32R,0.0394X0.0374*%
%ADD33R,0.0394X0.0532*%
%ADD34C,0.1000*%
%ADD35C,0.0400*%
%ADD36C,0.0500*%
%ADD37C,0.0250*%
%ADD38C,0.0300*%
%ADD39C,0.0200*%
%ADD40C,0.0600*%
%ADD41C,0.0150*%
%ADD42C,0.0180*%
%ADD43C,0.0650*%
%ADD44C,0.0800*%
%ADD45C,0.0700*%
%ADD46C,0.0450*%
%ADD47C,0.0550*%
%ADD48C,0.0350*%
%ADD49C,0.0110*%
%ADD50P,0.0682X8X22.5*%
%ADD51C,0.0630*%
%ADD52P,0.0671X8X292.5*%
%ADD53C,0.0620*%
%ADD54C,0.1967*%
%ADD55C,0.0500*%
%ADD56C,0.0591*%
%ADD57R,0.0591X0.0591*%
%ADD58P,0.0649X8X112.5*%
%ADD59C,0.0600*%
%ADD60C,0.0709*%
%ADD61P,0.0682X8X112.5*%
%ADD62C,0.0787*%
%ADD63R,0.0787X0.0787*%
%ADD64P,0.0649X8X202.5*%
%ADD65C,0.1614*%
%ADD66C,0.0610*%
%ADD67C,0.1181*%
%ADD68C,0.1181*%
%ADD69C,0.0450*%
%ADD70C,0.0160*%
%ADD71C,0.0080*%
%ADD72C,0.0090*%
%ADD73C,0.0120*%
%ADD74C,0.0079*%
D10*
X026332Y045880D02*
G03*
X026332Y045880I-001575J000000D01*
G01*
X037109Y036430D02*
G03*
X037109Y036430I-001575J000000D01*
G01*
X049704Y053638D02*
G03*
X049704Y053638I-000984J000000D01*
G01*
X048302Y048928D02*
G03*
X048302Y048928I-000984J000000D01*
G01*
X034820Y049080D02*
G03*
X034820Y049080I-000450J000000D01*
G01*
X033600Y050980D02*
G03*
X033600Y051480I000000J000250D01*
G01*
X044870Y051780D02*
G03*
X044870Y051780I-000450J000000D01*
G01*
Y050780D02*
G03*
X044870Y050780I-000450J000000D01*
G01*
X043620Y053280D02*
G03*
X043620Y053280I-000450J000000D01*
G01*
X038570Y049130D02*
G03*
X038570Y049130I-000450J000000D01*
G01*
X031720Y049180D02*
G03*
X031720Y049180I-000450J000000D01*
G01*
Y052680D02*
G03*
X031720Y052680I-000450J000000D01*
G01*
X038570Y051280D02*
G03*
X038570Y051280I-000450J000000D01*
G01*
Y050130D02*
G03*
X038570Y050130I-000450J000000D01*
G01*
X041806Y051344D02*
G03*
X041806Y051216I000000J-000064D01*
G01*
X038570Y052280D02*
G03*
X038570Y052280I-000450J000000D01*
G01*
X036720Y052380D02*
G03*
X036720Y052380I-000450J000000D01*
G01*
Y050080D02*
G03*
X036720Y050080I-000450J000000D01*
G01*
X047820Y025480D02*
G03*
X047820Y025480I-000450J000000D01*
G01*
Y026480D02*
G03*
X047820Y026480I-000450J000000D01*
G01*
Y027730D02*
G03*
X047820Y027730I-000450J000000D01*
G01*
Y028730D02*
G03*
X047820Y028730I-000450J000000D01*
G01*
X053720Y025730D02*
G03*
X053720Y025730I-000450J000000D01*
G01*
Y024730D02*
G03*
X053720Y024730I-000450J000000D01*
G01*
Y027780D02*
G03*
X053720Y027780I-000450J000000D01*
G01*
Y028780D02*
G03*
X053720Y028780I-000450J000000D01*
G01*
X043920Y020630D02*
G03*
X043920Y020630I-000450J000000D01*
G01*
X056720Y049830D02*
G03*
X056720Y049830I-000450J000000D01*
G01*
X029070Y046680D02*
G03*
X029070Y046680I-000450J000000D01*
G01*
X029920Y039230D02*
G03*
X029920Y039230I-000450J000000D01*
G01*
X028420Y049080D02*
G03*
X028420Y049080I-000450J000000D01*
G01*
X030070D02*
G03*
X030070Y049080I-000450J000000D01*
G01*
X025188Y028236D02*
G03*
X025188Y028236I-000984J000000D01*
G01*
X023030Y028234D02*
G03*
X023030Y028234I-000984J000000D01*
G01*
X023207Y036330D02*
G03*
X023207Y036330I-001575J000000D01*
G01*
X022162Y045530D02*
G03*
X022162Y045530I-000984J000000D01*
G01*
X050570Y029750D02*
G03*
X051070Y029750I000250J000000D01*
G01*
X040700Y021180D02*
G03*
X040700Y021680I000000J000250D01*
G01*
X057870Y035430D02*
G03*
X057870Y035430I-000450J000000D01*
G01*
X058420Y048080D02*
G03*
X058420Y048080I-000450J000000D01*
G01*
X054620Y041830D02*
G03*
X054620Y041830I-000450J000000D01*
G01*
X053620D02*
G03*
X053620Y041830I-000450J000000D01*
G01*
X056220Y040480D02*
G03*
X056220Y040480I-000450J000000D01*
G01*
X058070Y044430D02*
G03*
X058070Y044430I-000450J000000D01*
G01*
X029070Y042930D02*
G03*
X029070Y042930I-000450J000000D01*
G01*
X026770Y049080D02*
G03*
X026770Y049080I-000450J000000D01*
G01*
X044620Y053280D02*
G03*
X044620Y053280I-000450J000000D01*
G01*
X036720Y051230D02*
G03*
X036720Y051230I-000450J000000D01*
G01*
X031720Y050930D02*
G03*
X031720Y050930I-000450J000000D01*
G01*
X042950Y036380D02*
G03*
X042950Y036880I000000J000250D01*
G01*
X045020Y042930D02*
G03*
X045020Y042430I000000J-000250D01*
G01*
X034020Y043080D02*
G03*
X034020Y043080I-000450J000000D01*
G01*
X040720Y045480D02*
G03*
X040720Y045480I-000450J000000D01*
G01*
X034020Y044480D02*
G03*
X034020Y044480I-000450J000000D01*
G01*
X040720Y046480D02*
G03*
X040720Y046480I-000450J000000D01*
G01*
Y044230D02*
G03*
X040720Y044230I-000450J000000D01*
G01*
Y041980D02*
G03*
X040720Y041980I-000450J000000D01*
G01*
X034020Y041680D02*
G03*
X034020Y041680I-000450J000000D01*
G01*
X040720Y042980D02*
G03*
X040720Y042980I-000450J000000D01*
G01*
X034600Y042830D02*
G03*
X034600Y043330I000000J000250D01*
G01*
X031720Y042930D02*
G03*
X031720Y042930I-000450J000000D01*
G01*
Y046680D02*
G03*
X031720Y046680I-000450J000000D01*
G01*
X039620Y036480D02*
G03*
X039620Y036480I-000450J000000D01*
G01*
X026770Y042930D02*
G03*
X026770Y042930I-000450J000000D01*
G01*
X058420Y039330D02*
G03*
X058420Y039330I-000450J000000D01*
G01*
X048820Y050305D02*
Y050855D01*
X049720D01*
Y050305D02*
Y050855D01*
X048820Y049255D02*
Y049805D01*
Y049255D02*
X049720D01*
Y049805D01*
X038070Y029480D02*
X040070D01*
Y030480D01*
X038070D02*
X040070D01*
X038070Y029480D02*
Y030480D01*
X039070Y029480D02*
Y030480D01*
X055170Y023630D02*
X057670D01*
X056170Y024213D02*
X057670D01*
X055170Y024713D02*
X057670D01*
X056170Y025297D02*
X057670D01*
X055170Y025797D02*
X057670D01*
X056170Y026380D02*
X057670D01*
X055170Y026880D02*
X057670D01*
X056170Y027463D02*
X057670D01*
X055170Y027963D02*
X057670D01*
X056920Y020547D02*
X057170D01*
X056920Y021047D02*
X057170D01*
X056270Y020297D02*
X057170D01*
X056270Y021297D02*
X057170D01*
X056920Y030547D02*
X057170D01*
X056920Y031047D02*
X057170D01*
X056270Y030297D02*
X057170D01*
X056270Y031297D02*
X057170D01*
Y029297D02*
Y031797D01*
Y029297D02*
X058380D01*
X057170Y019797D02*
Y022297D01*
X058380D01*
X058170Y022797D02*
X058370D01*
X057670Y023297D02*
Y028297D01*
X058170Y028797D02*
X058370D01*
X054003Y019630D02*
Y031963D01*
Y019630D02*
X058380D01*
X054003Y031963D02*
X058380D01*
X023610Y045280D02*
Y045580D01*
X023460Y045430D02*
X023760D01*
X034935Y035406D02*
X035147Y035194D01*
X034935D02*
X035147Y035406D01*
X025755Y048670D02*
Y049370D01*
X024035Y048920D02*
Y049120D01*
Y048920D02*
X024135Y049020D01*
X024035Y049120D02*
X024135Y049020D01*
X025095Y050380D02*
X025645D01*
Y049480D02*
Y050380D01*
X025095Y049480D02*
X025645D01*
X024045Y050380D02*
X024595D01*
X024045Y049480D02*
Y050380D01*
Y049480D02*
X024595D01*
X048130Y053960D02*
Y054260D01*
X047980Y054110D02*
X048280D01*
X046995Y053630D02*
X047545D01*
Y052730D02*
Y053630D01*
X046995Y052730D02*
X047545D01*
X045945Y053630D02*
X046495D01*
X045945Y052730D02*
Y053630D01*
Y052730D02*
X046495D01*
X046670Y051105D02*
Y051655D01*
X045770Y051105D02*
X046670D01*
X045770D02*
Y051655D01*
X046670Y052155D02*
Y052705D01*
X045770D02*
X046670D01*
X045770Y052155D02*
Y052705D01*
X046895Y050980D02*
X047445D01*
Y050080D02*
Y050980D01*
X046895Y050080D02*
X047445D01*
X045845Y050980D02*
X046395D01*
X045845Y050080D02*
Y050980D01*
Y050080D02*
X046395D01*
X047295Y048071D02*
X047507Y048283D01*
X047295D02*
X047507Y048071D01*
X049295Y036580D02*
X049845D01*
X049295D02*
Y037480D01*
X049845D01*
X050345Y036580D02*
X050895D01*
Y037480D01*
X050345D02*
X050895D01*
X049295Y038230D02*
X049845D01*
X049295D02*
Y039130D01*
X049845D01*
X050345Y038230D02*
X050895D01*
Y039130D01*
X050345D02*
X050895D01*
X052145Y039930D02*
X052695D01*
Y039030D02*
Y039930D01*
X052145Y039030D02*
X052695D01*
X051095Y039930D02*
X051645D01*
X051095Y039030D02*
Y039930D01*
Y039030D02*
X051645D01*
X054020Y037930D02*
X054770D01*
X055270D02*
X056020D01*
Y033930D02*
Y037930D01*
X054020Y033930D02*
X056020D01*
X054020D02*
Y037930D01*
X055395Y041130D02*
X055945D01*
X055395D02*
Y042030D01*
X055945D01*
X056445Y041130D02*
X056995D01*
Y042030D01*
X056445D02*
X056995D01*
X033600Y050450D02*
Y050980D01*
Y051500D02*
Y052030D01*
X035670Y050450D02*
Y052010D01*
X032245Y053030D02*
X032795D01*
X032245D02*
Y053930D01*
X032795D01*
X033295Y053030D02*
X033845D01*
Y053930D01*
X033295D02*
X033845D01*
X031845Y048730D02*
X032395D01*
X031845D02*
Y049630D01*
X032395D01*
X032895Y048730D02*
X033445D01*
Y049630D01*
X032895D02*
X033445D01*
X032895Y052830D02*
X033445D01*
Y051930D02*
Y052830D01*
X032895Y051930D02*
X033445D01*
X031845Y052830D02*
X032395D01*
X031845Y051930D02*
Y052830D01*
Y051930D02*
X032395D01*
X038695Y051230D02*
X039245D01*
X038695D02*
Y052130D01*
X039245D01*
X039745Y051230D02*
X040295D01*
Y052130D01*
X039745D02*
X040295D01*
X040995Y052830D02*
X041545D01*
X040995D02*
Y053730D01*
X041545D01*
X042045Y052830D02*
X042595D01*
Y053730D01*
X042045D02*
X042595D01*
X039345Y053080D02*
X039895D01*
X039345D02*
Y053980D01*
X039895D01*
X040395Y053080D02*
X040945D01*
Y053980D01*
X040395D02*
X040945D01*
X042945Y050030D02*
X043495D01*
Y049130D02*
Y050030D01*
X042945Y049130D02*
X043495D01*
X041895Y050030D02*
X042445D01*
X041895Y049130D02*
Y050030D01*
Y049130D02*
X042445D01*
X043295Y052180D02*
X043845D01*
Y051280D02*
Y052180D01*
X043295Y051280D02*
X043845D01*
X042245Y052180D02*
X042795D01*
X042245Y051280D02*
Y052180D01*
Y051280D02*
X042795D01*
X041345Y049830D02*
X041895D01*
Y048930D02*
Y049830D01*
X041345Y048930D02*
X041895D01*
X040295Y049830D02*
X040845D01*
X040295Y048930D02*
Y049830D01*
Y048930D02*
X040845D01*
X042245Y050380D02*
X042795D01*
X042245D02*
Y051280D01*
X042795D01*
X043295Y050380D02*
X043845D01*
Y051280D01*
X043295D02*
X043845D01*
X039745Y050330D02*
X040295D01*
Y049430D02*
Y050330D01*
X039745Y049430D02*
X040295D01*
X038695Y050330D02*
X039245D01*
X038695Y049430D02*
Y050330D01*
Y049430D02*
X039245D01*
X039745Y051230D02*
X040295D01*
Y050330D02*
Y051230D01*
X039745Y050330D02*
X040295D01*
X038695Y051230D02*
X039245D01*
X038695Y050330D02*
Y051230D01*
Y050330D02*
X039245D01*
X040680Y050950D02*
Y051610D01*
X041806Y050967D02*
Y051210D01*
Y051350D02*
Y051593D01*
X038695Y052180D02*
X039245D01*
X038695D02*
Y053080D01*
X039245D01*
X039745Y052180D02*
X040295D01*
Y053080D01*
X039745D02*
X040295D01*
X030500Y037600D02*
Y038130D01*
X031340Y037600D02*
Y038120D01*
X030500Y038130D02*
X031330D01*
X031340Y038120D01*
Y036730D02*
Y037260D01*
X030500Y036730D02*
X031340D01*
X030500D02*
Y037260D01*
X025645Y035180D02*
X026195D01*
X025645D02*
Y036080D01*
X026195D01*
X026695Y035180D02*
X027245D01*
Y036080D01*
X026695D02*
X027245D01*
X027295Y031480D02*
X027845D01*
Y030580D02*
Y031480D01*
X027295Y030580D02*
X027845D01*
X026245Y031480D02*
X026795D01*
X026245Y030580D02*
Y031480D01*
Y030580D02*
X026795D01*
X027445Y031930D02*
X027995D01*
X027445D02*
Y032830D01*
X027995D01*
X028495Y031930D02*
X029045D01*
Y032830D01*
X028495D02*
X029045D01*
X028320Y035155D02*
Y035705D01*
X027420Y035155D02*
X028320D01*
X027420D02*
Y035705D01*
X028320Y036205D02*
Y036755D01*
X027420D02*
X028320D01*
X027420Y036205D02*
Y036755D01*
X027095Y040430D02*
X027645D01*
Y039530D02*
Y040430D01*
X027095Y039530D02*
X027645D01*
X026045Y040430D02*
X026595D01*
X026045Y039530D02*
Y040430D01*
Y039530D02*
X026595D01*
X035820Y025130D02*
X037820D01*
X035820Y024130D02*
Y025130D01*
Y024130D02*
X037820D01*
Y025130D01*
X036820Y024130D02*
Y025130D01*
X035820Y023830D02*
X037820D01*
Y022830D02*
Y023830D01*
X035820Y022830D02*
Y023830D01*
X037820Y021830D02*
Y022830D01*
X035820Y021830D02*
X037820D01*
X035820D02*
Y022830D01*
Y021830D02*
X037820D01*
X024095Y021880D02*
X024645D01*
Y020980D02*
Y021880D01*
X024095Y020980D02*
X024645D01*
X023045Y021880D02*
X023595D01*
X023045Y020980D02*
Y021880D01*
Y020980D02*
X023595D01*
X024778Y028586D02*
X025038Y028436D01*
X024833Y028381D02*
X024983Y028641D01*
X021212Y028034D02*
X021472Y027884D01*
X021267Y027829D02*
X021417Y028089D01*
X023370Y030555D02*
Y031105D01*
X022470Y030555D02*
X023370D01*
X022470D02*
Y031105D01*
X023370Y031605D02*
Y032155D01*
X022470D02*
X023370D01*
X022470Y031605D02*
Y032155D01*
X022745Y034530D02*
X023295D01*
Y033630D02*
Y034530D01*
X022745Y033630D02*
X023295D01*
X021695Y034530D02*
X022245D01*
X021695Y033630D02*
Y034530D01*
Y033630D02*
X022245D01*
X021145Y034530D02*
X021695D01*
Y033630D02*
Y034530D01*
X021145Y033630D02*
X021695D01*
X020095Y034530D02*
X020645D01*
X020095Y033630D02*
Y034530D01*
Y033630D02*
X020645D01*
X023420Y038030D02*
Y040030D01*
X022420D02*
X023420D01*
X022420Y038030D02*
Y040030D01*
Y038030D02*
X023420D01*
X022420Y039030D02*
X023420D01*
X022780Y036630D02*
Y036930D01*
X022630Y036780D02*
X022930D01*
X038070Y028330D02*
X040070D01*
Y029330D01*
X038070D02*
X040070D01*
X038070Y028330D02*
Y029330D01*
X039070Y028330D02*
Y029330D01*
X038070Y024130D02*
X040070D01*
X038070D02*
Y028130D01*
X040070Y024130D02*
Y028130D01*
X038070D02*
X040070D01*
X038070Y034680D02*
X040070D01*
Y030680D02*
Y034680D01*
X038070Y030680D02*
Y034680D01*
Y030680D02*
X040070D01*
X043895Y023180D02*
X044445D01*
X043895D02*
Y024080D01*
X044445D01*
X044945Y023180D02*
X045495D01*
Y024080D01*
X044945D02*
X045495D01*
X044170Y026555D02*
Y027105D01*
X045070D01*
Y026555D02*
Y027105D01*
X044170Y025505D02*
Y026055D01*
Y025505D02*
X045070D01*
Y026055D01*
X046245Y026930D02*
X046795D01*
Y026030D02*
Y026930D01*
X046245Y026030D02*
X046795D01*
X045195Y026930D02*
X045745D01*
X045195Y026030D02*
Y026930D01*
Y026030D02*
X045745D01*
X045313Y020920D02*
X047675D01*
X045313Y019542D02*
Y020920D01*
X047675Y019542D02*
Y020920D01*
X045313Y019542D02*
X047675D01*
X049560Y021375D02*
Y023737D01*
X048182D02*
X049560D01*
X048182Y021375D02*
X049560D01*
X048182D02*
Y023737D01*
X023570Y054580D02*
X025570D01*
X023570Y053580D02*
Y054580D01*
Y053580D02*
X025570D01*
Y054580D01*
X024570Y053580D02*
Y054580D01*
X020056Y046930D02*
X023205D01*
X020056Y051080D02*
X023205D01*
X020056Y046930D02*
Y051080D01*
X023205Y046930D02*
Y051080D01*
X048510Y027120D02*
Y027440D01*
X047930Y027120D02*
Y027440D01*
X028720Y032930D02*
Y034930D01*
X027720Y032930D02*
X028720D01*
Y034930D01*
X027720D02*
X028720D01*
X026720Y032930D02*
X027720D01*
X026720Y034930D02*
X027720D01*
X025720Y032930D02*
Y034930D01*
Y032930D02*
X026720D01*
X025720Y034930D02*
X026720D01*
X041170Y016080D02*
Y018080D01*
X042170D01*
X041170Y016080D02*
X042170D01*
Y018080D02*
X043170D01*
Y016080D02*
Y018080D01*
X042170Y016080D02*
X043170D01*
Y018080D01*
X028895Y044430D02*
X029445D01*
Y043530D02*
Y044430D01*
X028895Y043530D02*
X029445D01*
X027845Y044430D02*
X028395D01*
X027845Y043530D02*
Y044430D01*
Y043530D02*
X028395D01*
X027870Y045455D02*
Y046005D01*
X026970Y045455D02*
X027870D01*
X026970D02*
Y046005D01*
X027870Y046505D02*
Y047055D01*
X026970D02*
X027870D01*
X026970Y046505D02*
Y047055D01*
X035895Y016080D02*
X036445D01*
X035895D02*
Y016980D01*
X036445D01*
X036945Y016080D02*
X037495D01*
Y016980D01*
X036945D02*
X037495D01*
X020070Y032255D02*
Y032805D01*
X020970D01*
Y032255D02*
Y032805D01*
X020070Y031205D02*
Y031755D01*
Y031205D02*
X020970D01*
Y031755D01*
X020070Y030005D02*
Y030555D01*
X020970D01*
Y030005D02*
Y030555D01*
X020070Y028955D02*
Y029505D01*
Y028955D02*
X020970D01*
Y029505D01*
X021650Y045970D02*
Y046270D01*
X021500Y046120D02*
X021800D01*
X020195Y038080D02*
X020745D01*
X020195D02*
Y038980D01*
X020745D01*
X021245Y038080D02*
X021795D01*
Y038980D01*
X021245D02*
X021795D01*
X049558Y016773D02*
Y019135D01*
X048180D02*
X049558D01*
X048180Y016773D02*
X049558D01*
X048180D02*
Y019135D01*
X049060Y024890D02*
X049380D01*
X049060Y025470D02*
X049380D01*
X053863Y046822D02*
Y046823D01*
X057795Y050030D02*
X058345D01*
Y049130D02*
Y050030D01*
X057795Y049130D02*
X058345D01*
X056745Y050030D02*
X057295D01*
X056745Y049130D02*
Y050030D01*
Y049130D02*
X057295D01*
X057795Y051080D02*
X058345D01*
Y050180D02*
Y051080D01*
X057795Y050180D02*
X058345D01*
X056745Y051080D02*
X057295D01*
X056745Y050180D02*
Y051080D01*
Y050180D02*
X057295D01*
X047720Y051105D02*
Y051655D01*
X046820Y051105D02*
X047720D01*
X046820D02*
Y051655D01*
X047720Y052155D02*
Y052705D01*
X046820D02*
X047720D01*
X046820Y052155D02*
Y052705D01*
X056270Y043205D02*
Y043755D01*
X057170D01*
Y043205D02*
Y043755D01*
X056270Y042155D02*
Y042705D01*
Y042155D02*
X057170D01*
Y042705D01*
X054920Y016080D02*
Y018080D01*
X053920Y016080D02*
X054920D01*
X053920Y018080D02*
X054920D01*
X052920Y016080D02*
X053920D01*
X052920D02*
Y018080D01*
X053920D01*
X052920Y016080D02*
Y018080D01*
X047245Y018530D02*
X047795D01*
Y017630D02*
Y018530D01*
X047245Y017630D02*
X047795D01*
X046195Y018530D02*
X046745D01*
X046195Y017630D02*
Y018530D01*
Y017630D02*
X046745D01*
X051895Y022180D02*
X052445D01*
Y021280D02*
Y022180D01*
X051895Y021280D02*
X052445D01*
X050845Y022180D02*
X051395D01*
X050845Y021280D02*
Y022180D01*
Y021280D02*
X051395D01*
X051895Y023080D02*
X052445D01*
Y022180D02*
Y023080D01*
X051895Y022180D02*
X052445D01*
X050845Y023080D02*
X051395D01*
X050845Y022180D02*
Y023080D01*
Y022180D02*
X051395D01*
X050015Y019540D02*
X052377D01*
Y020918D01*
X050015Y019540D02*
Y020918D01*
X052377D01*
X047245Y017630D02*
X047795D01*
Y016730D02*
Y017630D01*
X047245Y016730D02*
X047795D01*
X046195Y017630D02*
X046745D01*
X046195Y016730D02*
Y017630D01*
Y016730D02*
X046745D01*
X047970Y021705D02*
Y022255D01*
X047070Y021705D02*
X047970D01*
X047070D02*
Y022255D01*
X047970Y022755D02*
Y023305D01*
X047070D02*
X047970D01*
X047070Y022755D02*
Y023305D01*
Y021705D02*
Y022255D01*
X046170Y021705D02*
X047070D01*
X046170D02*
Y022255D01*
X047070Y022755D02*
Y023305D01*
X046170D02*
X047070D01*
X046170Y022755D02*
Y023305D01*
X051595Y018030D02*
X052145D01*
Y017130D02*
Y018030D01*
X051595Y017130D02*
X052145D01*
X050545Y018030D02*
X051095D01*
X050545Y017130D02*
Y018030D01*
Y017130D02*
X051095D01*
X051595Y017030D02*
X052145D01*
Y016130D02*
Y017030D01*
X051595Y016130D02*
X052145D01*
X050545Y017030D02*
X051095D01*
X050545Y016130D02*
Y017030D01*
Y016130D02*
X051095D01*
X049760Y029990D02*
X050080D01*
X049760Y030570D02*
X050080D01*
X051760D02*
X052080D01*
X051760Y029990D02*
X052080D01*
X047930Y029120D02*
Y029440D01*
X048510Y029120D02*
Y029440D01*
X041720Y026280D02*
Y028280D01*
X042720D01*
X041720Y026280D02*
Y028280D01*
Y026280D02*
X042720D01*
Y028280D02*
X043720D01*
X042720Y026280D02*
X043720D01*
Y028280D01*
X046345Y023930D02*
X046895D01*
X046345D02*
Y024830D01*
X046895D01*
X047395Y023930D02*
X047945D01*
Y024830D01*
X047395D02*
X047945D01*
X027420Y024630D02*
Y026630D01*
X026420Y024630D02*
X027420D01*
X026420Y026630D02*
X027420D01*
X025420Y024630D02*
X026420D01*
X025420D02*
Y026630D01*
X026420D01*
X025420Y024630D02*
Y026630D01*
X027420Y022330D02*
Y024330D01*
X026420Y022330D02*
X027420D01*
X026420Y024330D02*
X027420D01*
X025420Y022330D02*
X026420D01*
X025420D02*
Y024330D01*
X026420D01*
X025420Y022330D02*
Y024330D01*
X024508Y020053D02*
X029232D01*
X024508Y018432D02*
Y020053D01*
X029232Y018432D02*
Y020053D01*
X030545Y018930D02*
X031095D01*
X030545D02*
Y019830D01*
X031095D01*
X031595Y018930D02*
X032145D01*
Y019830D01*
X031595D02*
X032145D01*
X034495D02*
X035045D01*
Y018930D02*
Y019830D01*
X034495Y018930D02*
X035045D01*
X033445Y019830D02*
X033995D01*
X033445Y018930D02*
Y019830D01*
Y018930D02*
X033995D01*
X033870Y016380D02*
Y018380D01*
X032870Y016380D02*
X033870D01*
X032870Y018380D02*
X033870D01*
X031870Y016380D02*
X032870D01*
X031870D02*
Y018380D01*
X032870D01*
X031870Y016380D02*
Y018380D01*
X022555Y021440D02*
X022655Y021340D01*
X022555Y021440D02*
X022655Y021540D01*
Y021340D02*
Y021540D01*
X020935Y021090D02*
Y021790D01*
X039355Y018120D02*
Y018820D01*
X037635Y018370D02*
Y018570D01*
Y018370D02*
X037735Y018470D01*
X037635Y018570D02*
X037735Y018470D01*
X039355Y016170D02*
Y016870D01*
X037635Y016420D02*
Y016620D01*
Y016420D02*
X037735Y016520D01*
X037635Y016620D02*
X037735Y016520D01*
X035895Y017030D02*
X036445D01*
X035895D02*
Y017930D01*
X036445D01*
X036945Y017030D02*
X037495D01*
Y017930D01*
X036945D02*
X037495D01*
X037635Y017570D02*
X037735Y017470D01*
X037635Y017370D02*
X037735Y017470D01*
X037635Y017370D02*
Y017570D01*
X039355Y017120D02*
Y017820D01*
X037635Y019570D02*
X037735Y019470D01*
X037635Y019370D02*
X037735Y019470D01*
X037635Y019370D02*
Y019570D01*
X039355Y019120D02*
Y019820D01*
X035895Y018030D02*
X036445D01*
X035895D02*
Y018930D01*
X036445D01*
X036945Y018030D02*
X037495D01*
Y018930D01*
X036945D02*
X037495D01*
X035895Y019030D02*
X036445D01*
X035895D02*
Y019930D01*
X036445D01*
X036945Y019030D02*
X037495D01*
Y019930D01*
X036945D02*
X037495D01*
X038695Y023180D02*
X039245D01*
X038695D02*
Y024080D01*
X039245D01*
X039745Y023180D02*
X040295D01*
Y024080D01*
X039745D02*
X040295D01*
X040120Y021255D02*
Y021805D01*
X039220Y021255D02*
X040120D01*
X039220D02*
Y021805D01*
X040120Y022305D02*
Y022855D01*
X039220D02*
X040120D01*
X039220Y022305D02*
Y022855D01*
X041645Y024080D02*
X042195D01*
Y023180D02*
Y024080D01*
X041645Y023180D02*
X042195D01*
X040595Y024080D02*
X041145D01*
X040595Y023180D02*
Y024080D01*
Y023180D02*
X041145D01*
X042295Y018230D02*
X042845D01*
X042295D02*
Y019130D01*
X042845D01*
X043345Y018230D02*
X043895D01*
Y019130D01*
X043345D02*
X043895D01*
X042895D02*
X043445D01*
X042895D02*
Y020030D01*
X043445D01*
X043945Y019130D02*
X044495D01*
Y020030D01*
X043945D02*
X044495D01*
X041295Y019130D02*
X041845D01*
Y018230D02*
Y019130D01*
X041295Y018230D02*
X041845D01*
X040245Y019130D02*
X040795D01*
X040245Y018230D02*
Y019130D01*
Y018230D02*
X040795D01*
X028670Y035970D02*
X028870Y035770D01*
X028670Y035970D02*
X029070D01*
X028870Y035770D02*
X029070Y035970D01*
X028670Y035770D02*
X029070D01*
X030270Y032680D02*
Y034680D01*
X034270D01*
X030270Y032680D02*
X034270D01*
Y034680D01*
X025545Y029080D02*
X026095D01*
X025545D02*
Y029980D01*
X026095D01*
X026595Y029080D02*
X027145D01*
Y029980D01*
X026595D02*
X027145D01*
X029495Y035230D02*
X030045D01*
X029495D02*
Y036130D01*
X030045D01*
X030545Y035230D02*
X031095D01*
Y036130D01*
X030545D02*
X031095D01*
X030559Y019990D02*
X035459D01*
X030559Y021770D02*
X035459D01*
X030559Y019990D02*
Y020229D01*
Y021532D02*
Y021770D01*
X035459Y021532D02*
Y021770D01*
Y019990D02*
Y020229D01*
X051090Y029750D02*
X051620D01*
X050040D02*
X050570D01*
X050040Y025680D02*
X051600D01*
X042770Y020650D02*
Y022210D01*
X040700Y021700D02*
Y022230D01*
Y020650D02*
Y021180D01*
X045070Y027205D02*
Y027755D01*
X044170Y027205D02*
X045070D01*
X044170D02*
Y027755D01*
X045070Y028255D02*
Y028805D01*
X044170D02*
X045070D01*
X044170Y028255D02*
Y028805D01*
X046245Y028180D02*
X046795D01*
Y027280D02*
Y028180D01*
X046245Y027280D02*
X046795D01*
X045195Y028180D02*
X045745D01*
X045195Y027280D02*
Y028180D01*
Y027280D02*
X045745D01*
X046195Y030130D02*
X046745D01*
X046195D02*
Y031030D01*
X046745D01*
X047245Y030130D02*
X047795D01*
Y031030D01*
X047245D02*
X047795D01*
X042895Y029330D02*
X043445D01*
X042895D02*
Y030230D01*
X043445D01*
X043945Y029330D02*
X044495D01*
Y030230D01*
X043945D02*
X044495D01*
X026520Y050130D02*
Y054130D01*
Y050130D02*
X028520D01*
Y054130D01*
X027770D02*
X028520D01*
X026520D02*
X027270D01*
X032895Y050530D02*
X033445D01*
Y049630D02*
Y050530D01*
X032895Y049630D02*
X033445D01*
X031845Y050530D02*
X032395D01*
X031845Y049630D02*
Y050530D01*
Y049630D02*
X032395D01*
X047820Y030780D02*
X049820D01*
Y031780D01*
X047820D02*
X049820D01*
X047820Y030780D02*
Y031780D01*
X048820Y030780D02*
Y031780D01*
X049295Y034230D02*
X049845D01*
X049295D02*
Y035130D01*
X049845D01*
X050345Y034230D02*
X050895D01*
Y035130D01*
X050345D02*
X050895D01*
X052145Y033580D02*
X052695D01*
Y032680D02*
Y033580D01*
X052145Y032680D02*
X052695D01*
X051095Y033580D02*
X051645D01*
X051095Y032680D02*
Y033580D01*
Y032680D02*
X051645D01*
X052720Y047505D02*
Y048055D01*
X053620D01*
Y047505D02*
Y048055D01*
X052720Y046455D02*
Y047005D01*
Y046455D02*
X053620D01*
Y047005D01*
X058070Y042155D02*
Y042705D01*
X057170Y042155D02*
X058070D01*
X057170D02*
Y042705D01*
X058070Y043205D02*
Y043755D01*
X057170D02*
X058070D01*
X057170Y043205D02*
Y043755D01*
X055370Y043205D02*
Y043755D01*
X056270D01*
Y043205D02*
Y043755D01*
X055370Y042155D02*
Y042705D01*
Y042155D02*
X056270D01*
Y042705D01*
X053720Y043330D02*
Y045330D01*
X052720D02*
X053720D01*
X052720Y043330D02*
Y045330D01*
Y043330D02*
X053720D01*
X052720Y044330D02*
X053720D01*
X052145Y035930D02*
X052695D01*
Y035030D02*
Y035930D01*
X052145Y035030D02*
X052695D01*
X051095Y035930D02*
X051645D01*
X051095Y035030D02*
Y035930D01*
Y035030D02*
X051645D01*
X048820Y041330D02*
Y043330D01*
X049820D01*
X048820Y041330D02*
Y043330D01*
Y041330D02*
X049820D01*
Y043330D02*
X050820D01*
X049820Y041330D02*
X050820D01*
Y043330D01*
X049770Y044655D02*
Y045205D01*
X048870Y044655D02*
X049770D01*
X048870D02*
Y045205D01*
X049770Y045705D02*
Y046255D01*
X048870D02*
X049770D01*
X048870Y045705D02*
Y046255D01*
X045120Y048480D02*
X046120D01*
X045120Y047480D02*
X046120D01*
X045120D02*
Y049480D01*
X046120D01*
Y047480D02*
Y049480D01*
X050870Y046355D02*
Y046905D01*
X049970Y046355D02*
X050870D01*
X049970D02*
Y046905D01*
X050870Y047405D02*
Y047955D01*
X049970D02*
X050870D01*
X049970Y047405D02*
Y047955D01*
X030370Y036280D02*
Y038280D01*
X029370D02*
X030370D01*
X029370Y036280D02*
Y038280D01*
Y036280D02*
X030370D01*
X029370Y037280D02*
X030370D01*
X044195Y040780D02*
X044745D01*
Y039880D02*
Y040780D01*
X044195Y039880D02*
X044745D01*
X043145Y040780D02*
X043695D01*
X043145Y039880D02*
Y040780D01*
Y039880D02*
X043695D01*
X043020Y031880D02*
Y033880D01*
X044020D01*
X043020Y031880D02*
Y033880D01*
Y031880D02*
X044020D01*
Y033880D02*
X045020D01*
X044020Y031880D02*
X045020D01*
Y033880D01*
X042950Y035850D02*
Y036380D01*
Y036900D02*
Y037430D01*
X045020Y035850D02*
Y037410D01*
X044620Y044930D02*
Y046930D01*
X043620Y044930D02*
X044620D01*
Y046930D01*
X043620D02*
X044620D01*
X042620Y044930D02*
X043620D01*
X042620Y046930D02*
X043620D01*
X042620Y044930D02*
Y046930D01*
X043145Y038530D02*
X043695D01*
X043145D02*
Y039430D01*
X043695D01*
X044195Y038530D02*
X044745D01*
Y039430D01*
X044195D02*
X044745D01*
X045020Y042930D02*
Y043460D01*
Y041880D02*
Y042410D01*
X042950Y041900D02*
Y043460D01*
X041720Y036530D02*
X042720D01*
X041720Y037530D02*
X042720D01*
Y035530D02*
Y037530D01*
X041720Y035530D02*
X042720D01*
X041720D02*
Y037530D01*
X045270Y042780D02*
X046270D01*
X045270Y041780D02*
X046270D01*
X045270D02*
Y043780D01*
X046270D01*
Y041780D02*
Y043780D01*
X038345Y044680D02*
X038895D01*
Y043780D02*
Y044680D01*
X038345Y043780D02*
X038895D01*
X037295Y044680D02*
X037845D01*
X037295Y043780D02*
Y044680D01*
Y043780D02*
X037845D01*
X038345Y045580D02*
X038895D01*
Y044680D02*
Y045580D01*
X038345Y044680D02*
X038895D01*
X037295Y045580D02*
X037845D01*
X037295Y044680D02*
Y045580D01*
Y044680D02*
X037845D01*
X038345Y046480D02*
X038895D01*
Y045580D02*
Y046480D01*
X038345Y045580D02*
X038895D01*
X037295Y046480D02*
X037845D01*
X037295Y045580D02*
Y046480D01*
Y045580D02*
X037845D01*
X036045Y046180D02*
X036595D01*
Y045280D02*
Y046180D01*
X036045Y045280D02*
X036595D01*
X034995Y046180D02*
X035545D01*
X034995Y045280D02*
Y046180D01*
Y045280D02*
X035545D01*
X034445Y046180D02*
X034995D01*
Y045280D02*
Y046180D01*
X034445Y045280D02*
X034995D01*
X033395Y046180D02*
X033945D01*
X033395Y045280D02*
Y046180D01*
Y045280D02*
X033945D01*
X035995Y040030D02*
X036545D01*
X035995D02*
Y040930D01*
X036545D01*
X037045Y040030D02*
X037595D01*
Y040930D01*
X037045D02*
X037595D01*
X038345Y041830D02*
X038895D01*
Y040930D02*
Y041830D01*
X038345Y040930D02*
X038895D01*
X037295Y041830D02*
X037845D01*
X037295Y040930D02*
Y041830D01*
Y040930D02*
X037845D01*
X038345Y042730D02*
X038895D01*
Y041830D02*
Y042730D01*
X038345Y041830D02*
X038895D01*
X037295Y042730D02*
X037845D01*
X037295Y041830D02*
Y042730D01*
Y041830D02*
X037845D01*
X038345Y043630D02*
X038895D01*
Y042730D02*
Y043630D01*
X038345Y042730D02*
X038895D01*
X037295Y043630D02*
X037845D01*
X037295Y042730D02*
Y043630D01*
Y042730D02*
X037845D01*
X034600Y042300D02*
Y042830D01*
Y043350D02*
Y043880D01*
X036670Y042300D02*
Y043860D01*
X035345Y040930D02*
X035895D01*
Y040030D02*
Y040930D01*
X035345Y040030D02*
X035895D01*
X034295Y040930D02*
X034845D01*
X034295Y040030D02*
Y040930D01*
Y040030D02*
X034845D01*
X030470Y044855D02*
Y045405D01*
X029570Y044855D02*
X030470D01*
X029570D02*
Y045405D01*
X030470Y045905D02*
Y046455D01*
X029570D02*
X030470D01*
X029570Y045905D02*
Y046455D01*
X031545Y044430D02*
X032095D01*
Y043530D02*
Y044430D01*
X031545Y043530D02*
X032095D01*
X030495Y044430D02*
X031045D01*
X030495Y043530D02*
Y044430D01*
Y043530D02*
X031045D01*
X028850Y022580D02*
Y023110D01*
Y022580D02*
X029690D01*
Y023110D01*
X029680Y023980D02*
X029690Y023970D01*
X028850Y023980D02*
X029680D01*
X029690Y023450D02*
Y023970D01*
X028850Y023450D02*
Y023980D01*
X025420Y026930D02*
Y028930D01*
X026420D01*
X025420Y026930D02*
X026420D01*
Y028930D02*
X027420D01*
Y026930D02*
Y028930D01*
X026420Y026930D02*
X027420D01*
Y028930D01*
X035070Y032680D02*
Y034680D01*
X036070D01*
X035070Y032680D02*
X036070D01*
Y034680D02*
X037070D01*
Y032680D02*
Y034680D01*
X036070Y032680D02*
X037070D01*
Y034680D01*
X024487Y047913D02*
X024420Y047980D01*
X024287D01*
X024220Y047913D01*
Y047647D01*
X024287Y047580D01*
X024420D01*
X024487Y047647D01*
X024886Y047980D02*
X024620D01*
Y047780D01*
X024753Y047847D01*
X024820D01*
X024886Y047780D01*
Y047647D01*
X024820Y047580D01*
X024687D01*
X024620Y047647D01*
X025286Y047580D02*
X025020D01*
X025286Y047847D01*
Y047913D01*
X025220Y047980D01*
X025086D01*
X025020Y047913D01*
X028970Y048280D02*
X029237D01*
X029636Y048480D02*
X029370D01*
Y048280D01*
X029503Y048347D01*
X029570D01*
X029636Y048280D01*
Y048147D01*
X029570Y048080D01*
X029437D01*
X029370Y048147D01*
X029770Y048480D02*
Y048213D01*
X029903Y048080D01*
X030036Y048213D01*
Y048480D01*
X027737Y048413D02*
X027670Y048480D01*
X027537D01*
X027470Y048413D01*
Y048147D01*
X027537Y048080D01*
X027670D01*
X027737Y048147D01*
Y048280D01*
X027603D01*
X027870Y048080D02*
Y048480D01*
X028136Y048080D01*
Y048480D01*
X028270D02*
Y048080D01*
X028470D01*
X028536Y048147D01*
Y048413D01*
X028470Y048480D01*
X028270D01*
X025820Y042213D02*
X025887Y042280D01*
X026020D01*
X026087Y042213D01*
Y042147D01*
X026020Y042080D01*
X025953D01*
X026020D01*
X026087Y042013D01*
Y041947D01*
X026020Y041880D01*
X025887D01*
X025820Y041947D01*
X026220Y042280D02*
Y042013D01*
X026353Y041880D01*
X026486Y042013D01*
Y042280D01*
X026620Y042213D02*
X026686Y042280D01*
X026820D01*
X026886Y042213D01*
Y042147D01*
X026820Y042080D01*
X026753D01*
X026820D01*
X026886Y042013D01*
Y041947D01*
X026820Y041880D01*
X026686D01*
X026620Y041947D01*
X028570Y040197D02*
Y039997D01*
X028637Y039930D01*
X028837D01*
Y040197D01*
X028970Y039930D02*
Y040330D01*
X029170D01*
X029236Y040263D01*
Y040130D01*
X029170Y040063D01*
X028970D01*
X029370Y039863D02*
X029636D01*
X030036Y040263D02*
X029970Y040330D01*
X029836D01*
X029770Y040263D01*
Y039997D01*
X029836Y039930D01*
X029970D01*
X030036Y039997D01*
Y040130D01*
X029903D01*
X030169Y039930D02*
Y040330D01*
X030436Y039930D01*
Y040330D01*
X030569D02*
Y039930D01*
X030769D01*
X030836Y039997D01*
Y040263D01*
X030769Y040330D01*
X030569D01*
X026287Y048480D02*
X026020D01*
Y048280D01*
X026153Y048347D01*
X026220D01*
X026287Y048280D01*
Y048147D01*
X026220Y048080D01*
X026087D01*
X026020Y048147D01*
X026420Y048480D02*
Y048213D01*
X026553Y048080D01*
X026686Y048213D01*
Y048480D01*
X038220Y037447D02*
Y037247D01*
X038287Y037180D01*
X038487D01*
Y037447D01*
X038620Y037180D02*
Y037580D01*
X038820D01*
X038886Y037513D01*
Y037380D01*
X038820Y037313D01*
X038620D01*
X039020Y037113D02*
X039286D01*
X039686Y037513D02*
X039620Y037580D01*
X039486D01*
X039420Y037513D01*
Y037247D01*
X039486Y037180D01*
X039620D01*
X039686Y037247D01*
Y037380D01*
X039553D01*
X039819Y037180D02*
Y037580D01*
X040086Y037180D01*
Y037580D01*
X040219D02*
Y037180D01*
X040419D01*
X040486Y037247D01*
Y037513D01*
X040419Y037580D01*
X040219D01*
X023537Y053030D02*
X023270D01*
X023537Y053297D01*
Y053363D01*
X023470Y053430D01*
X023337D01*
X023270Y053363D01*
X023670D02*
X023737Y053430D01*
X023870D01*
X023936Y053363D01*
Y053097D01*
X023870Y053030D01*
X023737D01*
X023670Y053097D01*
Y053363D01*
X024070D02*
X024136Y053430D01*
X024270D01*
X024336Y053363D01*
Y053097D01*
X024270Y053030D01*
X024136D01*
X024070Y053097D01*
Y053363D01*
X024470Y053430D02*
Y053030D01*
Y053163D01*
X024736Y053430D01*
X024536Y053230D01*
X024736Y053030D01*
X024869Y053430D02*
Y053030D01*
Y053230D01*
X025136D01*
Y053430D01*
Y053030D01*
X025269Y053297D02*
X025536D01*
X025269Y053030D01*
X025536D01*
X028670Y054530D02*
Y054197D01*
X028737Y054130D01*
X028870D01*
X028937Y054197D01*
Y054530D01*
X029070Y054130D02*
X029203D01*
X029137D01*
Y054530D01*
X029070Y054463D01*
X029403Y054130D02*
X029536D01*
X029470D01*
Y054530D01*
X029403Y054463D01*
X054720Y038530D02*
Y038197D01*
X054787Y038130D01*
X054920D01*
X054987Y038197D01*
Y038530D01*
X055120Y038197D02*
X055187Y038130D01*
X055320D01*
X055386Y038197D01*
Y038463D01*
X055320Y038530D01*
X055187D01*
X055120Y038463D01*
Y038397D01*
X055187Y038330D01*
X055386D01*
X045120Y047330D02*
Y046930D01*
X045320D01*
X045387Y046997D01*
Y047263D01*
X045320Y047330D01*
X045120D01*
X045786Y047263D02*
X045720Y047330D01*
X045587D01*
X045520Y047263D01*
Y047197D01*
X045587Y047130D01*
X045720D01*
X045786Y047063D01*
Y046997D01*
X045720Y046930D01*
X045587D01*
X045520Y046997D01*
X046186Y047263D02*
X046120Y047330D01*
X045986D01*
X045920Y047263D01*
Y047197D01*
X045986Y047130D01*
X046120D01*
X046186Y047063D01*
Y046997D01*
X046120Y046930D01*
X045986D01*
X045920Y046997D01*
X046320Y046863D02*
X046586D01*
X046919Y047330D02*
X046786D01*
X046719Y047263D01*
Y046997D01*
X046786Y046930D01*
X046919D01*
X046986Y046997D01*
Y047263D01*
X046919Y047330D01*
X047119Y046930D02*
Y047330D01*
X047386Y046930D01*
Y047330D01*
X030637Y047230D02*
X030370D01*
X030637Y047497D01*
Y047563D01*
X030570Y047630D01*
X030437D01*
X030370Y047563D01*
X030770Y047630D02*
X030903D01*
X030837D01*
Y047230D01*
X030770D01*
X030903D01*
X031303Y047630D02*
X031170D01*
X031103Y047563D01*
Y047297D01*
X031170Y047230D01*
X031303D01*
X031370Y047297D01*
Y047563D01*
X031303Y047630D01*
X031770D02*
X031503D01*
Y047430D01*
X031636Y047497D01*
X031703D01*
X031770Y047430D01*
Y047297D01*
X031703Y047230D01*
X031570D01*
X031503Y047297D01*
X031903Y047630D02*
Y047363D01*
X032036Y047230D01*
X032169Y047363D01*
Y047630D01*
X030537Y041980D02*
X030270D01*
X030537Y042247D01*
Y042313D01*
X030470Y042380D01*
X030337D01*
X030270Y042313D01*
X030670Y042380D02*
X030803D01*
X030737D01*
Y041980D01*
X030670D01*
X030803D01*
X031203Y042380D02*
X031070D01*
X031003Y042313D01*
Y042047D01*
X031070Y041980D01*
X031203D01*
X031270Y042047D01*
Y042313D01*
X031203Y042380D01*
X031403Y042313D02*
X031470Y042380D01*
X031603D01*
X031670Y042313D01*
Y042247D01*
X031603Y042180D01*
X031536D01*
X031603D01*
X031670Y042113D01*
Y042047D01*
X031603Y041980D01*
X031470D01*
X031403Y042047D01*
X031803Y042380D02*
Y042113D01*
X031936Y041980D01*
X032069Y042113D01*
Y042380D01*
X032203Y042313D02*
X032269Y042380D01*
X032403D01*
X032469Y042313D01*
Y042247D01*
X032403Y042180D01*
X032336D01*
X032403D01*
X032469Y042113D01*
Y042047D01*
X032403Y041980D01*
X032269D01*
X032203Y042047D01*
X027820Y047230D02*
X027953D01*
X027887D01*
Y047630D01*
X027820Y047563D01*
X028153Y047630D02*
X028287D01*
X028220D01*
Y047230D01*
X028153D01*
X028287D01*
X028686Y047630D02*
X028553D01*
X028486Y047563D01*
Y047297D01*
X028553Y047230D01*
X028686D01*
X028753Y047297D01*
Y047563D01*
X028686Y047630D01*
X029153D02*
X028886D01*
Y047430D01*
X029020Y047497D01*
X029086D01*
X029153Y047430D01*
Y047297D01*
X029086Y047230D01*
X028953D01*
X028886Y047297D01*
X029286Y047630D02*
Y047363D01*
X029419Y047230D01*
X029553Y047363D01*
Y047630D01*
X027670Y041980D02*
X027803D01*
X027737D01*
Y042380D01*
X027670Y042313D01*
X028003Y042380D02*
X028137D01*
X028070D01*
Y041980D01*
X028003D01*
X028137D01*
X028536Y042380D02*
X028403D01*
X028336Y042313D01*
Y042047D01*
X028403Y041980D01*
X028536D01*
X028603Y042047D01*
Y042313D01*
X028536Y042380D01*
X028736Y042313D02*
X028803Y042380D01*
X028936D01*
X029003Y042313D01*
Y042247D01*
X028936Y042180D01*
X028870D01*
X028936D01*
X029003Y042113D01*
Y042047D01*
X028936Y041980D01*
X028803D01*
X028736Y042047D01*
X029136Y042380D02*
Y042113D01*
X029269Y041980D01*
X029403Y042113D01*
Y042380D01*
X029536Y042313D02*
X029603Y042380D01*
X029736D01*
X029803Y042313D01*
Y042247D01*
X029736Y042180D01*
X029669D01*
X029736D01*
X029803Y042113D01*
Y042047D01*
X029736Y041980D01*
X029603D01*
X029536Y042047D01*
X030370Y043430D02*
X029970D01*
Y043630D01*
X030037Y043697D01*
X030170D01*
X030237Y043630D01*
Y043430D01*
Y043563D02*
X030370Y043697D01*
Y044030D02*
X029970D01*
X030170Y043830D01*
Y044096D01*
X030370Y044430D02*
X029970D01*
X030170Y044230D01*
Y044496D01*
X027720Y043480D02*
X027320D01*
Y043680D01*
X027387Y043747D01*
X027520D01*
X027587Y043680D01*
Y043480D01*
Y043613D02*
X027720Y043747D01*
Y044080D02*
X027320D01*
X027520Y043880D01*
Y044146D01*
X027720Y044546D02*
Y044280D01*
X027453Y044546D01*
X027387D01*
X027320Y044480D01*
Y044346D01*
X027387Y044280D01*
X032237Y044797D02*
Y045063D01*
X032170Y045130D01*
X032037D01*
X031970Y045063D01*
Y044797D01*
X032037Y044730D01*
X032170D01*
X032103Y044863D02*
X032237Y044730D01*
X032170D02*
X032237Y044797D01*
X032570Y044730D02*
Y045130D01*
X032370Y044930D01*
X032636D01*
X027487Y044797D02*
Y045063D01*
X027420Y045130D01*
X027287D01*
X027220Y045063D01*
Y044797D01*
X027287Y044730D01*
X027420D01*
X027353Y044863D02*
X027487Y044730D01*
X027420D02*
X027487Y044797D01*
X027620Y045063D02*
X027687Y045130D01*
X027820D01*
X027886Y045063D01*
Y044997D01*
X027820Y044930D01*
X027753D01*
X027820D01*
X027886Y044863D01*
Y044797D01*
X027820Y044730D01*
X027687D01*
X027620Y044797D01*
X022520Y033340D02*
Y033007D01*
X022587Y032940D01*
X022720D01*
X022787Y033007D01*
Y033340D01*
X023186D02*
X022920D01*
Y033140D01*
X023053Y033207D01*
X023120D01*
X023186Y033140D01*
Y033007D01*
X023120Y032940D01*
X022987D01*
X022920Y033007D01*
X048387Y048163D02*
X048320Y048230D01*
X048187D01*
X048120Y048163D01*
Y047897D01*
X048187Y047830D01*
X048320D01*
X048387Y047897D01*
X048520Y047830D02*
X048653D01*
X048587D01*
Y048230D01*
X048520Y048163D01*
X048687Y052413D02*
X048620Y052480D01*
X048487D01*
X048420Y052413D01*
Y052147D01*
X048487Y052080D01*
X048620D01*
X048687Y052147D01*
X049086Y052080D02*
X048820D01*
X049086Y052347D01*
Y052413D01*
X049020Y052480D01*
X048887D01*
X048820Y052413D01*
X047837Y050663D02*
X047770Y050730D01*
X047637D01*
X047570Y050663D01*
Y050397D01*
X047637Y050330D01*
X047770D01*
X047837Y050397D01*
X047970Y050663D02*
X048037Y050730D01*
X048170D01*
X048236Y050663D01*
Y050597D01*
X048170Y050530D01*
X048103D01*
X048170D01*
X048236Y050463D01*
Y050397D01*
X048170Y050330D01*
X048037D01*
X047970Y050397D01*
X046687Y054113D02*
X046620Y054180D01*
X046487D01*
X046420Y054113D01*
Y053847D01*
X046487Y053780D01*
X046620D01*
X046687Y053847D01*
X047020Y053780D02*
Y054180D01*
X046820Y053980D01*
X047086D01*
X053087Y048573D02*
X053020Y048640D01*
X052887D01*
X052820Y048573D01*
Y048307D01*
X052887Y048240D01*
X053020D01*
X053087Y048307D01*
X053486Y048640D02*
X053220D01*
Y048440D01*
X053353Y048507D01*
X053420D01*
X053486Y048440D01*
Y048307D01*
X053420Y048240D01*
X053287D01*
X053220Y048307D01*
X057537Y051563D02*
X057470Y051630D01*
X057337D01*
X057270Y051563D01*
Y051297D01*
X057337Y051230D01*
X057470D01*
X057537Y051297D01*
X057936Y051630D02*
X057803Y051563D01*
X057670Y051430D01*
Y051297D01*
X057737Y051230D01*
X057870D01*
X057936Y051297D01*
Y051363D01*
X057870Y051430D01*
X057670D01*
X058037Y041647D02*
X057970Y041580D01*
Y041447D01*
X058037Y041380D01*
X058303D01*
X058370Y041447D01*
Y041580D01*
X058303Y041647D01*
X057970Y041780D02*
Y042046D01*
X058037D01*
X058303Y041780D01*
X058370D01*
X055937Y051463D02*
X055870Y051530D01*
X055737D01*
X055670Y051463D01*
Y051197D01*
X055737Y051130D01*
X055870D01*
X055937Y051197D01*
X056070D02*
X056137Y051130D01*
X056270D01*
X056336Y051197D01*
Y051463D01*
X056270Y051530D01*
X056137D01*
X056070Y051463D01*
Y051397D01*
X056137Y051330D01*
X056336D01*
X049087Y051363D02*
X049020Y051430D01*
X048887D01*
X048820Y051363D01*
Y051097D01*
X048887Y051030D01*
X049020D01*
X049087Y051097D01*
X049220Y051030D02*
X049353D01*
X049287D01*
Y051430D01*
X049220Y051363D01*
X049553Y051030D02*
X049686D01*
X049620D01*
Y051430D01*
X049553Y051363D01*
X042237Y024563D02*
X042170Y024630D01*
X042037D01*
X041970Y024563D01*
Y024297D01*
X042037Y024230D01*
X042170D01*
X042237Y024297D01*
X042370Y024230D02*
X042503D01*
X042437D01*
Y024630D01*
X042370Y024563D01*
X042970Y024230D02*
X042703D01*
X042970Y024497D01*
Y024563D01*
X042903Y024630D01*
X042770D01*
X042703Y024563D01*
X020937Y044363D02*
X020870Y044430D01*
X020737D01*
X020670Y044363D01*
Y044097D01*
X020737Y044030D01*
X020870D01*
X020937Y044097D01*
X021070Y044030D02*
X021203D01*
X021137D01*
Y044430D01*
X021070Y044363D01*
X021403D02*
X021470Y044430D01*
X021603D01*
X021670Y044363D01*
Y044297D01*
X021603Y044230D01*
X021536D01*
X021603D01*
X021670Y044163D01*
Y044097D01*
X021603Y044030D01*
X021470D01*
X021403Y044097D01*
X021187Y039413D02*
X021120Y039480D01*
X020987D01*
X020920Y039413D01*
Y039147D01*
X020987Y039080D01*
X021120D01*
X021187Y039147D01*
X021320Y039080D02*
X021453D01*
X021387D01*
Y039480D01*
X021320Y039413D01*
X021853Y039080D02*
Y039480D01*
X021653Y039280D01*
X021920D01*
X022827Y032643D02*
X022760Y032710D01*
X022627D01*
X022560Y032643D01*
Y032377D01*
X022627Y032310D01*
X022760D01*
X022827Y032377D01*
X022960Y032310D02*
X023093D01*
X023027D01*
Y032710D01*
X022960Y032643D01*
X023560Y032710D02*
X023426Y032643D01*
X023293Y032510D01*
Y032377D01*
X023360Y032310D01*
X023493D01*
X023560Y032377D01*
Y032443D01*
X023493Y032510D01*
X023293D01*
X023167Y037703D02*
X023100Y037770D01*
X022967D01*
X022900Y037703D01*
Y037437D01*
X022967Y037370D01*
X023100D01*
X023167Y037437D01*
X023300Y037370D02*
X023433D01*
X023367D01*
Y037770D01*
X023300Y037703D01*
X023633Y037770D02*
X023900D01*
Y037703D01*
X023633Y037437D01*
Y037370D01*
X021837Y029663D02*
X021770Y029730D01*
X021637D01*
X021570Y029663D01*
Y029397D01*
X021637Y029330D01*
X021770D01*
X021837Y029397D01*
X021970Y029330D02*
X022103D01*
X022037D01*
Y029730D01*
X021970Y029663D01*
X022303D02*
X022370Y029730D01*
X022503D01*
X022570Y029663D01*
Y029597D01*
X022503Y029530D01*
X022570Y029463D01*
Y029397D01*
X022503Y029330D01*
X022370D01*
X022303Y029397D01*
Y029463D01*
X022370Y029530D01*
X022303Y029597D01*
Y029663D01*
X022370Y029530D02*
X022503D01*
X023987Y029663D02*
X023920Y029730D01*
X023787D01*
X023720Y029663D01*
Y029397D01*
X023787Y029330D01*
X023920D01*
X023987Y029397D01*
X024120Y029330D02*
X024253D01*
X024187D01*
Y029730D01*
X024120Y029663D01*
X024453Y029397D02*
X024520Y029330D01*
X024653D01*
X024720Y029397D01*
Y029663D01*
X024653Y029730D01*
X024520D01*
X024453Y029663D01*
Y029597D01*
X024520Y029530D01*
X024720D01*
X020237Y028773D02*
X020170Y028840D01*
X020037D01*
X019970Y028773D01*
Y028507D01*
X020037Y028440D01*
X020170D01*
X020237Y028507D01*
X020636Y028440D02*
X020370D01*
X020636Y028707D01*
Y028773D01*
X020570Y028840D01*
X020437D01*
X020370Y028773D01*
X020770D02*
X020836Y028840D01*
X020970D01*
X021036Y028773D01*
Y028507D01*
X020970Y028440D01*
X020836D01*
X020770Y028507D01*
Y028773D01*
X033253Y019613D02*
X033320Y019680D01*
Y019813D01*
X033253Y019880D01*
X032987D01*
X032920Y019813D01*
Y019680D01*
X032987Y019613D01*
X032920Y019214D02*
Y019480D01*
X033187Y019214D01*
X033253D01*
X033320Y019280D01*
Y019413D01*
X033253Y019480D01*
X032920Y018814D02*
Y019080D01*
X033187Y018814D01*
X033253D01*
X033320Y018880D01*
Y019014D01*
X033253Y019080D01*
X030353Y019513D02*
X030420Y019580D01*
Y019713D01*
X030353Y019780D01*
X030087D01*
X030020Y019713D01*
Y019580D01*
X030087Y019513D01*
X030020Y019114D02*
Y019380D01*
X030287Y019114D01*
X030353D01*
X030420Y019180D01*
Y019313D01*
X030353Y019380D01*
Y018980D02*
X030420Y018914D01*
Y018780D01*
X030353Y018714D01*
X030287D01*
X030220Y018780D01*
Y018847D01*
Y018780D01*
X030153Y018714D01*
X030087D01*
X030020Y018780D01*
Y018914D01*
X030087Y018980D01*
X031803Y037713D02*
X031870Y037780D01*
Y037913D01*
X031803Y037980D01*
X031537D01*
X031470Y037913D01*
Y037780D01*
X031537Y037713D01*
X031470Y037314D02*
Y037580D01*
X031737Y037314D01*
X031803D01*
X031870Y037380D01*
Y037513D01*
X031803Y037580D01*
X031470Y036980D02*
X031870D01*
X031670Y037180D01*
Y036914D01*
X037487Y036613D02*
X037420Y036680D01*
X037287D01*
X037220Y036613D01*
Y036347D01*
X037287Y036280D01*
X037420D01*
X037487Y036347D01*
X037886Y036280D02*
X037620D01*
X037886Y036547D01*
Y036613D01*
X037820Y036680D01*
X037687D01*
X037620Y036613D01*
X038286Y036680D02*
X038020D01*
Y036480D01*
X038153Y036547D01*
X038220D01*
X038286Y036480D01*
Y036347D01*
X038220Y036280D01*
X038086D01*
X038020Y036347D01*
X030587Y023363D02*
X030520Y023430D01*
X030387D01*
X030320Y023363D01*
Y023097D01*
X030387Y023030D01*
X030520D01*
X030587Y023097D01*
X030720Y023363D02*
X030787Y023430D01*
X030920D01*
X030986Y023363D01*
Y023297D01*
X030920Y023230D01*
X030853D01*
X030920D01*
X030986Y023163D01*
Y023097D01*
X030920Y023030D01*
X030787D01*
X030720Y023097D01*
X031120Y023363D02*
X031186Y023430D01*
X031320D01*
X031386Y023363D01*
Y023097D01*
X031320Y023030D01*
X031186D01*
X031120Y023097D01*
Y023363D01*
X021220Y020813D02*
X021287Y020880D01*
X021420D01*
X021487Y020813D01*
Y020747D01*
X021420Y020680D01*
X021353D01*
X021420D01*
X021487Y020613D01*
Y020547D01*
X021420Y020480D01*
X021287D01*
X021220Y020547D01*
X021620Y020880D02*
Y020613D01*
X021753Y020480D01*
X021886Y020613D01*
Y020880D01*
X022020Y020813D02*
X022086Y020880D01*
X022220D01*
X022286Y020813D01*
Y020747D01*
X022220Y020680D01*
X022153D01*
X022220D01*
X022286Y020613D01*
Y020547D01*
X022220Y020480D01*
X022086D01*
X022020Y020547D01*
X028570Y037130D02*
Y036730D01*
X028770D01*
X028837Y036797D01*
Y037063D01*
X028770Y037130D01*
X028570D01*
X028970D02*
X029236D01*
Y037063D01*
X028970Y036797D01*
Y036730D01*
X024037Y018930D02*
X023903D01*
X023970D01*
Y018597D01*
X023903Y018530D01*
X023837D01*
X023770Y018597D01*
X024170Y018530D02*
X024303D01*
X024237D01*
Y018930D01*
X024170Y018863D01*
X022470Y040180D02*
Y040580D01*
X022737Y040180D01*
Y040580D01*
X023070D02*
X022937D01*
X022870Y040513D01*
Y040247D01*
X022937Y040180D01*
X023070D01*
X023136Y040247D01*
Y040513D01*
X023070Y040580D01*
X023536Y040180D02*
X023270D01*
X023536Y040447D01*
Y040513D01*
X023470Y040580D01*
X023336D01*
X023270Y040513D01*
X023670Y040180D02*
X023803D01*
X023736D01*
Y040580D01*
X023670Y040513D01*
X024003Y040180D02*
X024136D01*
X024069D01*
Y040580D01*
X024003Y040513D01*
X024336Y040180D02*
X024469D01*
X024403D01*
Y040580D01*
X024336Y040513D01*
X036470Y029030D02*
Y028763D01*
X036603Y028630D01*
X036737Y028763D01*
Y029030D01*
X036870D02*
Y028630D01*
X037070D01*
X037136Y028697D01*
Y028763D01*
X037070Y028830D01*
X036870D01*
X037070D01*
X037136Y028897D01*
Y028963D01*
X037070Y029030D01*
X036870D01*
X037270Y028630D02*
Y028897D01*
X037403Y029030D01*
X037536Y028897D01*
Y028630D01*
Y028830D01*
X037270D01*
X037670Y029030D02*
X037936D01*
X037803D01*
Y028630D01*
X045320Y053230D02*
Y052830D01*
X045587D01*
X045720D02*
X045853D01*
X045787D01*
Y053230D01*
X045720Y053163D01*
X047870Y051530D02*
Y051130D01*
X048137D01*
X048536D02*
X048270D01*
X048536Y051397D01*
Y051463D01*
X048470Y051530D01*
X048337D01*
X048270Y051463D01*
X024870Y035830D02*
Y035430D01*
X025137D01*
X025470D02*
Y035830D01*
X025270Y035630D01*
X025536D01*
X025320Y030530D02*
Y030130D01*
X025587D01*
X025986Y030530D02*
X025720D01*
Y030330D01*
X025853Y030397D01*
X025920D01*
X025986Y030330D01*
Y030197D01*
X025920Y030130D01*
X025787D01*
X025720Y030197D01*
X030220Y016680D02*
X030620D01*
Y016947D01*
X030220Y017346D02*
Y017080D01*
X030620D01*
Y017346D01*
X030420Y017080D02*
Y017213D01*
X030220Y017480D02*
X030620D01*
Y017680D01*
X030553Y017746D01*
X030287D01*
X030220Y017680D01*
Y017480D01*
X030287Y018146D02*
X030220Y018080D01*
Y017946D01*
X030287Y017880D01*
X030353D01*
X030420Y017946D01*
Y018080D01*
X030487Y018146D01*
X030553D01*
X030620Y018080D01*
Y017946D01*
X030553Y017880D01*
X025170Y033280D02*
Y033413D01*
Y033347D01*
X025570D01*
Y033280D01*
Y033413D01*
X025237Y033880D02*
X025170Y033813D01*
Y033680D01*
X025237Y033613D01*
X025503D01*
X025570Y033680D01*
Y033813D01*
X025503Y033880D01*
X025237Y034280D02*
X025170Y034213D01*
Y034080D01*
X025237Y034013D01*
X025303D01*
X025370Y034080D01*
Y034213D01*
X025437Y034280D01*
X025503D01*
X025570Y034213D01*
Y034080D01*
X025503Y034013D01*
X025570Y034413D02*
X025170D01*
Y034613D01*
X025237Y034680D01*
X025370D01*
X025437Y034613D01*
Y034413D01*
X056470Y043880D02*
Y044280D01*
X056670D01*
X056737Y044213D01*
Y044080D01*
X056670Y044013D01*
X056470D01*
X056603D02*
X056737Y043880D01*
X056870D02*
X057003D01*
X056937D01*
Y044280D01*
X056870Y044213D01*
X054620Y042730D02*
Y043130D01*
X054820D01*
X054887Y043063D01*
Y042930D01*
X054820Y042863D01*
X054620D01*
X054753D02*
X054887Y042730D01*
X055020Y043063D02*
X055087Y043130D01*
X055220D01*
X055286Y043063D01*
Y042997D01*
X055220Y042930D01*
X055153D01*
X055220D01*
X055286Y042863D01*
Y042797D01*
X055220Y042730D01*
X055087D01*
X055020Y042797D01*
X038470Y022680D02*
Y023080D01*
X038670D01*
X038737Y023013D01*
Y022880D01*
X038670Y022813D01*
X038470D01*
X038603D02*
X038737Y022680D01*
X038870Y023080D02*
X039136D01*
Y023013D01*
X038870Y022747D01*
Y022680D01*
X038620Y020730D02*
Y021130D01*
X038820D01*
X038887Y021063D01*
Y020930D01*
X038820Y020863D01*
X038620D01*
X038753D02*
X038887Y020730D01*
X039020Y021063D02*
X039087Y021130D01*
X039220D01*
X039286Y021063D01*
Y020997D01*
X039220Y020930D01*
X039286Y020863D01*
Y020797D01*
X039220Y020730D01*
X039087D01*
X039020Y020797D01*
Y020863D01*
X039087Y020930D01*
X039020Y020997D01*
Y021063D01*
X039087Y020930D02*
X039220D01*
X035120Y016280D02*
Y016680D01*
X035320D01*
X035387Y016613D01*
Y016480D01*
X035320Y016413D01*
X035120D01*
X035253D02*
X035387Y016280D01*
X035520Y016347D02*
X035587Y016280D01*
X035720D01*
X035786Y016347D01*
Y016613D01*
X035720Y016680D01*
X035587D01*
X035520Y016613D01*
Y016547D01*
X035587Y016480D01*
X035786D01*
X034920Y018280D02*
Y018680D01*
X035120D01*
X035187Y018613D01*
Y018480D01*
X035120Y018413D01*
X034920D01*
X035053D02*
X035187Y018280D01*
X035320D02*
X035453D01*
X035387D01*
Y018680D01*
X035320Y018613D01*
X035653Y018280D02*
X035786D01*
X035720D01*
Y018680D01*
X035653Y018613D01*
X036220Y020080D02*
Y020480D01*
X036420D01*
X036487Y020413D01*
Y020280D01*
X036420Y020213D01*
X036220D01*
X036353D02*
X036487Y020080D01*
X036620D02*
X036753D01*
X036687D01*
Y020480D01*
X036620Y020413D01*
X037220Y020080D02*
X036953D01*
X037220Y020347D01*
Y020413D01*
X037153Y020480D01*
X037020D01*
X036953Y020413D01*
X050370Y016130D02*
X049970D01*
Y016330D01*
X050037Y016397D01*
X050170D01*
X050237Y016330D01*
Y016130D01*
Y016263D02*
X050370Y016397D01*
Y016530D02*
Y016663D01*
Y016597D01*
X049970D01*
X050037Y016530D01*
Y016863D02*
X049970Y016930D01*
Y017063D01*
X050037Y017130D01*
X050103D01*
X050170Y017063D01*
Y016996D01*
Y017063D01*
X050237Y017130D01*
X050303D01*
X050370Y017063D01*
Y016930D01*
X050303Y016863D01*
X052570Y021530D02*
Y021930D01*
X052770D01*
X052837Y021863D01*
Y021730D01*
X052770Y021663D01*
X052570D01*
X052703D02*
X052837Y021530D01*
X052970D02*
X053103D01*
X053037D01*
Y021930D01*
X052970Y021863D01*
X053503Y021530D02*
Y021930D01*
X053303Y021730D01*
X053570D01*
X047070Y021180D02*
Y021580D01*
X047270D01*
X047337Y021513D01*
Y021380D01*
X047270Y021313D01*
X047070D01*
X047203D02*
X047337Y021180D01*
X047470D02*
X047603D01*
X047537D01*
Y021580D01*
X047470Y021513D01*
X048070Y021580D02*
X047803D01*
Y021380D01*
X047936Y021447D01*
X048003D01*
X048070Y021380D01*
Y021247D01*
X048003Y021180D01*
X047870D01*
X047803Y021247D01*
X045020Y016980D02*
Y017380D01*
X045220D01*
X045287Y017313D01*
Y017180D01*
X045220Y017113D01*
X045020D01*
X045153D02*
X045287Y016980D01*
X045420D02*
X045553D01*
X045487D01*
Y017380D01*
X045420Y017313D01*
X046020Y017380D02*
X045886Y017313D01*
X045753Y017180D01*
Y017047D01*
X045820Y016980D01*
X045953D01*
X046020Y017047D01*
Y017113D01*
X045953Y017180D01*
X045753D01*
X050470Y018180D02*
Y018580D01*
X050670D01*
X050737Y018513D01*
Y018380D01*
X050670Y018313D01*
X050470D01*
X050603D02*
X050737Y018180D01*
X050870D02*
X051003D01*
X050937D01*
Y018580D01*
X050870Y018513D01*
X051203Y018580D02*
X051470D01*
Y018513D01*
X051203Y018247D01*
Y018180D01*
X051120Y023230D02*
Y023630D01*
X051320D01*
X051387Y023563D01*
Y023430D01*
X051320Y023363D01*
X051120D01*
X051253D02*
X051387Y023230D01*
X051520D02*
X051653D01*
X051587D01*
Y023630D01*
X051520Y023563D01*
X051853D02*
X051920Y023630D01*
X052053D01*
X052120Y023563D01*
Y023497D01*
X052053Y023430D01*
X052120Y023363D01*
Y023297D01*
X052053Y023230D01*
X051920D01*
X051853Y023297D01*
Y023363D01*
X051920Y023430D01*
X051853Y023497D01*
Y023563D01*
X051920Y023430D02*
X052053D01*
X046020Y021980D02*
X045620D01*
Y022180D01*
X045687Y022247D01*
X045820D01*
X045887Y022180D01*
Y021980D01*
Y022113D02*
X046020Y022247D01*
Y022380D02*
Y022513D01*
Y022447D01*
X045620D01*
X045687Y022380D01*
X045953Y022713D02*
X046020Y022780D01*
Y022913D01*
X045953Y022980D01*
X045687D01*
X045620Y022913D01*
Y022780D01*
X045687Y022713D01*
X045753D01*
X045820Y022780D01*
Y022980D01*
X044970Y017930D02*
Y018330D01*
X045170D01*
X045237Y018263D01*
Y018130D01*
X045170Y018063D01*
X044970D01*
X045103D02*
X045237Y017930D01*
X045636D02*
X045370D01*
X045636Y018197D01*
Y018263D01*
X045570Y018330D01*
X045437D01*
X045370Y018263D01*
X045770D02*
X045836Y018330D01*
X045970D01*
X046036Y018263D01*
Y017997D01*
X045970Y017930D01*
X045836D01*
X045770Y017997D01*
Y018263D01*
X023370Y020430D02*
Y020830D01*
X023570D01*
X023637Y020763D01*
Y020630D01*
X023570Y020563D01*
X023370D01*
X023503D02*
X023637Y020430D01*
X024036D02*
X023770D01*
X024036Y020697D01*
Y020763D01*
X023970Y020830D01*
X023837D01*
X023770Y020763D01*
X024436Y020430D02*
X024170D01*
X024436Y020697D01*
Y020763D01*
X024370Y020830D01*
X024236D01*
X024170Y020763D01*
X022770Y034680D02*
Y035080D01*
X022970D01*
X023037Y035013D01*
Y034880D01*
X022970Y034813D01*
X022770D01*
X022903D02*
X023037Y034680D01*
X023436D02*
X023170D01*
X023436Y034947D01*
Y035013D01*
X023370Y035080D01*
X023237D01*
X023170Y035013D01*
X023570D02*
X023636Y035080D01*
X023770D01*
X023836Y035013D01*
Y034947D01*
X023770Y034880D01*
X023703D01*
X023770D01*
X023836Y034813D01*
Y034747D01*
X023770Y034680D01*
X023636D01*
X023570Y034747D01*
X020070Y033090D02*
Y033490D01*
X020270D01*
X020337Y033423D01*
Y033290D01*
X020270Y033223D01*
X020070D01*
X020203D02*
X020337Y033090D01*
X020736D02*
X020470D01*
X020736Y033357D01*
Y033423D01*
X020670Y033490D01*
X020537D01*
X020470Y033423D01*
X021136Y033490D02*
X020870D01*
Y033290D01*
X021003Y033357D01*
X021070D01*
X021136Y033290D01*
Y033157D01*
X021070Y033090D01*
X020936D01*
X020870Y033157D01*
X026220Y036280D02*
Y036680D01*
X026420D01*
X026487Y036613D01*
Y036480D01*
X026420Y036413D01*
X026220D01*
X026353D02*
X026487Y036280D01*
X026886D02*
X026620D01*
X026886Y036547D01*
Y036613D01*
X026820Y036680D01*
X026687D01*
X026620Y036613D01*
X027286Y036680D02*
X027153Y036613D01*
X027020Y036480D01*
Y036347D01*
X027086Y036280D01*
X027220D01*
X027286Y036347D01*
Y036413D01*
X027220Y036480D01*
X027020D01*
X031220Y035980D02*
Y036380D01*
X031420D01*
X031487Y036313D01*
Y036180D01*
X031420Y036113D01*
X031220D01*
X031353D02*
X031487Y035980D01*
X031886D02*
X031620D01*
X031886Y036247D01*
Y036313D01*
X031820Y036380D01*
X031687D01*
X031620Y036313D01*
X032020Y036380D02*
X032286D01*
Y036313D01*
X032020Y036047D01*
Y035980D01*
X026370Y040630D02*
Y041030D01*
X026570D01*
X026637Y040963D01*
Y040830D01*
X026570Y040763D01*
X026370D01*
X026503D02*
X026637Y040630D01*
X027036D02*
X026770D01*
X027036Y040897D01*
Y040963D01*
X026970Y041030D01*
X026837D01*
X026770Y040963D01*
X027170D02*
X027236Y041030D01*
X027370D01*
X027436Y040963D01*
Y040897D01*
X027370Y040830D01*
X027436Y040763D01*
Y040697D01*
X027370Y040630D01*
X027236D01*
X027170Y040697D01*
Y040763D01*
X027236Y040830D01*
X027170Y040897D01*
Y040963D01*
X027236Y040830D02*
X027370D01*
X028770Y024130D02*
Y024530D01*
X028970D01*
X029037Y024463D01*
Y024330D01*
X028970Y024263D01*
X028770D01*
X028903D02*
X029037Y024130D01*
X029436D02*
X029170D01*
X029436Y024397D01*
Y024463D01*
X029370Y024530D01*
X029237D01*
X029170Y024463D01*
X029570Y024197D02*
X029636Y024130D01*
X029770D01*
X029836Y024197D01*
Y024463D01*
X029770Y024530D01*
X029636D01*
X029570Y024463D01*
Y024397D01*
X029636Y024330D01*
X029836D01*
X029820Y032980D02*
X029420D01*
Y033180D01*
X029487Y033247D01*
X029620D01*
X029687Y033180D01*
Y032980D01*
Y033113D02*
X029820Y033247D01*
X029487Y033380D02*
X029420Y033447D01*
Y033580D01*
X029487Y033646D01*
X029553D01*
X029620Y033580D01*
Y033513D01*
Y033580D01*
X029687Y033646D01*
X029753D01*
X029820Y033580D01*
Y033447D01*
X029753Y033380D01*
X029487Y033780D02*
X029420Y033846D01*
Y033980D01*
X029487Y034046D01*
X029753D01*
X029820Y033980D01*
Y033846D01*
X029753Y033780D01*
X029487D01*
X029920Y030680D02*
Y031080D01*
X030120D01*
X030187Y031013D01*
Y030880D01*
X030120Y030813D01*
X029920D01*
X030053D02*
X030187Y030680D01*
X030320Y031013D02*
X030387Y031080D01*
X030520D01*
X030586Y031013D01*
Y030947D01*
X030520Y030880D01*
X030453D01*
X030520D01*
X030586Y030813D01*
Y030747D01*
X030520Y030680D01*
X030387D01*
X030320Y030747D01*
X030720Y030680D02*
X030853D01*
X030786D01*
Y031080D01*
X030720Y031013D01*
X026270Y032280D02*
Y032680D01*
X026470D01*
X026537Y032613D01*
Y032480D01*
X026470Y032413D01*
X026270D01*
X026403D02*
X026537Y032280D01*
X026670Y032613D02*
X026737Y032680D01*
X026870D01*
X026936Y032613D01*
Y032547D01*
X026870Y032480D01*
X026803D01*
X026870D01*
X026936Y032413D01*
Y032347D01*
X026870Y032280D01*
X026737D01*
X026670Y032347D01*
X027336Y032280D02*
X027070D01*
X027336Y032547D01*
Y032613D01*
X027270Y032680D01*
X027136D01*
X027070Y032613D01*
X025070Y030880D02*
Y031280D01*
X025270D01*
X025337Y031213D01*
Y031080D01*
X025270Y031013D01*
X025070D01*
X025203D02*
X025337Y030880D01*
X025470Y031213D02*
X025537Y031280D01*
X025670D01*
X025736Y031213D01*
Y031147D01*
X025670Y031080D01*
X025603D01*
X025670D01*
X025736Y031013D01*
Y030947D01*
X025670Y030880D01*
X025537D01*
X025470Y030947D01*
X025870Y031213D02*
X025936Y031280D01*
X026070D01*
X026136Y031213D01*
Y031147D01*
X026070Y031080D01*
X026003D01*
X026070D01*
X026136Y031013D01*
Y030947D01*
X026070Y030880D01*
X025936D01*
X025870Y030947D01*
X049987Y018063D02*
X049920Y018130D01*
X049787D01*
X049720Y018063D01*
Y017997D01*
X049787Y017930D01*
X049920D01*
X049987Y017863D01*
Y017797D01*
X049920Y017730D01*
X049787D01*
X049720Y017797D01*
X050120Y017730D02*
X050253D01*
X050187D01*
Y018130D01*
X050120Y018063D01*
X051987Y019313D02*
X051920Y019380D01*
X051787D01*
X051720Y019313D01*
Y019247D01*
X051787Y019180D01*
X051920D01*
X051987Y019113D01*
Y019047D01*
X051920Y018980D01*
X051787D01*
X051720Y019047D01*
X052386Y018980D02*
X052120D01*
X052386Y019247D01*
Y019313D01*
X052320Y019380D01*
X052187D01*
X052120Y019313D01*
X049987Y022613D02*
X049920Y022680D01*
X049787D01*
X049720Y022613D01*
Y022547D01*
X049787Y022480D01*
X049920D01*
X049987Y022413D01*
Y022347D01*
X049920Y022280D01*
X049787D01*
X049720Y022347D01*
X050120Y022613D02*
X050187Y022680D01*
X050320D01*
X050386Y022613D01*
Y022547D01*
X050320Y022480D01*
X050253D01*
X050320D01*
X050386Y022413D01*
Y022347D01*
X050320Y022280D01*
X050187D01*
X050120Y022347D01*
X045587Y019263D02*
X045520Y019330D01*
X045387D01*
X045320Y019263D01*
Y019197D01*
X045387Y019130D01*
X045520D01*
X045587Y019063D01*
Y018997D01*
X045520Y018930D01*
X045387D01*
X045320Y018997D01*
X045920Y018930D02*
Y019330D01*
X045720Y019130D01*
X045986D01*
X024720Y037980D02*
Y038380D01*
X024920D01*
X024987Y038313D01*
Y038180D01*
X024920Y038113D01*
X024720D01*
X024853D02*
X024987Y037980D01*
X025386Y038313D02*
X025320Y038380D01*
X025187D01*
X025120Y038313D01*
Y038247D01*
X025187Y038180D01*
X025320D01*
X025386Y038113D01*
Y038047D01*
X025320Y037980D01*
X025187D01*
X025120Y038047D01*
X025520Y038380D02*
X025786D01*
X025653D01*
Y037980D01*
X056170Y048580D02*
X056303D01*
X056237D01*
Y048980D01*
X056170Y048913D01*
X056503Y048980D02*
Y048713D01*
X056637Y048580D01*
X056770Y048713D01*
Y048980D01*
X057170Y048580D02*
X056903D01*
X057170Y048847D01*
Y048913D01*
X057103Y048980D01*
X056970D01*
X056903Y048913D01*
X053120Y046180D02*
Y045847D01*
X053187Y045780D01*
X053320D01*
X053387Y045847D01*
Y046180D01*
X053520Y045780D02*
X053653D01*
X053587D01*
Y046180D01*
X053520Y046113D01*
X039970Y020430D02*
Y020097D01*
X040037Y020030D01*
X040170D01*
X040237Y020097D01*
Y020430D01*
X040636Y020030D02*
X040370D01*
X040636Y020297D01*
Y020363D01*
X040570Y020430D01*
X040437D01*
X040370Y020363D01*
X022220Y044380D02*
Y044047D01*
X022287Y043980D01*
X022420D01*
X022487Y044047D01*
Y044380D01*
X022620Y044313D02*
X022687Y044380D01*
X022820D01*
X022886Y044313D01*
Y044247D01*
X022820Y044180D01*
X022753D01*
X022820D01*
X022886Y044113D01*
Y044047D01*
X022820Y043980D01*
X022687D01*
X022620Y044047D01*
X034320Y029930D02*
Y029597D01*
X034387Y029530D01*
X034520D01*
X034587Y029597D01*
Y029930D01*
X034986D02*
X034853Y029863D01*
X034720Y029730D01*
Y029597D01*
X034787Y029530D01*
X034920D01*
X034986Y029597D01*
Y029663D01*
X034920Y029730D01*
X034720D01*
X052170Y049280D02*
Y049213D01*
X052303Y049080D01*
X052437Y049213D01*
Y049280D01*
X052303Y049080D02*
Y048880D01*
X052570D02*
X052703D01*
X052637D01*
Y049280D01*
X052570Y049213D01*
X032270Y022330D02*
Y022263D01*
X032403Y022130D01*
X032537Y022263D01*
Y022330D01*
X032403Y022130D02*
Y021930D01*
X032936D02*
X032670D01*
X032936Y022197D01*
Y022263D01*
X032870Y022330D01*
X032737D01*
X032670Y022263D01*
X056687Y040963D02*
X056620Y041030D01*
X056487D01*
X056420Y040963D01*
Y040697D01*
X056487Y040630D01*
X056620D01*
X056687Y040697D01*
X056820Y040630D02*
X056953D01*
X056887D01*
Y041030D01*
X056820Y040963D01*
X057420Y041030D02*
X057153D01*
Y040830D01*
X057286Y040897D01*
X057353D01*
X057420Y040830D01*
Y040697D01*
X057353Y040630D01*
X057220D01*
X057153Y040697D01*
X020180Y026680D02*
Y026347D01*
X020247Y026280D01*
X020380D01*
X020447Y026347D01*
Y026680D01*
X020780Y026280D02*
Y026680D01*
X020580Y026480D01*
X020846D01*
X050237Y031063D02*
X050170Y031130D01*
X050037D01*
X049970Y031063D01*
Y030797D01*
X050037Y030730D01*
X050170D01*
X050237Y030797D01*
X050370Y031063D02*
X050437Y031130D01*
X050570D01*
X050636Y031063D01*
Y030997D01*
X050570Y030930D01*
X050503D01*
X050570D01*
X050636Y030863D01*
Y030797D01*
X050570Y030730D01*
X050437D01*
X050370Y030797D01*
X051036Y031130D02*
X050770D01*
Y030930D01*
X050903Y030997D01*
X050970D01*
X051036Y030930D01*
Y030797D01*
X050970Y030730D01*
X050836D01*
X050770Y030797D01*
X051637Y031113D02*
X051570Y031180D01*
X051437D01*
X051370Y031113D01*
Y030847D01*
X051437Y030780D01*
X051570D01*
X051637Y030847D01*
X051770Y031113D02*
X051837Y031180D01*
X051970D01*
X052036Y031113D01*
Y031047D01*
X051970Y030980D01*
X051903D01*
X051970D01*
X052036Y030913D01*
Y030847D01*
X051970Y030780D01*
X051837D01*
X051770Y030847D01*
X052436Y031180D02*
X052303Y031113D01*
X052170Y030980D01*
Y030847D01*
X052236Y030780D01*
X052370D01*
X052436Y030847D01*
Y030913D01*
X052370Y030980D01*
X052170D01*
X054120Y032130D02*
Y032530D01*
X054320D01*
X054387Y032463D01*
Y032330D01*
X054320Y032263D01*
X054120D01*
X054253D02*
X054387Y032130D01*
X054786Y032463D02*
X054720Y032530D01*
X054587D01*
X054520Y032463D01*
Y032397D01*
X054587Y032330D01*
X054720D01*
X054786Y032263D01*
Y032197D01*
X054720Y032130D01*
X054587D01*
X054520Y032197D01*
X055186Y032130D02*
X054920D01*
X055186Y032397D01*
Y032463D01*
X055120Y032530D01*
X054986D01*
X054920Y032463D01*
X055320D02*
X055386Y032530D01*
X055520D01*
X055586Y032463D01*
Y032397D01*
X055520Y032330D01*
X055453D01*
X055520D01*
X055586Y032263D01*
Y032197D01*
X055520Y032130D01*
X055386D01*
X055320Y032197D01*
X055986Y032130D02*
X055719D01*
X055986Y032397D01*
Y032463D01*
X055919Y032530D01*
X055786D01*
X055719Y032463D01*
X056519Y032530D02*
Y032130D01*
X056719D01*
X056786Y032197D01*
Y032463D01*
X056719Y032530D01*
X056519D01*
X056919D02*
Y032130D01*
X057119D01*
X057186Y032197D01*
Y032263D01*
X057119Y032330D01*
X056919D01*
X057119D01*
X057186Y032397D01*
Y032463D01*
X057119Y032530D01*
X056919D01*
X057319Y032197D02*
X057386Y032130D01*
X057519D01*
X057586Y032197D01*
Y032463D01*
X057519Y032530D01*
X057386D01*
X057319Y032463D01*
Y032397D01*
X057386Y032330D01*
X057586D01*
X057985Y032530D02*
X057719D01*
Y032330D01*
X057852D01*
X057719D01*
Y032130D01*
X047270Y031930D02*
Y032330D01*
X047470D01*
X047537Y032263D01*
Y032130D01*
X047470Y032063D01*
X047270D01*
X047403D02*
X047537Y031930D01*
X047936Y032263D02*
X047870Y032330D01*
X047737D01*
X047670Y032263D01*
Y032197D01*
X047737Y032130D01*
X047870D01*
X047936Y032063D01*
Y031997D01*
X047870Y031930D01*
X047737D01*
X047670Y031997D01*
X048336Y031930D02*
X048070D01*
X048336Y032197D01*
Y032263D01*
X048270Y032330D01*
X048136D01*
X048070Y032263D01*
X048470D02*
X048536Y032330D01*
X048670D01*
X048736Y032263D01*
Y032197D01*
X048670Y032130D01*
X048603D01*
X048670D01*
X048736Y032063D01*
Y031997D01*
X048670Y031930D01*
X048536D01*
X048470Y031997D01*
X049136Y031930D02*
X048869D01*
X049136Y032197D01*
Y032263D01*
X049069Y032330D01*
X048936D01*
X048869Y032263D01*
X049869Y032330D02*
X049736D01*
X049669Y032263D01*
Y031997D01*
X049736Y031930D01*
X049869D01*
X049936Y031997D01*
Y032263D01*
X049869Y032330D01*
X050069Y031930D02*
Y032330D01*
X050336Y031930D01*
Y032330D01*
X044170Y022630D02*
Y023030D01*
X044370D01*
X044437Y022963D01*
Y022830D01*
X044370Y022763D01*
X044170D01*
X044303D02*
X044437Y022630D01*
X044770D02*
Y023030D01*
X044570Y022830D01*
X044836D01*
X044970Y022963D02*
X045036Y023030D01*
X045170D01*
X045236Y022963D01*
Y022697D01*
X045170Y022630D01*
X045036D01*
X044970Y022697D01*
Y022963D01*
X052770Y029330D02*
Y029730D01*
X052970D01*
X053037Y029663D01*
Y029530D01*
X052970Y029463D01*
X052770D01*
X052903D02*
X053037Y029330D01*
X053170Y029730D02*
X053436Y029330D01*
Y029730D02*
X053170Y029330D01*
X053570Y029730D02*
Y029330D01*
X053770D01*
X053836Y029397D01*
Y029663D01*
X053770Y029730D01*
X053570D01*
X052770Y026830D02*
Y027230D01*
X052970D01*
X053037Y027163D01*
Y027030D01*
X052970Y026963D01*
X052770D01*
X052903D02*
X053037Y026830D01*
X053170Y027230D02*
X053436D01*
X053303D01*
Y026830D01*
X053836Y027163D02*
X053770Y027230D01*
X053636D01*
X053570Y027163D01*
Y027097D01*
X053636Y027030D01*
X053770D01*
X053836Y026963D01*
Y026897D01*
X053770Y026830D01*
X053636D01*
X053570Y026897D01*
X052720Y024130D02*
X052987D01*
X052853D01*
Y023730D01*
X053120Y024130D02*
X053386Y023730D01*
Y024130D02*
X053120Y023730D01*
X053520Y024130D02*
Y023730D01*
X053720D01*
X053786Y023797D01*
Y024063D01*
X053720Y024130D01*
X053520D01*
X050570Y025530D02*
Y025197D01*
X050637Y025130D01*
X050770D01*
X050837Y025197D01*
Y025530D01*
X050970D02*
X051236D01*
Y025463D01*
X050970Y025197D01*
Y025130D01*
X057487Y034013D02*
X057420Y034080D01*
X057287D01*
X057220Y034013D01*
Y033747D01*
X057287Y033680D01*
X057420D01*
X057487Y033747D01*
X057820Y033680D02*
Y034080D01*
X057620Y033880D01*
X057886D01*
X058020Y034013D02*
X058086Y034080D01*
X058220D01*
X058286Y034013D01*
Y033747D01*
X058220Y033680D01*
X058086D01*
X058020Y033747D01*
Y034013D01*
X053337Y038197D02*
Y038463D01*
X053270Y038530D01*
X053137D01*
X053070Y038463D01*
Y038197D01*
X053137Y038130D01*
X053270D01*
X053203Y038263D02*
X053337Y038130D01*
X053270D02*
X053337Y038197D01*
X053470Y038530D02*
X053736D01*
Y038463D01*
X053470Y038197D01*
Y038130D01*
X049970Y037630D02*
Y038030D01*
X050170D01*
X050237Y037963D01*
Y037830D01*
X050170Y037763D01*
X049970D01*
X050103D02*
X050237Y037630D01*
X050636Y038030D02*
X050370D01*
Y037830D01*
X050503Y037897D01*
X050570D01*
X050636Y037830D01*
Y037697D01*
X050570Y037630D01*
X050437D01*
X050370Y037697D01*
X050770Y037630D02*
X050903D01*
X050836D01*
Y038030D01*
X050770Y037963D01*
X049920Y032930D02*
Y033330D01*
X050120D01*
X050187Y033263D01*
Y033130D01*
X050120Y033063D01*
X049920D01*
X050053D02*
X050187Y032930D01*
X050586Y033330D02*
X050320D01*
Y033130D01*
X050453Y033197D01*
X050520D01*
X050586Y033130D01*
Y032997D01*
X050520Y032930D01*
X050387D01*
X050320Y032997D01*
X050986Y032930D02*
X050720D01*
X050986Y033197D01*
Y033263D01*
X050920Y033330D01*
X050786D01*
X050720Y033263D01*
X049570Y033680D02*
Y034080D01*
X049770D01*
X049837Y034013D01*
Y033880D01*
X049770Y033813D01*
X049570D01*
X049703D02*
X049837Y033680D01*
X050236Y034080D02*
X049970D01*
Y033880D01*
X050103Y033947D01*
X050170D01*
X050236Y033880D01*
Y033747D01*
X050170Y033680D01*
X050037D01*
X049970Y033747D01*
X050570Y033680D02*
Y034080D01*
X050370Y033880D01*
X050636D01*
X051370Y040080D02*
Y040480D01*
X051570D01*
X051637Y040413D01*
Y040280D01*
X051570Y040213D01*
X051370D01*
X051503D02*
X051637Y040080D01*
X052036Y040480D02*
X051770D01*
Y040280D01*
X051903Y040347D01*
X051970D01*
X052036Y040280D01*
Y040147D01*
X051970Y040080D01*
X051837D01*
X051770Y040147D01*
X052436Y040480D02*
X052303Y040413D01*
X052170Y040280D01*
Y040147D01*
X052236Y040080D01*
X052370D01*
X052436Y040147D01*
Y040213D01*
X052370Y040280D01*
X052170D01*
X049670Y039280D02*
Y039680D01*
X049870D01*
X049937Y039613D01*
Y039480D01*
X049870Y039413D01*
X049670D01*
X049803D02*
X049937Y039280D01*
X050336Y039680D02*
X050070D01*
Y039480D01*
X050203Y039547D01*
X050270D01*
X050336Y039480D01*
Y039347D01*
X050270Y039280D01*
X050137D01*
X050070Y039347D01*
X050470Y039680D02*
X050736D01*
Y039613D01*
X050470Y039347D01*
Y039280D01*
X049920Y048130D02*
Y048530D01*
X050120D01*
X050187Y048463D01*
Y048330D01*
X050120Y048263D01*
X049920D01*
X050053D02*
X050187Y048130D01*
X050586Y048530D02*
X050453Y048463D01*
X050320Y048330D01*
Y048197D01*
X050387Y048130D01*
X050520D01*
X050586Y048197D01*
Y048263D01*
X050520Y048330D01*
X050320D01*
X050720Y048463D02*
X050786Y048530D01*
X050920D01*
X050986Y048463D01*
Y048197D01*
X050920Y048130D01*
X050786D01*
X050720Y048197D01*
Y048463D01*
X048670Y044830D02*
X048270D01*
Y045030D01*
X048337Y045097D01*
X048470D01*
X048537Y045030D01*
Y044830D01*
Y044963D02*
X048670Y045097D01*
X048270Y045496D02*
X048337Y045363D01*
X048470Y045230D01*
X048603D01*
X048670Y045297D01*
Y045430D01*
X048603Y045496D01*
X048537D01*
X048470Y045430D01*
Y045230D01*
X048670Y045630D02*
Y045763D01*
Y045696D01*
X048270D01*
X048337Y045630D01*
X030720Y048630D02*
Y048363D01*
X030853Y048230D01*
X030987Y048363D01*
Y048630D01*
X031120Y048230D02*
X031253D01*
X031187D01*
Y048497D01*
X031120D01*
X031453Y048230D02*
Y048497D01*
X031653D01*
X031720Y048430D01*
Y048230D01*
X031853Y048430D02*
X032120D01*
X030720Y053680D02*
Y053413D01*
X030853Y053280D01*
X030987Y053413D01*
Y053680D01*
X031120Y053280D02*
X031253D01*
X031187D01*
Y053547D01*
X031120D01*
X031453Y053280D02*
Y053547D01*
X031653D01*
X031720Y053480D01*
Y053280D01*
X031853Y053480D02*
X032120D01*
X031986Y053613D02*
Y053347D01*
X034070Y048530D02*
X033937D01*
X033870Y048463D01*
Y048197D01*
X033937Y048130D01*
X034070D01*
X034137Y048197D01*
Y048463D01*
X034070Y048530D01*
X034536Y048463D02*
X034470Y048530D01*
X034337D01*
X034270Y048463D01*
Y048197D01*
X034337Y048130D01*
X034470D01*
X034536Y048197D01*
X034670Y048130D02*
Y048530D01*
X034803Y048397D01*
X034936Y048530D01*
Y048130D01*
X042870Y054330D02*
X042737D01*
X042670Y054263D01*
Y053997D01*
X042737Y053930D01*
X042870D01*
X042937Y053997D01*
Y054263D01*
X042870Y054330D01*
X043070D02*
Y053997D01*
X043137Y053930D01*
X043270D01*
X043336Y053997D01*
Y054330D01*
X043470D02*
X043736D01*
X043603D01*
Y053930D01*
X043870D02*
X044003D01*
X043936D01*
Y054330D01*
X043870Y054263D01*
X041570Y025680D02*
X041170D01*
Y025880D01*
X041237Y025947D01*
X041370D01*
X041437Y025880D01*
Y025680D01*
Y025813D02*
X041570Y025947D01*
X041237Y026346D02*
X041170Y026280D01*
Y026147D01*
X041237Y026080D01*
X041303D01*
X041370Y026147D01*
Y026280D01*
X041437Y026346D01*
X041503D01*
X041570Y026280D01*
Y026147D01*
X041503Y026080D01*
X041570Y026746D02*
Y026480D01*
X041303Y026746D01*
X041237D01*
X041170Y026680D01*
Y026546D01*
X041237Y026480D01*
Y026880D02*
X041170Y026946D01*
Y027080D01*
X041237Y027146D01*
X041303D01*
X041370Y027080D01*
Y027013D01*
Y027080D01*
X041437Y027146D01*
X041503D01*
X041570Y027080D01*
Y026946D01*
X041503Y026880D01*
X041570Y027546D02*
Y027279D01*
X041303Y027546D01*
X041237D01*
X041170Y027479D01*
Y027346D01*
X041237Y027279D01*
X041637Y027679D02*
Y027946D01*
X041237Y028079D02*
X041170Y028146D01*
Y028279D01*
X041237Y028346D01*
X041303D01*
X041370Y028279D01*
Y028213D01*
Y028279D01*
X041437Y028346D01*
X041503D01*
X041570Y028279D01*
Y028146D01*
X041503Y028079D01*
X041170Y028479D02*
X041437D01*
X041570Y028612D01*
X041437Y028746D01*
X041170D01*
X041237Y028879D02*
X041170Y028946D01*
Y029079D01*
X041237Y029146D01*
X041303D01*
X041370Y029079D01*
Y029012D01*
Y029079D01*
X041437Y029146D01*
X041503D01*
X041570Y029079D01*
Y028946D01*
X041503Y028879D01*
X030937Y051863D02*
X030870Y051930D01*
X030737D01*
X030670Y051863D01*
Y051597D01*
X030737Y051530D01*
X030870D01*
X030937Y051597D01*
Y051730D01*
X030803D01*
X031070Y051530D02*
Y051930D01*
X031336Y051530D01*
Y051930D01*
X031470D02*
Y051530D01*
X031670D01*
X031736Y051597D01*
Y051863D01*
X031670Y051930D01*
X031470D01*
X044637Y054263D02*
X044570Y054330D01*
X044437D01*
X044370Y054263D01*
Y053997D01*
X044437Y053930D01*
X044570D01*
X044637Y053997D01*
Y054130D01*
X044503D01*
X044770Y053930D02*
Y054330D01*
X045036Y053930D01*
Y054330D01*
X045170D02*
Y053930D01*
X045370D01*
X045436Y053997D01*
Y054263D01*
X045370Y054330D01*
X045170D01*
X045137Y040463D02*
X045070Y040530D01*
X044937D01*
X044870Y040463D01*
Y040197D01*
X044937Y040130D01*
X045070D01*
X045137Y040197D01*
X045270Y040463D02*
X045337Y040530D01*
X045470D01*
X045536Y040463D01*
Y040397D01*
X045470Y040330D01*
X045403D01*
X045470D01*
X045536Y040263D01*
Y040197D01*
X045470Y040130D01*
X045337D01*
X045270Y040197D01*
X045670Y040463D02*
X045736Y040530D01*
X045870D01*
X045936Y040463D01*
Y040397D01*
X045870Y040330D01*
X045803D01*
X045870D01*
X045936Y040263D01*
Y040197D01*
X045870Y040130D01*
X045736D01*
X045670Y040197D01*
X042237Y039113D02*
X042170Y039180D01*
X042037D01*
X041970Y039113D01*
Y038847D01*
X042037Y038780D01*
X042170D01*
X042237Y038847D01*
X042570Y038780D02*
Y039180D01*
X042370Y038980D01*
X042636D01*
X042770Y038847D02*
X042836Y038780D01*
X042970D01*
X043036Y038847D01*
Y039113D01*
X042970Y039180D01*
X042836D01*
X042770Y039113D01*
Y039047D01*
X042836Y038980D01*
X043036D01*
X042470Y047530D02*
Y047930D01*
X042670D01*
X042737Y047863D01*
Y047730D01*
X042670Y047663D01*
X042470D01*
X042603D02*
X042737Y047530D01*
X043136Y047863D02*
X043070Y047930D01*
X042937D01*
X042870Y047863D01*
Y047797D01*
X042937Y047730D01*
X043070D01*
X043136Y047663D01*
Y047597D01*
X043070Y047530D01*
X042937D01*
X042870Y047597D01*
X043470Y047530D02*
Y047930D01*
X043270Y047730D01*
X043536D01*
X043670Y047863D02*
X043736Y047930D01*
X043870D01*
X043936Y047863D01*
Y047797D01*
X043870Y047730D01*
X043936Y047663D01*
Y047597D01*
X043870Y047530D01*
X043736D01*
X043670Y047597D01*
Y047663D01*
X043736Y047730D01*
X043670Y047797D01*
Y047863D01*
X043736Y047730D02*
X043870D01*
X044336Y047930D02*
X044069D01*
Y047730D01*
X044203Y047797D01*
X044269D01*
X044336Y047730D01*
Y047597D01*
X044269Y047530D01*
X044136D01*
X044069Y047597D01*
X044469Y047530D02*
Y047797D01*
X044603Y047930D01*
X044736Y047797D01*
Y047530D01*
Y047730D01*
X044469D01*
X042920Y031330D02*
Y031730D01*
X043120D01*
X043187Y031663D01*
Y031530D01*
X043120Y031463D01*
X042920D01*
X043053D02*
X043187Y031330D01*
X043586Y031663D02*
X043520Y031730D01*
X043387D01*
X043320Y031663D01*
Y031597D01*
X043387Y031530D01*
X043520D01*
X043586Y031463D01*
Y031397D01*
X043520Y031330D01*
X043387D01*
X043320Y031397D01*
X043920Y031330D02*
Y031730D01*
X043720Y031530D01*
X043986D01*
X044120Y031663D02*
X044186Y031730D01*
X044320D01*
X044386Y031663D01*
Y031597D01*
X044320Y031530D01*
X044386Y031463D01*
Y031397D01*
X044320Y031330D01*
X044186D01*
X044120Y031397D01*
Y031463D01*
X044186Y031530D01*
X044120Y031597D01*
Y031663D01*
X044186Y031530D02*
X044320D01*
X044786Y031730D02*
X044519D01*
Y031530D01*
X044653Y031597D01*
X044719D01*
X044786Y031530D01*
Y031397D01*
X044719Y031330D01*
X044586D01*
X044519Y031397D01*
X044919Y031730D02*
Y031330D01*
X045119D01*
X045186Y031397D01*
Y031463D01*
X045119Y031530D01*
X044919D01*
X045119D01*
X045186Y031597D01*
Y031663D01*
X045119Y031730D01*
X044919D01*
X045570Y037080D02*
X045237D01*
X045170Y037013D01*
Y036880D01*
X045237Y036813D01*
X045570D01*
X045170Y036680D02*
Y036547D01*
Y036613D01*
X045570D01*
X045503Y036680D01*
Y036347D02*
X045570Y036280D01*
Y036147D01*
X045503Y036080D01*
X045437D01*
X045370Y036147D01*
Y036214D01*
Y036147D01*
X045303Y036080D01*
X045237D01*
X045170Y036147D01*
Y036280D01*
X045237Y036347D01*
X045420Y043930D02*
Y044330D01*
X045220Y044130D01*
X045487D01*
X045620Y044263D02*
X045687Y044330D01*
X045820D01*
X045886Y044263D01*
Y044197D01*
X045820Y044130D01*
X045886Y044063D01*
Y043997D01*
X045820Y043930D01*
X045687D01*
X045620Y043997D01*
Y044063D01*
X045687Y044130D01*
X045620Y044197D01*
Y044263D01*
X045687Y044130D02*
X045820D01*
X046286Y044330D02*
X046020D01*
Y044130D01*
X046153Y044197D01*
X046220D01*
X046286Y044130D01*
Y043997D01*
X046220Y043930D01*
X046086D01*
X046020Y043997D01*
X046420Y043930D02*
Y044197D01*
X046553Y044330D01*
X046686Y044197D01*
Y043930D01*
Y044130D01*
X046420D01*
X041470Y037680D02*
Y038080D01*
X041270Y037880D01*
X041537D01*
X041670Y038013D02*
X041737Y038080D01*
X041870D01*
X041936Y038013D01*
Y037947D01*
X041870Y037880D01*
X041936Y037813D01*
Y037747D01*
X041870Y037680D01*
X041737D01*
X041670Y037747D01*
Y037813D01*
X041737Y037880D01*
X041670Y037947D01*
Y038013D01*
X041737Y037880D02*
X041870D01*
X042336Y038080D02*
X042070D01*
Y037880D01*
X042203Y037947D01*
X042270D01*
X042336Y037880D01*
Y037747D01*
X042270Y037680D01*
X042136D01*
X042070Y037747D01*
X042470Y038080D02*
Y037680D01*
X042670D01*
X042736Y037747D01*
Y037813D01*
X042670Y037880D01*
X042470D01*
X042670D01*
X042736Y037947D01*
Y038013D01*
X042670Y038080D01*
X042470D01*
X032937Y045497D02*
X032870Y045430D01*
Y045297D01*
X032937Y045230D01*
X033203D01*
X033270Y045297D01*
Y045430D01*
X033203Y045497D01*
X032870Y045896D02*
Y045630D01*
X033070D01*
X033003Y045763D01*
Y045830D01*
X033070Y045896D01*
X033203D01*
X033270Y045830D01*
Y045697D01*
X033203Y045630D01*
X032937Y046030D02*
X032870Y046096D01*
Y046230D01*
X032937Y046296D01*
X033203D01*
X033270Y046230D01*
Y046096D01*
X033203Y046030D01*
X032937D01*
X036937Y039813D02*
X036870Y039880D01*
X036737D01*
X036670Y039813D01*
Y039547D01*
X036737Y039480D01*
X036870D01*
X036937Y039547D01*
X037336Y039880D02*
X037070D01*
Y039680D01*
X037203Y039747D01*
X037270D01*
X037336Y039680D01*
Y039547D01*
X037270Y039480D01*
X037137D01*
X037070Y039547D01*
X037470Y039480D02*
X037603D01*
X037536D01*
Y039880D01*
X037470Y039813D01*
X034520Y039480D02*
Y039880D01*
X034720D01*
X034787Y039813D01*
Y039680D01*
X034720Y039613D01*
X034520D01*
X034653D02*
X034787Y039480D01*
X035186Y039880D02*
X035053Y039813D01*
X034920Y039680D01*
Y039547D01*
X034987Y039480D01*
X035120D01*
X035186Y039547D01*
Y039613D01*
X035120Y039680D01*
X034920D01*
X035586Y039880D02*
X035453Y039813D01*
X035320Y039680D01*
Y039547D01*
X035386Y039480D01*
X035520D01*
X035586Y039547D01*
Y039613D01*
X035520Y039680D01*
X035320D01*
X035320Y046330D02*
Y046730D01*
X035520D01*
X035587Y046663D01*
Y046530D01*
X035520Y046463D01*
X035320D01*
X035453D02*
X035587Y046330D01*
X035720Y046730D02*
X035986D01*
Y046663D01*
X035720Y046397D01*
Y046330D01*
X036120Y046663D02*
X036186Y046730D01*
X036320D01*
X036386Y046663D01*
Y046397D01*
X036320Y046330D01*
X036186D01*
X036120Y046397D01*
Y046663D01*
X035170Y043380D02*
Y043047D01*
X035237Y042980D01*
X035370D01*
X035437Y043047D01*
Y043380D01*
X035570Y042980D02*
X035703D01*
X035637D01*
Y043380D01*
X035570Y043313D01*
X036103Y042980D02*
Y043380D01*
X035903Y043180D01*
X036170D01*
X031170Y017030D02*
Y016630D01*
X031370D01*
X031437Y016697D01*
Y016963D01*
X031370Y017030D01*
X031170D01*
X031570Y016630D02*
X031703D01*
X031637D01*
Y017030D01*
X031570Y016963D01*
X031070Y018030D02*
Y017630D01*
X031270D01*
X031337Y017697D01*
Y017963D01*
X031270Y018030D01*
X031070D01*
X031670Y017630D02*
Y018030D01*
X031470Y017830D01*
X031736D01*
X034020Y018030D02*
Y017630D01*
X034220D01*
X034287Y017697D01*
Y017963D01*
X034220Y018030D01*
X034020D01*
X034420Y017963D02*
X034487Y018030D01*
X034620D01*
X034686Y017963D01*
Y017897D01*
X034620Y017830D01*
X034553D01*
X034620D01*
X034686Y017763D01*
Y017697D01*
X034620Y017630D01*
X034487D01*
X034420Y017697D01*
X034020Y017030D02*
Y016630D01*
X034220D01*
X034287Y016697D01*
Y016963D01*
X034220Y017030D01*
X034020D01*
X034686Y016630D02*
X034420D01*
X034686Y016897D01*
Y016963D01*
X034620Y017030D01*
X034487D01*
X034420Y016963D01*
X019570Y015680D02*
Y055050D01*
X058940Y015680D02*
Y055050D01*
X019570D02*
X058940D01*
X019570Y015680D02*
X058940D01*
D37*
X050416Y054160D02*
G03*
X050416Y054160I-000106J000000D01*
G01*
D42*
X046895Y019800D02*
G03*
X046895Y019800I-000080J000000D01*
G01*
X046295D02*
G03*
X046295Y019800I-000080J000000D01*
G01*
X048520Y022235D02*
G03*
X048520Y022235I-000080J000000D01*
G01*
Y022835D02*
G03*
X048520Y022835I-000080J000000D01*
G01*
X049380Y017675D02*
G03*
X049380Y017675I-000080J000000D01*
G01*
Y018275D02*
G03*
X049380Y018275I-000080J000000D01*
G01*
X050955Y020660D02*
G03*
X050955Y020660I-000080J000000D01*
G01*
X051555D02*
G03*
X051555Y020660I-000080J000000D01*
G01*
X027000Y038230D02*
G03*
X027000Y038230I-000080J000000D01*
G01*
X027600D02*
G03*
X027600Y038230I-000080J000000D01*
G01*
D49*
X049847Y049686D02*
G03*
X050095Y049437I000248J000000D01*
G01*
X054745D02*
G03*
X054993Y049686I000000J000248D01*
G01*
Y054374D02*
G03*
X054745Y054623I-000248J000000D01*
G01*
X054770Y037930D02*
G03*
X055270Y037930I000250J000000D01*
G01*
X022294Y031744D02*
G03*
X022294Y031616I000000J-000064D01*
G01*
X056374Y046144D02*
G03*
X056374Y046016I000000J-000064D01*
G01*
X027270Y054130D02*
G03*
X027770Y054130I000250J000000D01*
G01*
X049845Y054624D02*
X054745D01*
X054995Y049680D02*
Y054374D01*
X049845Y049680D02*
Y054624D01*
X050095Y049436D02*
X054745D01*
X022737Y023763D02*
X022820D01*
X022570D02*
X022653D01*
X022403D02*
X022487D01*
X022403Y025097D02*
X022487D01*
X022570D02*
X022653D01*
X022737D02*
X022820D01*
X022403Y026513D02*
X022820D01*
X020987Y022597D02*
X022403Y022347D01*
X020987Y022597D02*
Y026263D01*
X022403Y026513D01*
Y022347D02*
Y026513D01*
Y022347D02*
X022820D01*
Y026513D01*
X046515Y020200D02*
Y020800D01*
X046115Y020200D02*
X046915D01*
X048840Y022535D02*
X049440D01*
X048840Y022135D02*
Y022935D01*
X023620Y050720D02*
Y051392D01*
Y050720D02*
X024520D01*
Y052267D02*
Y052940D01*
X023620D02*
X024520D01*
Y050720D02*
Y051392D01*
X023620Y052267D02*
Y052940D01*
X024620Y050720D02*
Y051392D01*
Y050720D02*
X025520D01*
Y052267D02*
Y052940D01*
X024620D02*
X025520D01*
Y050720D02*
Y051392D01*
X024620Y052267D02*
Y052940D01*
X021178Y030957D02*
Y032403D01*
X022294Y031744D02*
Y032403D01*
Y030957D02*
Y031616D01*
X022170Y039597D02*
Y043763D01*
X021753Y039597D02*
X022170D01*
X021753D02*
Y043763D01*
X020337Y043513D02*
X021753Y043763D01*
X020337Y039847D02*
Y043513D01*
Y039847D02*
X021753Y039597D01*
Y043763D02*
X022170D01*
X022087Y042347D02*
X022170D01*
X021920D02*
X022003D01*
X021753D02*
X021837D01*
X021753Y041013D02*
X021837D01*
X021920D02*
X022003D01*
X022087D02*
X022170D01*
X048900Y017575D02*
Y018375D01*
X048300Y017975D02*
X048900D01*
X053863Y045377D02*
Y046823D01*
X056374Y045357D02*
Y046016D01*
Y046144D02*
Y046803D01*
X051175Y019660D02*
Y020260D01*
X050775D02*
X051575D01*
X026039Y039411D02*
X028401D01*
X026820Y038630D02*
X027620D01*
X027220D02*
Y039230D01*
X026039Y037049D02*
X028401D01*
X026039Y038731D02*
Y039411D01*
Y037049D02*
Y037729D01*
X028401Y037049D02*
Y037729D01*
X028401Y038731D02*
Y039411D01*
X055453Y023397D02*
X055370Y023313D01*
Y023147D01*
X055453Y023063D01*
X055787D01*
X055870Y023147D01*
Y023313D01*
X055787Y023397D01*
X055703D01*
X055620Y023313D01*
Y023063D01*
X054870Y022663D02*
Y022997D01*
X054620D01*
X054703Y022830D01*
Y022747D01*
X054620Y022663D01*
X054453D01*
X054370Y022747D01*
Y022913D01*
X054453Y022997D01*
X054370Y028797D02*
Y028630D01*
Y028713D01*
X054870D01*
X054787Y028797D01*
X055870Y028463D02*
X055787Y028630D01*
X055620Y028797D01*
X055453D01*
X055370Y028713D01*
Y028547D01*
X055453Y028463D01*
X055537D01*
X055620Y028547D01*
Y028797D01*
X028920Y034180D02*
X029087D01*
X029003D01*
Y034680D01*
X028920Y034597D01*
X019520Y010950D02*
X019787D01*
X019653D01*
Y010550D01*
X020120Y010950D02*
X019987D01*
X019920Y010883D01*
Y010617D01*
X019987Y010550D01*
X020120D01*
X020186Y010617D01*
Y010883D01*
X020120Y010950D01*
X020320Y010550D02*
Y010950D01*
X020520D01*
X020586Y010883D01*
Y010750D01*
X020520Y010683D01*
X020320D01*
X021319Y010950D02*
X021186D01*
X021119Y010883D01*
Y010617D01*
X021186Y010550D01*
X021319D01*
X021386Y010617D01*
Y010883D01*
X021319Y010950D01*
X021519D02*
Y010683D01*
X021653Y010550D01*
X021786Y010683D01*
Y010950D01*
X022186D02*
X021919D01*
Y010550D01*
X022186D01*
X021919Y010750D02*
X022053D01*
X022319Y010550D02*
Y010950D01*
X022519D01*
X022586Y010883D01*
Y010750D01*
X022519Y010683D01*
X022319D01*
X022452D02*
X022586Y010550D01*
X022719Y010950D02*
Y010550D01*
X022986D01*
X023119D02*
Y010817D01*
X023252Y010950D01*
X023385Y010817D01*
Y010550D01*
Y010750D01*
X023119D01*
X023519Y010950D02*
Y010883D01*
X023652Y010750D01*
X023785Y010883D01*
Y010950D01*
X023652Y010750D02*
Y010550D01*
X034720Y038580D02*
Y039030D01*
X034945D01*
X035020Y038955D01*
Y038805D01*
X034945Y038730D01*
X034720D01*
X035170Y039030D02*
X035320D01*
X035245D01*
Y038580D01*
X035170D01*
X035320D01*
X035845Y038955D02*
X035770Y039030D01*
X035620D01*
X035545Y038955D01*
Y038655D01*
X035620Y038580D01*
X035770D01*
X035845Y038655D01*
X036294Y038580D02*
X035995D01*
X036294Y038880D01*
Y038955D01*
X036220Y039030D01*
X036070D01*
X035995Y038955D01*
X036669Y038580D02*
Y039030D01*
X036444Y038805D01*
X036744D01*
X037194Y039030D02*
X036894D01*
Y038805D01*
X037044D01*
X036894D01*
Y038580D01*
X037644Y039030D02*
X037494D01*
X037569D01*
Y038655D01*
X037494Y038580D01*
X037419D01*
X037344Y038655D01*
X037794Y038580D02*
X037944D01*
X037869D01*
Y039030D01*
X037794Y038955D01*
X038469Y038580D02*
X038169D01*
X038469Y038880D01*
Y038955D01*
X038394Y039030D01*
X038244D01*
X038169Y038955D01*
X038619D02*
X038694Y039030D01*
X038844D01*
X038919Y038955D01*
Y038880D01*
X038844Y038805D01*
X038919Y038730D01*
Y038655D01*
X038844Y038580D01*
X038694D01*
X038619Y038655D01*
Y038730D01*
X038694Y038805D01*
X038619Y038880D01*
Y038955D01*
X038694Y038805D02*
X038844D01*
X039369Y038955D02*
X039294Y039030D01*
X039144D01*
X039069Y038955D01*
Y038655D01*
X039144Y038580D01*
X039294D01*
X039369Y038655D01*
Y038805D01*
X039219D01*
X039818Y038955D02*
X039743Y039030D01*
X039593D01*
X039518Y038955D01*
Y038655D01*
X039593Y038580D01*
X039743D01*
X039818Y038655D01*
X039968Y038955D02*
X040043Y039030D01*
X040193D01*
X040268Y038955D01*
Y038655D01*
X040193Y038580D01*
X040043D01*
X039968Y038655D01*
Y038955D01*
X040418D02*
X040493Y039030D01*
X040643D01*
X040718Y038955D01*
Y038655D01*
X040643Y038580D01*
X040493D01*
X040418Y038655D01*
Y038955D01*
X041168Y039030D02*
X041018Y038955D01*
X040868Y038805D01*
Y038655D01*
X040943Y038580D01*
X041093D01*
X041168Y038655D01*
Y038730D01*
X041093Y038805D01*
X040868D01*
X041318Y039030D02*
X041618D01*
X041468D01*
Y038580D01*
X036670Y038430D02*
X036370D01*
Y037980D01*
X036670D01*
X036370Y038205D02*
X036520D01*
X036820Y038280D02*
X036970Y037980D01*
X037120Y038280D01*
X037345D02*
X037495D01*
X037570Y038205D01*
Y037980D01*
X037345D01*
X037270Y038055D01*
X037345Y038130D01*
X037570D01*
X037720Y037980D02*
X037870D01*
X037795D01*
Y038430D01*
X037720D01*
X038544D02*
Y037980D01*
X038769D01*
X038844Y038055D01*
Y038130D01*
X038769Y038205D01*
X038544D01*
X038769D01*
X038844Y038280D01*
Y038355D01*
X038769Y038430D01*
X038544D01*
X039069Y037980D02*
X039219D01*
X039294Y038055D01*
Y038205D01*
X039219Y038280D01*
X039069D01*
X038994Y038205D01*
Y038055D01*
X039069Y037980D01*
X039519Y038280D02*
X039669D01*
X039744Y038205D01*
Y037980D01*
X039519D01*
X039444Y038055D01*
X039519Y038130D01*
X039744D01*
X039894Y038280D02*
Y037980D01*
Y038130D01*
X039969Y038205D01*
X040044Y038280D01*
X040119D01*
X040644Y038430D02*
Y037980D01*
X040419D01*
X040344Y038055D01*
Y038205D01*
X040419Y038280D01*
X040644D01*
X032220Y040430D02*
X032538Y040748D01*
X032432Y040218D01*
X032750Y040536D01*
X032538Y040112D02*
X032644Y040006D01*
X032591Y040059D01*
X032803Y040271D01*
X032750Y040324D01*
X033227Y039847D02*
X033068Y040006D01*
X032962D01*
X032856Y039900D01*
Y039794D01*
X033015Y039635D01*
X033121Y039529D02*
X033439Y039847D01*
X033227Y039635D02*
X033492Y039582D01*
X033227Y039635D02*
X033280Y039370D01*
X030797Y041533D02*
Y041639D01*
X030691Y041745D01*
X030585D01*
X030373Y041533D01*
Y041427D01*
X030479Y041321D01*
X030585D01*
X030956Y041480D02*
X030638Y041162D01*
X030797Y041321D01*
X030903D01*
X031009Y041215D01*
Y041109D01*
X030850Y040950D01*
X031168Y041056D02*
X030956Y040844D01*
X031062Y040950D01*
X031168Y040950D01*
X031274D01*
X031327Y040897D01*
X031274Y040526D02*
X031380Y040420D01*
X031327Y040473D01*
X031539Y040685D01*
X031486Y040738D01*
X031539Y040261D02*
X031698Y040102D01*
X031804D01*
Y040208D01*
X031698Y040314D01*
X031698Y040420D01*
X031804D01*
X031963Y040261D01*
X032176Y040155D02*
X032123Y040102D01*
X032070Y040155D01*
X032176Y040049D01*
X032123Y040102D01*
X031963Y039943D01*
Y039837D01*
X032176Y039624D02*
X032282Y039518D01*
X032388D01*
X032494Y039624D01*
Y039730D01*
X032388Y039837D01*
X032282D01*
X032176Y039730D01*
Y039624D01*
X032971Y039465D02*
X032653Y039147D01*
X032494Y039306D01*
Y039412D01*
X032600Y039518D01*
X032706D01*
X032865Y039359D01*
X032812Y038988D02*
X032918Y038882D01*
X033024D01*
X033130Y038988D01*
Y039094D01*
X033024Y039200D01*
X032918D01*
X032812Y039094D01*
Y038988D01*
X033289Y038935D02*
X033130Y038776D01*
Y038670D01*
X033289Y038511D01*
X033501Y038723D01*
X033395Y038405D02*
X033501Y038299D01*
X033448Y038352D01*
X033766Y038670D01*
X033713Y038723D01*
Y038087D02*
X033819Y037981D01*
X033925D01*
X034031Y038087D01*
Y038193D01*
X033925Y038299D01*
X033819D01*
X033713Y038193D01*
Y038087D01*
X034190Y038034D02*
X034031Y037875D01*
Y037769D01*
X034190Y037610D01*
X034402Y037822D01*
X039670Y039480D02*
X039370D01*
X039670Y039780D01*
Y039855D01*
X039595Y039930D01*
X039445D01*
X039370Y039855D01*
X039820D02*
X039895Y039930D01*
X040045D01*
X040120Y039855D01*
Y039555D01*
X040045Y039480D01*
X039895D01*
X039820Y039555D01*
Y039855D01*
X040270Y039480D02*
X040420D01*
X040345D01*
Y039930D01*
X040270Y039855D01*
X040645Y039930D02*
X040944D01*
Y039855D01*
X040645Y039555D01*
Y039480D01*
D71*
X056920Y021047D02*
G03*
X056920Y020547I000000J-000250D01*
G01*
Y031047D02*
G03*
X056920Y030547I000000J-000250D01*
G01*
X057670Y023297D02*
G03*
X058170Y022797I000500J000000D01*
G01*
Y028797D02*
G03*
X057670Y028297I000000J-000500D01*
G01*
X032720Y029206D02*
X033397D01*
X030466D02*
X031470D01*
X030466Y027430D02*
Y029206D01*
Y025651D02*
Y026830D01*
X032670Y025651D02*
X034021D01*
X030466D02*
X031420D01*
X034021Y027680D02*
Y028582D01*
Y025651D02*
Y026930D01*
X037170Y049830D02*
Y049930D01*
Y049880D01*
X037470D01*
Y049830D01*
Y049930D01*
Y050080D02*
X037170D01*
X037470Y050280D01*
X037170D01*
X037520Y050380D02*
Y050580D01*
X037470Y050680D02*
X037170D01*
Y050830D01*
X037220Y050880D01*
X037320D01*
X037370Y050830D01*
Y050680D01*
X039120Y047930D02*
Y048230D01*
X039270D01*
X039320Y048180D01*
Y048080D01*
X039270Y048030D01*
X039120D01*
X039220D02*
X039320Y047930D01*
X039620Y048230D02*
X039520Y048180D01*
X039420Y048080D01*
Y047980D01*
X039470Y047930D01*
X039570D01*
X039620Y047980D01*
Y048030D01*
X039570Y048080D01*
X039420D01*
X039920Y048230D02*
X039720D01*
Y048080D01*
X039820Y048130D01*
X039870D01*
X039920Y048080D01*
Y047980D01*
X039870Y047930D01*
X039770D01*
X039720Y047980D01*
X039120Y047430D02*
Y047730D01*
X039270D01*
X039320Y047680D01*
Y047580D01*
X039270Y047530D01*
X039120D01*
X039220D02*
X039320Y047430D01*
X039620Y047730D02*
X039520Y047680D01*
X039420Y047580D01*
Y047480D01*
X039470Y047430D01*
X039570D01*
X039620Y047480D01*
Y047530D01*
X039570Y047580D01*
X039420D01*
X039870Y047430D02*
Y047730D01*
X039720Y047580D01*
X039920D01*
X043620Y050230D02*
X043920D01*
Y050080D01*
X043870Y050030D01*
X043770D01*
X043720Y050080D01*
Y050230D01*
Y050130D02*
X043620Y050030D01*
X043920Y049730D02*
X043870Y049830D01*
X043770Y049930D01*
X043670D01*
X043620Y049880D01*
Y049780D01*
X043670Y049730D01*
X043720D01*
X043770Y049780D01*
Y049930D01*
X043870Y049630D02*
X043920Y049580D01*
Y049480D01*
X043870Y049430D01*
X043820D01*
X043770Y049480D01*
Y049530D01*
Y049480D01*
X043720Y049430D01*
X043670D01*
X043620Y049480D01*
Y049580D01*
X043670Y049630D01*
X040670Y048480D02*
Y048780D01*
X040820D01*
X040870Y048730D01*
Y048630D01*
X040820Y048580D01*
X040670D01*
X040770D02*
X040870Y048480D01*
X041170Y048780D02*
X041070Y048730D01*
X040970Y048630D01*
Y048530D01*
X041020Y048480D01*
X041120D01*
X041170Y048530D01*
Y048580D01*
X041120Y048630D01*
X040970D01*
X041470Y048480D02*
X041270D01*
X041470Y048680D01*
Y048730D01*
X041420Y048780D01*
X041320D01*
X041270Y048730D01*
X023520Y050380D02*
X023570Y050430D01*
Y050530D01*
X023520Y050580D01*
X023320D01*
X023270Y050530D01*
Y050430D01*
X023320Y050380D01*
X023270Y050130D02*
X023570D01*
X023420Y050280D01*
Y050080D01*
X023570Y049780D02*
X023520Y049880D01*
X023420Y049980D01*
X023320D01*
X023270Y049930D01*
Y049830D01*
X023320Y049780D01*
X023370D01*
X023420Y049830D01*
Y049980D01*
X023920Y050380D02*
X023970Y050430D01*
Y050530D01*
X023920Y050580D01*
X023720D01*
X023670Y050530D01*
Y050430D01*
X023720Y050380D01*
X023670Y050130D02*
X023970D01*
X023820Y050280D01*
Y050080D01*
X023970Y049780D02*
Y049980D01*
X023820D01*
X023870Y049880D01*
Y049830D01*
X023820Y049780D01*
X023720D01*
X023670Y049830D01*
Y049930D01*
X023720Y049980D01*
X026770Y047180D02*
Y047480D01*
X026920D01*
X026970Y047430D01*
Y047330D01*
X026920Y047280D01*
X026770D01*
X026870D02*
X026970Y047180D01*
X027220D02*
Y047480D01*
X027070Y047330D01*
X027270D01*
X027370Y047430D02*
X027420Y047480D01*
X027520D01*
X027570Y047430D01*
Y047380D01*
X027520Y047330D01*
X027470D01*
X027520D01*
X027570Y047280D01*
Y047230D01*
X027520Y047180D01*
X027420D01*
X027370Y047230D01*
X029520Y046580D02*
Y046880D01*
X029670D01*
X029720Y046830D01*
Y046730D01*
X029670Y046680D01*
X029520D01*
X029620D02*
X029720Y046580D01*
X029970D02*
Y046880D01*
X029820Y046730D01*
X030020D01*
X030320Y046880D02*
X030120D01*
Y046730D01*
X030220Y046780D01*
X030270D01*
X030320Y046730D01*
Y046630D01*
X030270Y046580D01*
X030170D01*
X030120Y046630D01*
X055420Y049630D02*
X055370Y049680D01*
X055270D01*
X055220Y049630D01*
Y049430D01*
X055270Y049380D01*
X055370D01*
X055420Y049430D01*
X055520Y049630D02*
X055570Y049680D01*
X055670D01*
X055720Y049630D01*
Y049580D01*
X055670Y049530D01*
X055720Y049480D01*
Y049430D01*
X055670Y049380D01*
X055570D01*
X055520Y049430D01*
Y049480D01*
X055570Y049530D01*
X055520Y049580D01*
Y049630D01*
X055570Y049530D02*
X055670D01*
X053970Y049230D02*
X053920Y049280D01*
X053820D01*
X053770Y049230D01*
Y049030D01*
X053820Y048980D01*
X053920D01*
X053970Y049030D01*
X054070Y048980D02*
X054170D01*
X054120D01*
Y049280D01*
X054070Y049230D01*
X054320D02*
X054370Y049280D01*
X054470D01*
X054520Y049230D01*
Y049030D01*
X054470Y048980D01*
X054370D01*
X054320Y049030D01*
Y049230D01*
X028720Y029230D02*
X028670Y029280D01*
X028570D01*
X028520Y029230D01*
Y029030D01*
X028570Y028980D01*
X028670D01*
X028720Y029030D01*
X028820Y029230D02*
X028870Y029280D01*
X028970D01*
X029020Y029230D01*
Y029180D01*
X028970Y029130D01*
X028920D01*
X028970D01*
X029020Y029080D01*
Y029030D01*
X028970Y028980D01*
X028870D01*
X028820Y029030D01*
X029270Y028980D02*
Y029280D01*
X029120Y029130D01*
X029320D01*
X039470Y016630D02*
Y016330D01*
X039620D01*
X039670Y016380D01*
Y016580D01*
X039620Y016630D01*
X039470D01*
X039770Y016330D02*
X039870D01*
X039820D01*
Y016630D01*
X039770Y016580D01*
X039470Y017630D02*
Y017330D01*
X039620D01*
X039670Y017380D01*
Y017580D01*
X039620Y017630D01*
X039470D01*
X039970Y017330D02*
X039770D01*
X039970Y017530D01*
Y017580D01*
X039920Y017630D01*
X039820D01*
X039770Y017580D01*
X039470Y018580D02*
Y018280D01*
X039620D01*
X039670Y018330D01*
Y018530D01*
X039620Y018580D01*
X039470D01*
X039770Y018530D02*
X039820Y018580D01*
X039920D01*
X039970Y018530D01*
Y018480D01*
X039920Y018430D01*
X039870D01*
X039920D01*
X039970Y018380D01*
Y018330D01*
X039920Y018280D01*
X039820D01*
X039770Y018330D01*
X039470Y019580D02*
Y019280D01*
X039620D01*
X039670Y019330D01*
Y019530D01*
X039620Y019580D01*
X039470D01*
X039920Y019280D02*
Y019580D01*
X039770Y019430D01*
X039970D01*
X052270Y043330D02*
X052570D01*
Y043480D01*
X052520Y043530D01*
X052320D01*
X052270Y043480D01*
Y043330D01*
Y043630D02*
X052570D01*
Y043780D01*
X052520Y043830D01*
X052320D01*
X052270Y043780D01*
Y043630D01*
X052320Y044130D02*
X052270Y044080D01*
Y043980D01*
X052320Y043930D01*
X052370D01*
X052420Y043980D01*
Y044080D01*
X052470Y044130D01*
X052520D01*
X052570Y044080D01*
Y043980D01*
X052520Y043930D01*
X052620Y044230D02*
Y044430D01*
X052570Y044530D02*
X052270D01*
Y044680D01*
X052320Y044730D01*
X052420D01*
X052470Y044680D01*
Y044530D01*
Y044630D02*
X052570Y044730D01*
X052320Y045029D02*
X052270Y044979D01*
Y044879D01*
X052320Y044830D01*
X052370D01*
X052420Y044879D01*
Y044979D01*
X052470Y045029D01*
X052520D01*
X052570Y044979D01*
Y044879D01*
X052520Y044830D01*
X052270Y045129D02*
Y045329D01*
Y045229D01*
X052570D01*
X028670Y038430D02*
Y038730D01*
X028820D01*
X028870Y038680D01*
Y038580D01*
X028820Y038530D01*
X028670D01*
X028770D02*
X028870Y038430D01*
X029120D02*
X029020D01*
X028970Y038480D01*
Y038580D01*
X029020Y038630D01*
X029120D01*
X029170Y038580D01*
Y038530D01*
X028970D01*
X029270Y038430D02*
Y038630D01*
X029320D01*
X029370Y038580D01*
Y038430D01*
Y038580D01*
X029420Y038630D01*
X029470Y038580D01*
Y038430D01*
X029620D02*
X029720D01*
X029770Y038480D01*
Y038580D01*
X029720Y038630D01*
X029620D01*
X029570Y038580D01*
Y038480D01*
X029620Y038430D01*
X029870Y038630D02*
X029970Y038430D01*
X030070Y038630D01*
X030319Y038430D02*
X030220D01*
X030170Y038480D01*
Y038580D01*
X030220Y038630D01*
X030319D01*
X030369Y038580D01*
Y038530D01*
X030170D01*
X030669Y038730D02*
X030469D01*
Y038580D01*
X030569D01*
X030469D01*
Y038430D01*
X030819D02*
X030919D01*
X030969Y038480D01*
Y038580D01*
X030919Y038630D01*
X030819D01*
X030769Y038580D01*
Y038480D01*
X030819Y038430D01*
X031069Y038630D02*
Y038430D01*
Y038530D01*
X031119Y038580D01*
X031169Y038630D01*
X031219D01*
X031369Y038730D02*
X031469D01*
X031419D01*
Y038430D01*
X031369D01*
X031469D01*
X031819Y038680D02*
X031769Y038730D01*
X031669D01*
X031619Y038680D01*
Y038480D01*
X031669Y038430D01*
X031769D01*
X031819Y038480D01*
X032119Y038680D02*
X032069Y038730D01*
X031969D01*
X031919Y038680D01*
Y038630D01*
X031969Y038580D01*
X032069D01*
X032119Y038530D01*
Y038480D01*
X032069Y038430D01*
X031969D01*
X031919Y038480D01*
X032219Y038430D02*
Y038730D01*
X032369D01*
X032419Y038680D01*
Y038580D01*
X032369Y038530D01*
X032219D01*
X043270Y016380D02*
X043470D01*
X043370D01*
Y016080D01*
X043570D02*
Y016380D01*
X043670Y016280D01*
X043770Y016380D01*
Y016080D01*
X043870D02*
Y016380D01*
X044020D01*
X044070Y016330D01*
Y016230D01*
X044020Y016180D01*
X043870D01*
X044170Y016080D02*
X044270D01*
X044220D01*
Y016380D01*
X044170Y016330D01*
X044420Y016380D02*
X044620D01*
Y016330D01*
X044420Y016130D01*
Y016080D01*
X044919Y016380D02*
X044720D01*
Y016230D01*
X044819Y016280D01*
X044869D01*
X044919Y016230D01*
Y016130D01*
X044869Y016080D01*
X044770D01*
X044720Y016130D01*
X045019Y016080D02*
X045219Y016280D01*
X045319Y016380D02*
X045419D01*
X045369D01*
Y016080D01*
X045319D01*
X045419D01*
X045769D02*
X045569D01*
X045769Y016280D01*
Y016330D01*
X045719Y016380D01*
X045619D01*
X045569Y016330D01*
X046069D02*
X046019Y016380D01*
X045919D01*
X045869Y016330D01*
Y016130D01*
X045919Y016080D01*
X046019D01*
X046069Y016130D01*
X053020Y018480D02*
X052970Y018530D01*
X052870D01*
X052820Y018480D01*
Y018430D01*
X052870Y018380D01*
X052970D01*
X053020Y018330D01*
Y018280D01*
X052970Y018230D01*
X052870D01*
X052820Y018280D01*
X053120Y018530D02*
Y018230D01*
X053220Y018330D01*
X053320Y018230D01*
Y018530D01*
X053420D02*
X053520D01*
X053470D01*
Y018230D01*
X053420D01*
X053520D01*
X053670Y018530D02*
X053870D01*
X053770D01*
Y018230D01*
X054170Y018480D02*
X054120Y018530D01*
X054020D01*
X053970Y018480D01*
Y018280D01*
X054020Y018230D01*
X054120D01*
X054170Y018280D01*
X054270Y018530D02*
Y018230D01*
Y018380D01*
X054469D01*
Y018530D01*
Y018230D01*
X054769Y018530D02*
X054569D01*
Y018230D01*
X054769D01*
X054569Y018380D02*
X054669D01*
X055069Y018480D02*
X055019Y018530D01*
X054919D01*
X054869Y018480D01*
Y018430D01*
X054919Y018380D01*
X055019D01*
X055069Y018330D01*
Y018280D01*
X055019Y018230D01*
X054919D01*
X054869Y018280D01*
X057820Y048730D02*
Y049030D01*
X057970D01*
X058020Y048980D01*
Y048880D01*
X057970Y048830D01*
X057820D01*
X057920D02*
X058020Y048730D01*
X058320D02*
X058120D01*
X058320Y048930D01*
Y048980D01*
X058270Y049030D01*
X058170D01*
X058120Y048980D01*
X044620Y019380D02*
Y019680D01*
X044770D01*
X044820Y019630D01*
Y019530D01*
X044770Y019480D01*
X044620D01*
X044720D02*
X044820Y019380D01*
X045070D02*
Y019680D01*
X044920Y019530D01*
X045120D01*
X042170Y019230D02*
Y019530D01*
X042320D01*
X042370Y019480D01*
Y019380D01*
X042320Y019330D01*
X042170D01*
X042270D02*
X042370Y019230D01*
X042670Y019530D02*
X042470D01*
Y019380D01*
X042570Y019430D01*
X042620D01*
X042670Y019380D01*
Y019280D01*
X042620Y019230D01*
X042520D01*
X042470Y019280D01*
X040820Y019230D02*
Y019530D01*
X040970D01*
X041020Y019480D01*
Y019380D01*
X040970Y019330D01*
X040820D01*
X040920D02*
X041020Y019230D01*
X041320Y019530D02*
X041220Y019480D01*
X041120Y019380D01*
Y019280D01*
X041170Y019230D01*
X041270D01*
X041320Y019280D01*
Y019330D01*
X041270Y019380D01*
X041120D01*
X035020Y017330D02*
Y017630D01*
X035170D01*
X035220Y017580D01*
Y017480D01*
X035170Y017430D01*
X035020D01*
X035120D02*
X035220Y017330D01*
X035320D02*
X035420D01*
X035370D01*
Y017630D01*
X035320Y017580D01*
X035570D02*
X035620Y017630D01*
X035720D01*
X035770Y017580D01*
Y017380D01*
X035720Y017330D01*
X035620D01*
X035570Y017380D01*
Y017580D01*
X025770Y049730D02*
Y050030D01*
X025920D01*
X025970Y049980D01*
Y049880D01*
X025920Y049830D01*
X025770D01*
X025870D02*
X025970Y049730D01*
X026270D02*
X026070D01*
X026270Y049930D01*
Y049980D01*
X026220Y050030D01*
X026120D01*
X026070Y049980D01*
X026370Y049730D02*
X026470D01*
X026420D01*
Y050030D01*
X026370Y049980D01*
X020420Y054330D02*
X020220D01*
X020120Y054230D01*
X020220Y054130D01*
X020420D01*
Y053830D02*
X020120D01*
Y053980D01*
X020170Y054030D01*
X020270D01*
X020320Y053980D01*
Y053830D01*
Y053530D02*
Y053680D01*
X020270Y053730D01*
X020170D01*
X020120Y053680D01*
Y053530D01*
X020420Y053430D02*
Y053230D01*
X020370D01*
X020170Y053430D01*
X020120D01*
X020270Y053130D02*
Y052930D01*
X020120Y052830D02*
Y052731D01*
Y052780D01*
X020420D01*
X020370Y052830D01*
X020120Y052381D02*
Y052581D01*
X020320Y052381D01*
X020370D01*
X020420Y052431D01*
Y052531D01*
X020370Y052581D01*
X020420Y052281D02*
X020220D01*
X020120Y052181D01*
X020220Y052081D01*
X020420D01*
X058170Y042980D02*
X058470D01*
Y043130D01*
X058420Y043180D01*
X058220D01*
X058170Y043130D01*
Y042980D01*
X058220Y043480D02*
X058170Y043430D01*
Y043330D01*
X058220Y043280D01*
X058270D01*
X058320Y043330D01*
Y043430D01*
X058370Y043480D01*
X058420D01*
X058470Y043430D01*
Y043330D01*
X058420Y043280D01*
X058220Y043780D02*
X058170Y043730D01*
Y043630D01*
X058220Y043580D01*
X058270D01*
X058320Y043630D01*
Y043730D01*
X058370Y043780D01*
X058420D01*
X058470Y043730D01*
Y043630D01*
X058420Y043580D01*
X058520Y043880D02*
Y044080D01*
X058170Y044180D02*
Y044280D01*
Y044230D01*
X058470D01*
Y044180D01*
Y044280D01*
X058170Y044579D02*
Y044480D01*
X058220Y044430D01*
X058420D01*
X058470Y044480D01*
Y044579D01*
X058420Y044629D01*
X058220D01*
X058170Y044579D01*
Y044729D02*
X058420D01*
X058470Y044779D01*
Y044879D01*
X058420Y044929D01*
X058170D01*
Y045029D02*
Y045229D01*
Y045129D01*
X058470D01*
X058170Y045329D02*
X058470D01*
Y045479D01*
X058420Y045529D01*
X058370D01*
X058320Y045479D01*
Y045329D01*
Y045479D01*
X058270Y045529D01*
X058220D01*
X058170Y045479D01*
Y045329D01*
X054820Y039980D02*
Y039680D01*
X054970D01*
X055020Y039730D01*
Y039930D01*
X054970Y039980D01*
X054820D01*
X055320Y039930D02*
X055270Y039980D01*
X055170D01*
X055120Y039930D01*
Y039880D01*
X055170Y039830D01*
X055270D01*
X055320Y039780D01*
Y039730D01*
X055270Y039680D01*
X055170D01*
X055120Y039730D01*
X055620Y039930D02*
X055570Y039980D01*
X055470D01*
X055420Y039930D01*
Y039880D01*
X055470Y039830D01*
X055570D01*
X055620Y039780D01*
Y039730D01*
X055570Y039680D01*
X055470D01*
X055420Y039730D01*
X055720Y039630D02*
X055920D01*
X056020Y039980D02*
X056120D01*
X056070D01*
Y039680D01*
X056020D01*
X056120D01*
X056419Y039980D02*
X056320D01*
X056270Y039930D01*
Y039730D01*
X056320Y039680D01*
X056419D01*
X056469Y039730D01*
Y039930D01*
X056419Y039980D01*
X056569D02*
Y039730D01*
X056619Y039680D01*
X056719D01*
X056769Y039730D01*
Y039980D01*
X056869D02*
X057069D01*
X056969D01*
Y039680D01*
X057169D02*
Y039880D01*
X057269Y039980D01*
X057369Y039880D01*
Y039680D01*
Y039830D01*
X057169D01*
X054020Y039330D02*
X054320D01*
Y039480D01*
X054270Y039530D01*
X054070D01*
X054020Y039480D01*
Y039330D01*
X054070Y039830D02*
X054020Y039780D01*
Y039680D01*
X054070Y039630D01*
X054120D01*
X054170Y039680D01*
Y039780D01*
X054220Y039830D01*
X054270D01*
X054320Y039780D01*
Y039680D01*
X054270Y039630D01*
X054070Y040130D02*
X054020Y040080D01*
Y039980D01*
X054070Y039930D01*
X054120D01*
X054170Y039980D01*
Y040080D01*
X054220Y040130D01*
X054270D01*
X054320Y040080D01*
Y039980D01*
X054270Y039930D01*
X054370Y040230D02*
Y040430D01*
X054020Y040530D02*
X054220D01*
X054320Y040630D01*
X054220Y040730D01*
X054020D01*
Y040830D02*
Y040929D01*
Y040880D01*
X054320D01*
Y040830D01*
Y040929D01*
Y041079D02*
X054020D01*
X054320Y041279D01*
X054020D01*
X053020Y039030D02*
X053320D01*
Y039180D01*
X053270Y039230D01*
X053070D01*
X053020Y039180D01*
Y039030D01*
X053070Y039530D02*
X053020Y039480D01*
Y039380D01*
X053070Y039330D01*
X053120D01*
X053170Y039380D01*
Y039480D01*
X053220Y039530D01*
X053270D01*
X053320Y039480D01*
Y039380D01*
X053270Y039330D01*
X053070Y039830D02*
X053020Y039780D01*
Y039680D01*
X053070Y039630D01*
X053120D01*
X053170Y039680D01*
Y039780D01*
X053220Y039830D01*
X053270D01*
X053320Y039780D01*
Y039680D01*
X053270Y039630D01*
X053370Y039930D02*
Y040130D01*
X053070Y040430D02*
X053020Y040380D01*
Y040280D01*
X053070Y040230D01*
X053120D01*
X053170Y040280D01*
Y040380D01*
X053220Y040430D01*
X053270D01*
X053320Y040380D01*
Y040280D01*
X053270Y040230D01*
X053020Y040530D02*
X053320D01*
Y040679D01*
X053270Y040729D01*
X053220D01*
X053170Y040679D01*
Y040530D01*
Y040679D01*
X053120Y040729D01*
X053070D01*
X053020Y040679D01*
Y040530D01*
Y040829D02*
Y040929D01*
Y040879D01*
X053320D01*
Y040829D01*
Y040929D01*
X053020Y041079D02*
Y041279D01*
Y041179D01*
X053320D01*
X057120Y046180D02*
X057420D01*
Y046330D01*
X057370Y046380D01*
X057170D01*
X057120Y046330D01*
Y046180D01*
X057170Y046680D02*
X057120Y046630D01*
Y046530D01*
X057170Y046480D01*
X057220D01*
X057270Y046530D01*
Y046630D01*
X057320Y046680D01*
X057370D01*
X057420Y046630D01*
Y046530D01*
X057370Y046480D01*
X057170Y046980D02*
X057120Y046930D01*
Y046830D01*
X057170Y046780D01*
X057220D01*
X057270Y046830D01*
Y046930D01*
X057320Y046980D01*
X057370D01*
X057420Y046930D01*
Y046830D01*
X057370Y046780D01*
X057470Y047080D02*
Y047280D01*
X057420Y047380D02*
X057220D01*
X057120Y047480D01*
X057220Y047580D01*
X057420D01*
X057270D01*
Y047380D01*
X057170Y047879D02*
X057120Y047829D01*
Y047730D01*
X057170Y047680D01*
X057370D01*
X057420Y047730D01*
Y047829D01*
X057370Y047879D01*
X057270D01*
Y047779D01*
X057420Y047979D02*
X057120D01*
X057420Y048179D01*
X057120D01*
Y048279D02*
X057420D01*
Y048429D01*
X057370Y048479D01*
X057170D01*
X057120Y048429D01*
Y048279D01*
X042970Y021480D02*
X043170D01*
X043070D01*
Y021180D01*
X043470Y021480D02*
X043270D01*
Y021180D01*
X043470D01*
X043270Y021330D02*
X043370D01*
X043570Y021180D02*
Y021480D01*
X043670Y021380D01*
X043770Y021480D01*
Y021180D01*
X043870D02*
Y021480D01*
X044020D01*
X044070Y021430D01*
Y021330D01*
X044020Y021280D01*
X043870D01*
X044170Y021130D02*
X044370D01*
X044470Y021180D02*
Y021380D01*
X044569Y021480D01*
X044669Y021380D01*
Y021180D01*
Y021330D01*
X044470D01*
X044769Y021480D02*
Y021180D01*
X044969D01*
X045269Y021480D02*
X045069D01*
Y021180D01*
X045269D01*
X045069Y021330D02*
X045169D01*
X045369Y021180D02*
Y021480D01*
X045519D01*
X045569Y021430D01*
Y021330D01*
X045519Y021280D01*
X045369D01*
X045469D02*
X045569Y021180D01*
X045669Y021480D02*
X045869D01*
X045769D01*
Y021180D01*
X048920Y027380D02*
X048970Y027430D01*
Y027530D01*
X048920Y027580D01*
X048720D01*
X048670Y027530D01*
Y027430D01*
X048720Y027380D01*
X048920Y027280D02*
X048970Y027230D01*
Y027130D01*
X048920Y027080D01*
X048870D01*
X048820Y027130D01*
Y027180D01*
Y027130D01*
X048770Y027080D01*
X048720D01*
X048670Y027130D01*
Y027230D01*
X048720Y027280D01*
X048970Y026980D02*
Y026780D01*
X048920D01*
X048720Y026980D01*
X048670D01*
X049520Y024730D02*
X049470Y024780D01*
X049370D01*
X049320Y024730D01*
Y024530D01*
X049370Y024480D01*
X049470D01*
X049520Y024530D01*
X049620Y024730D02*
X049670Y024780D01*
X049770D01*
X049820Y024730D01*
Y024680D01*
X049770Y024630D01*
X049720D01*
X049770D01*
X049820Y024580D01*
Y024530D01*
X049770Y024480D01*
X049670D01*
X049620Y024530D01*
X049920D02*
X049970Y024480D01*
X050070D01*
X050120Y024530D01*
Y024730D01*
X050070Y024780D01*
X049970D01*
X049920Y024730D01*
Y024680D01*
X049970Y024630D01*
X050120D01*
X048470Y043730D02*
X048420Y043780D01*
X048320D01*
X048270Y043730D01*
Y043680D01*
X048320Y043630D01*
X048420D01*
X048470Y043580D01*
Y043530D01*
X048420Y043480D01*
X048320D01*
X048270Y043530D01*
X048570Y043480D02*
Y043780D01*
X048720D01*
X048770Y043730D01*
Y043630D01*
X048720Y043580D01*
X048570D01*
X048870Y043780D02*
X048970D01*
X048920D01*
Y043480D01*
X048870D01*
X048970D01*
X049120Y043430D02*
X049320D01*
X049420Y043480D02*
Y043780D01*
X049570D01*
X049620Y043730D01*
Y043630D01*
X049570Y043580D01*
X049420D01*
X049869Y043780D02*
X049770D01*
X049720Y043730D01*
Y043530D01*
X049770Y043480D01*
X049869D01*
X049919Y043530D01*
Y043730D01*
X049869Y043780D01*
X050019D02*
X050219D01*
X050119D01*
Y043480D01*
X050319Y043430D02*
X050519D01*
X050619Y043780D02*
Y043480D01*
X050769D01*
X050819Y043530D01*
Y043730D01*
X050769Y043780D01*
X050619D01*
X051119Y043730D02*
X051069Y043780D01*
X050969D01*
X050919Y043730D01*
Y043680D01*
X050969Y043630D01*
X051069D01*
X051119Y043580D01*
Y043530D01*
X051069Y043480D01*
X050969D01*
X050919Y043530D01*
X051419Y043730D02*
X051369Y043780D01*
X051269D01*
X051219Y043730D01*
Y043680D01*
X051269Y043630D01*
X051369D01*
X051419Y043580D01*
Y043530D01*
X051369Y043480D01*
X051269D01*
X051219Y043530D01*
X045520Y030280D02*
Y030480D01*
X045470Y030530D01*
X045370D01*
X045320Y030480D01*
Y030280D01*
X045370Y030230D01*
X045470D01*
X045420Y030330D02*
X045520Y030230D01*
X045470D02*
X045520Y030280D01*
X045620Y030230D02*
X045720D01*
X045670D01*
Y030530D01*
X045620Y030480D01*
X044020Y024680D02*
Y024880D01*
X043970Y024930D01*
X043870D01*
X043820Y024880D01*
Y024680D01*
X043870Y024630D01*
X043970D01*
X043920Y024730D02*
X044020Y024630D01*
X043970D02*
X044020Y024680D01*
X044320Y024630D02*
X044120D01*
X044320Y024830D01*
Y024880D01*
X044270Y024930D01*
X044170D01*
X044120Y024880D01*
X043320Y030380D02*
Y030680D01*
X043470D01*
X043520Y030630D01*
Y030530D01*
X043470Y030480D01*
X043320D01*
X043420D02*
X043520Y030380D01*
X043620Y030630D02*
X043670Y030680D01*
X043770D01*
X043820Y030630D01*
Y030580D01*
X043770Y030530D01*
X043720D01*
X043770D01*
X043820Y030480D01*
Y030430D01*
X043770Y030380D01*
X043670D01*
X043620Y030430D01*
X044070Y030380D02*
Y030680D01*
X043920Y030530D01*
X044120D01*
X046470Y031130D02*
Y031430D01*
X046620D01*
X046670Y031380D01*
Y031280D01*
X046620Y031230D01*
X046470D01*
X046570D02*
X046670Y031130D01*
X046770Y031380D02*
X046820Y031430D01*
X046920D01*
X046970Y031380D01*
Y031330D01*
X046920Y031280D01*
X046870D01*
X046920D01*
X046970Y031230D01*
Y031180D01*
X046920Y031130D01*
X046820D01*
X046770Y031180D01*
X047270Y031430D02*
X047070D01*
Y031280D01*
X047170Y031330D01*
X047220D01*
X047270Y031280D01*
Y031180D01*
X047220Y031130D01*
X047120D01*
X047070Y031180D01*
X044220Y028930D02*
Y029230D01*
X044370D01*
X044420Y029180D01*
Y029080D01*
X044370Y029030D01*
X044220D01*
X044320D02*
X044420Y028930D01*
X044520Y029180D02*
X044570Y029230D01*
X044670D01*
X044720Y029180D01*
Y029130D01*
X044670Y029080D01*
X044620D01*
X044670D01*
X044720Y029030D01*
Y028980D01*
X044670Y028930D01*
X044570D01*
X044520Y028980D01*
X044820Y029180D02*
X044870Y029230D01*
X044970D01*
X045020Y029180D01*
Y029130D01*
X044970Y029080D01*
X045020Y029030D01*
Y028980D01*
X044970Y028930D01*
X044870D01*
X044820Y028980D01*
Y029030D01*
X044870Y029080D01*
X044820Y029130D01*
Y029180D01*
X044870Y029080D02*
X044970D01*
X043520Y025080D02*
Y025380D01*
X043670D01*
X043720Y025330D01*
Y025230D01*
X043670Y025180D01*
X043520D01*
X043620D02*
X043720Y025080D01*
X043820Y025330D02*
X043870Y025380D01*
X043970D01*
X044020Y025330D01*
Y025280D01*
X043970Y025230D01*
X043920D01*
X043970D01*
X044020Y025180D01*
Y025130D01*
X043970Y025080D01*
X043870D01*
X043820Y025130D01*
X044120D02*
X044170Y025080D01*
X044270D01*
X044320Y025130D01*
Y025330D01*
X044270Y025380D01*
X044170D01*
X044120Y025330D01*
Y025280D01*
X044170Y025230D01*
X044320D01*
X046820Y023530D02*
Y023830D01*
X046970D01*
X047020Y023780D01*
Y023680D01*
X046970Y023630D01*
X046820D01*
X046920D02*
X047020Y023530D01*
X047270D02*
Y023830D01*
X047120Y023680D01*
X047320D01*
X047420Y023530D02*
X047520D01*
X047470D01*
Y023830D01*
X047420Y023780D01*
X053220Y026580D02*
X053170Y026630D01*
X053070D01*
X053020Y026580D01*
Y026380D01*
X053070Y026330D01*
X053170D01*
X053220Y026380D01*
X053320Y026630D02*
X053520D01*
X053420D01*
Y026330D01*
X053820Y026580D02*
X053770Y026630D01*
X053670D01*
X053620Y026580D01*
Y026530D01*
X053670Y026480D01*
X053770D01*
X053820Y026430D01*
Y026380D01*
X053770Y026330D01*
X053670D01*
X053620Y026380D01*
X045770Y028280D02*
Y028580D01*
X045920D01*
X045970Y028530D01*
Y028430D01*
X045920Y028380D01*
X045770D01*
X045870D02*
X045970Y028280D01*
X046070Y028580D02*
X046270Y028280D01*
Y028580D02*
X046070Y028280D01*
X046370Y028580D02*
Y028280D01*
X046520D01*
X046570Y028330D01*
Y028530D01*
X046520Y028580D01*
X046370D01*
X046870D02*
X046670D01*
Y028430D01*
X046770Y028480D01*
X046820D01*
X046870Y028430D01*
Y028330D01*
X046820Y028280D01*
X046720D01*
X046670Y028330D01*
X046720Y026980D02*
Y027280D01*
X046870D01*
X046920Y027230D01*
Y027130D01*
X046870Y027080D01*
X046720D01*
X046820D02*
X046920Y026980D01*
X047020Y027280D02*
X047220D01*
X047120D01*
Y026980D01*
X047520Y027230D02*
X047470Y027280D01*
X047370D01*
X047320Y027230D01*
Y027180D01*
X047370Y027130D01*
X047470D01*
X047520Y027080D01*
Y027030D01*
X047470Y026980D01*
X047370D01*
X047320Y027030D01*
X047820Y027280D02*
X047620D01*
Y027130D01*
X047720Y027180D01*
X047770D01*
X047820Y027130D01*
Y027030D01*
X047770Y026980D01*
X047670D01*
X047620Y027030D01*
X047870Y026230D02*
X048070D01*
X047970D01*
Y025930D01*
X048170Y026230D02*
X048370Y025930D01*
Y026230D02*
X048170Y025930D01*
X048470Y026230D02*
Y025930D01*
X048620D01*
X048670Y025980D01*
Y026180D01*
X048620Y026230D01*
X048470D01*
X048970D02*
X048770D01*
Y026080D01*
X048870Y026130D01*
X048920D01*
X048970Y026080D01*
Y025980D01*
X048920Y025930D01*
X048820D01*
X048770Y025980D01*
X045920Y025530D02*
X045870Y025580D01*
X045770D01*
X045720Y025530D01*
Y025330D01*
X045770Y025280D01*
X045870D01*
X045920Y025330D01*
X046020Y025580D02*
X046220D01*
X046120D01*
Y025280D01*
X046520Y025530D02*
X046470Y025580D01*
X046370D01*
X046320Y025530D01*
Y025480D01*
X046370Y025430D01*
X046470D01*
X046520Y025380D01*
Y025330D01*
X046470Y025280D01*
X046370D01*
X046320Y025330D01*
X046820Y025580D02*
X046620D01*
Y025430D01*
X046720Y025480D01*
X046770D01*
X046820Y025430D01*
Y025330D01*
X046770Y025280D01*
X046670D01*
X046620Y025330D01*
X035470Y048630D02*
X035420Y048680D01*
X035320D01*
X035270Y048630D01*
Y048430D01*
X035320Y048380D01*
X035420D01*
X035470Y048430D01*
X035720Y048380D02*
Y048680D01*
X035570Y048530D01*
X035770D01*
X035870Y048380D02*
X035970D01*
X035920D01*
Y048680D01*
X035870Y048630D01*
X034970Y054030D02*
X034920Y054080D01*
X034820D01*
X034770Y054030D01*
Y053830D01*
X034820Y053780D01*
X034920D01*
X034970Y053830D01*
X035220Y053780D02*
Y054080D01*
X035070Y053930D01*
X035270D01*
X035570Y053780D02*
X035370D01*
X035570Y053980D01*
Y054030D01*
X035520Y054080D01*
X035420D01*
X035370Y054030D01*
X042520Y048930D02*
X042470Y048980D01*
X042370D01*
X042320Y048930D01*
Y048730D01*
X042370Y048680D01*
X042470D01*
X042520Y048730D01*
X042770Y048680D02*
Y048980D01*
X042620Y048830D01*
X042820D01*
X042920Y048930D02*
X042970Y048980D01*
X043070D01*
X043120Y048930D01*
Y048880D01*
X043070Y048830D01*
X043020D01*
X043070D01*
X043120Y048780D01*
Y048730D01*
X043070Y048680D01*
X042970D01*
X042920Y048730D01*
X039870Y054380D02*
X039820Y054430D01*
X039720D01*
X039670Y054380D01*
Y054180D01*
X039720Y054130D01*
X039820D01*
X039870Y054180D01*
X040120Y054130D02*
Y054430D01*
X039970Y054280D01*
X040170D01*
X040420Y054130D02*
Y054430D01*
X040270Y054280D01*
X040470D01*
X052770Y037330D02*
Y037530D01*
X052720Y037580D01*
X052620D01*
X052570Y037530D01*
Y037330D01*
X052620Y037280D01*
X052720D01*
X052670Y037380D02*
X052770Y037280D01*
X052720D02*
X052770Y037330D01*
X053070Y037580D02*
X052870D01*
Y037430D01*
X052970Y037480D01*
X053020D01*
X053070Y037430D01*
Y037330D01*
X053020Y037280D01*
X052920D01*
X052870Y037330D01*
X052870Y033830D02*
Y034030D01*
X052820Y034080D01*
X052720D01*
X052670Y034030D01*
Y033830D01*
X052720Y033780D01*
X052820D01*
X052770Y033880D02*
X052870Y033780D01*
X052820D02*
X052870Y033830D01*
X053170Y034080D02*
X053070Y034030D01*
X052970Y033930D01*
Y033830D01*
X053020Y033780D01*
X053120D01*
X053170Y033830D01*
Y033880D01*
X053120Y033930D01*
X052970D01*
X051670Y046030D02*
Y046230D01*
X051620Y046280D01*
X051520D01*
X051470Y046230D01*
Y046030D01*
X051520Y045980D01*
X051620D01*
X051570Y046080D02*
X051670Y045980D01*
X051620D02*
X051670Y046030D01*
X051770Y046230D02*
X051820Y046280D01*
X051920D01*
X051970Y046230D01*
Y046180D01*
X051920Y046130D01*
X051970Y046080D01*
Y046030D01*
X051920Y045980D01*
X051820D01*
X051770Y046030D01*
Y046080D01*
X051820Y046130D01*
X051770Y046180D01*
Y046230D01*
X051820Y046130D02*
X051920D01*
X032270Y050630D02*
Y050930D01*
X032420D01*
X032470Y050880D01*
Y050780D01*
X032420Y050730D01*
X032270D01*
X032370D02*
X032470Y050630D01*
X032720D02*
Y050930D01*
X032570Y050780D01*
X032770D01*
X033070Y050930D02*
X032970Y050880D01*
X032870Y050780D01*
Y050680D01*
X032920Y050630D01*
X033020D01*
X033070Y050680D01*
Y050730D01*
X033020Y050780D01*
X032870D01*
X032520Y048280D02*
Y048580D01*
X032670D01*
X032720Y048530D01*
Y048430D01*
X032670Y048380D01*
X032520D01*
X032620D02*
X032720Y048280D01*
X032970D02*
Y048580D01*
X032820Y048430D01*
X033020D01*
X033120Y048580D02*
X033320D01*
Y048530D01*
X033120Y048330D01*
Y048280D01*
X032620Y054030D02*
Y054330D01*
X032770D01*
X032820Y054280D01*
Y054180D01*
X032770Y054130D01*
X032620D01*
X032720D02*
X032820Y054030D01*
X033070D02*
Y054330D01*
X032920Y054180D01*
X033120D01*
X033220Y054280D02*
X033270Y054330D01*
X033370D01*
X033420Y054280D01*
Y054230D01*
X033370Y054180D01*
X033420Y054130D01*
Y054080D01*
X033370Y054030D01*
X033270D01*
X033220Y054080D01*
Y054130D01*
X033270Y054180D01*
X033220Y054230D01*
Y054280D01*
X033270Y054180D02*
X033370D01*
X032270Y051480D02*
Y051780D01*
X032420D01*
X032470Y051730D01*
Y051630D01*
X032420Y051580D01*
X032270D01*
X032370D02*
X032470Y051480D01*
X032720D02*
Y051780D01*
X032570Y051630D01*
X032770D01*
X032870Y051530D02*
X032920Y051480D01*
X033020D01*
X033070Y051530D01*
Y051730D01*
X033020Y051780D01*
X032920D01*
X032870Y051730D01*
Y051680D01*
X032920Y051630D01*
X033070D01*
X050120Y035830D02*
Y036130D01*
X050270D01*
X050320Y036080D01*
Y035980D01*
X050270Y035930D01*
X050120D01*
X050220D02*
X050320Y035830D01*
X050620Y036130D02*
X050420D01*
Y035980D01*
X050520Y036030D01*
X050570D01*
X050620Y035980D01*
Y035880D01*
X050570Y035830D01*
X050470D01*
X050420Y035880D01*
X050720Y036080D02*
X050770Y036130D01*
X050870D01*
X050920Y036080D01*
Y035880D01*
X050870Y035830D01*
X050770D01*
X050720Y035880D01*
Y036080D01*
X041320Y053880D02*
Y054180D01*
X041470D01*
X041520Y054130D01*
Y054030D01*
X041470Y053980D01*
X041320D01*
X041420D02*
X041520Y053880D01*
X041820Y054180D02*
X041620D01*
Y054030D01*
X041720Y054080D01*
X041770D01*
X041820Y054030D01*
Y053930D01*
X041770Y053880D01*
X041670D01*
X041620Y053930D01*
X041920Y054130D02*
X041970Y054180D01*
X042070D01*
X042120Y054130D01*
Y054080D01*
X042070Y054030D01*
X042020D01*
X042070D01*
X042120Y053980D01*
Y053930D01*
X042070Y053880D01*
X041970D01*
X041920Y053930D01*
X042670Y052280D02*
Y052580D01*
X042820D01*
X042870Y052530D01*
Y052430D01*
X042820Y052380D01*
X042670D01*
X042770D02*
X042870Y052280D01*
X043170Y052580D02*
X042970D01*
Y052430D01*
X043070Y052480D01*
X043120D01*
X043170Y052430D01*
Y052330D01*
X043120Y052280D01*
X043020D01*
X042970Y052330D01*
X043470Y052580D02*
X043270D01*
Y052430D01*
X043370Y052480D01*
X043420D01*
X043470Y052430D01*
Y052330D01*
X043420Y052280D01*
X043320D01*
X043270Y052330D01*
X039120Y048930D02*
Y049230D01*
X039270D01*
X039320Y049180D01*
Y049080D01*
X039270Y049030D01*
X039120D01*
X039220D02*
X039320Y048930D01*
X039620Y049230D02*
X039420D01*
Y049080D01*
X039520Y049130D01*
X039570D01*
X039620Y049080D01*
Y048980D01*
X039570Y048930D01*
X039470D01*
X039420Y048980D01*
X039720Y049180D02*
X039770Y049230D01*
X039870D01*
X039920Y049180D01*
Y049130D01*
X039870Y049080D01*
X039920Y049030D01*
Y048980D01*
X039870Y048930D01*
X039770D01*
X039720Y048980D01*
Y049030D01*
X039770Y049080D01*
X039720Y049130D01*
Y049180D01*
X039770Y049080D02*
X039870D01*
X039120Y048430D02*
Y048730D01*
X039270D01*
X039320Y048680D01*
Y048580D01*
X039270Y048530D01*
X039120D01*
X039220D02*
X039320Y048430D01*
X039620Y048730D02*
X039420D01*
Y048580D01*
X039520Y048630D01*
X039570D01*
X039620Y048580D01*
Y048480D01*
X039570Y048430D01*
X039470D01*
X039420Y048480D01*
X039720D02*
X039770Y048430D01*
X039870D01*
X039920Y048480D01*
Y048680D01*
X039870Y048730D01*
X039770D01*
X039720Y048680D01*
Y048630D01*
X039770Y048580D01*
X039920D01*
X036720Y049630D02*
Y049430D01*
X036820Y049330D01*
X036920Y049430D01*
Y049630D01*
X037070Y049330D02*
X037170D01*
X037220Y049380D01*
Y049480D01*
X037170Y049530D01*
X037070D01*
X037020Y049480D01*
Y049380D01*
X037070Y049330D01*
X037320Y049480D02*
X037520D01*
X037420Y049580D02*
Y049380D01*
X036020Y053280D02*
Y053080D01*
X036120Y052980D01*
X036220Y053080D01*
Y053280D01*
X036370Y052980D02*
X036470D01*
X036520Y053030D01*
Y053130D01*
X036470Y053180D01*
X036370D01*
X036320Y053130D01*
Y053030D01*
X036370Y052980D01*
X036620Y053130D02*
X036820D01*
X044770Y052580D02*
Y052280D01*
X044920D01*
X044970Y052330D01*
Y052530D01*
X044920Y052580D01*
X044770D01*
X045070Y052280D02*
Y052480D01*
X045170Y052580D01*
X045270Y052480D01*
Y052280D01*
Y052430D01*
X045070D01*
X045570Y052530D02*
X045520Y052580D01*
X045420D01*
X045370Y052530D01*
Y052330D01*
X045420Y052280D01*
X045520D01*
X045570Y052330D01*
X037920Y053180D02*
X037870Y053230D01*
X037770D01*
X037720Y053180D01*
Y053130D01*
X037770Y053080D01*
X037870D01*
X037920Y053030D01*
Y052980D01*
X037870Y052930D01*
X037770D01*
X037720Y052980D01*
X038020Y053230D02*
X038120D01*
X038070D01*
Y052930D01*
X038020D01*
X038120D01*
X038470Y053180D02*
X038420Y053230D01*
X038320D01*
X038270Y053180D01*
Y052980D01*
X038320Y052930D01*
X038420D01*
X038470Y052980D01*
Y053080D01*
X038370D01*
X037720Y048530D02*
X037620D01*
X037570Y048480D01*
Y048280D01*
X037620Y048230D01*
X037720D01*
X037770Y048280D01*
Y048480D01*
X037720Y048530D01*
X037870D02*
Y048280D01*
X037920Y048230D01*
X038020D01*
X038070Y048280D01*
Y048530D01*
X038170D02*
X038370D01*
X038270D01*
Y048230D01*
X038670D02*
X038470D01*
X038670Y048430D01*
Y048480D01*
X038620Y048530D01*
X038520D01*
X038470Y048480D01*
X044570Y050180D02*
X044670D01*
X044620D01*
Y049880D01*
X044570D01*
X044670D01*
X044820D02*
Y050180D01*
X045020Y049880D01*
Y050180D01*
X045120Y049830D02*
X045320D01*
X045420Y049880D02*
Y050180D01*
X045620Y049880D01*
Y050180D01*
X033020Y051380D02*
Y051130D01*
X033070Y051080D01*
X033170D01*
X033220Y051130D01*
Y051380D01*
X033320Y051330D02*
X033370Y051380D01*
X033470D01*
X033520Y051330D01*
Y051280D01*
X033470Y051230D01*
X033520Y051180D01*
Y051130D01*
X033470Y051080D01*
X033370D01*
X033320Y051130D01*
Y051180D01*
X033370Y051230D01*
X033320Y051280D01*
Y051330D01*
X033370Y051230D02*
X033470D01*
X040870Y051430D02*
Y051180D01*
X040920Y051130D01*
X041020D01*
X041070Y051180D01*
Y051430D01*
X041170Y051130D02*
X041270D01*
X041220D01*
Y051430D01*
X041170Y051380D01*
X041420D02*
X041470Y051430D01*
X041570D01*
X041620Y051380D01*
Y051180D01*
X041570Y051130D01*
X041470D01*
X041420Y051180D01*
Y051380D01*
X057970Y034980D02*
X058270D01*
Y035130D01*
X058220Y035180D01*
X058020D01*
X057970Y035130D01*
Y034980D01*
X058020Y035480D02*
X057970Y035430D01*
Y035330D01*
X058020Y035280D01*
X058070D01*
X058120Y035330D01*
Y035430D01*
X058170Y035480D01*
X058220D01*
X058270Y035430D01*
Y035330D01*
X058220Y035280D01*
X058020Y035780D02*
X057970Y035730D01*
Y035630D01*
X058020Y035580D01*
X058070D01*
X058120Y035630D01*
Y035730D01*
X058170Y035780D01*
X058220D01*
X058270Y035730D01*
Y035630D01*
X058220Y035580D01*
X058320Y035880D02*
Y036080D01*
X057970Y036180D02*
Y036280D01*
Y036230D01*
X058270D01*
Y036180D01*
Y036280D01*
X057970Y036579D02*
Y036480D01*
X058020Y036430D01*
X058220D01*
X058270Y036480D01*
Y036579D01*
X058220Y036629D01*
X058020D01*
X057970Y036579D01*
Y036729D02*
X058220D01*
X058270Y036779D01*
Y036879D01*
X058220Y036929D01*
X057970D01*
Y037029D02*
Y037229D01*
Y037129D01*
X058270D01*
Y037329D02*
X057970D01*
Y037479D01*
X058020Y037529D01*
X058120D01*
X058170Y037479D01*
Y037329D01*
X057970Y037779D02*
Y037679D01*
X058020Y037629D01*
X058220D01*
X058270Y037679D01*
Y037779D01*
X058220Y037829D01*
X058020D01*
X057970Y037779D01*
Y037929D02*
Y038129D01*
Y038029D01*
X058270D01*
X036970Y051730D02*
X036920Y051780D01*
X036820D01*
X036770Y051730D01*
Y051530D01*
X036820Y051480D01*
X036920D01*
X036970Y051530D01*
Y051630D01*
X036870D01*
X037070Y051480D02*
Y051780D01*
X037270Y051480D01*
Y051780D01*
X037370D02*
Y051480D01*
X037520D01*
X037570Y051530D01*
Y051730D01*
X037520Y051780D01*
X037370D01*
X042120Y041580D02*
Y041330D01*
X042170Y041280D01*
X042270D01*
X042320Y041330D01*
Y041580D01*
X042420Y041280D02*
X042520D01*
X042470D01*
Y041580D01*
X042420Y041530D01*
X042870Y041280D02*
X042670D01*
X042870Y041480D01*
Y041530D01*
X042820Y041580D01*
X042720D01*
X042670Y041530D01*
X039020Y043080D02*
Y043380D01*
X039170D01*
X039220Y043330D01*
Y043230D01*
X039170Y043180D01*
X039020D01*
X039120D02*
X039220Y043080D01*
X039520Y043380D02*
X039420Y043330D01*
X039320Y043230D01*
Y043130D01*
X039370Y043080D01*
X039470D01*
X039520Y043130D01*
Y043180D01*
X039470Y043230D01*
X039320D01*
X039620Y043380D02*
X039820D01*
Y043330D01*
X039620Y043130D01*
Y043080D01*
X039020Y042230D02*
Y042530D01*
X039170D01*
X039220Y042480D01*
Y042380D01*
X039170Y042330D01*
X039020D01*
X039120D02*
X039220Y042230D01*
X039520Y042530D02*
X039420Y042480D01*
X039320Y042380D01*
Y042280D01*
X039370Y042230D01*
X039470D01*
X039520Y042280D01*
Y042330D01*
X039470Y042380D01*
X039320D01*
X039620Y042480D02*
X039670Y042530D01*
X039770D01*
X039820Y042480D01*
Y042430D01*
X039770Y042380D01*
X039820Y042330D01*
Y042280D01*
X039770Y042230D01*
X039670D01*
X039620Y042280D01*
Y042330D01*
X039670Y042380D01*
X039620Y042430D01*
Y042480D01*
X039670Y042380D02*
X039770D01*
X039020Y041230D02*
Y041530D01*
X039170D01*
X039220Y041480D01*
Y041380D01*
X039170Y041330D01*
X039020D01*
X039120D02*
X039220Y041230D01*
X039520Y041530D02*
X039420Y041480D01*
X039320Y041380D01*
Y041280D01*
X039370Y041230D01*
X039470D01*
X039520Y041280D01*
Y041330D01*
X039470Y041380D01*
X039320D01*
X039620Y041280D02*
X039670Y041230D01*
X039770D01*
X039820Y041280D01*
Y041480D01*
X039770Y041530D01*
X039670D01*
X039620Y041480D01*
Y041430D01*
X039670Y041380D01*
X039820D01*
X037670Y046630D02*
Y046930D01*
X037820D01*
X037870Y046880D01*
Y046780D01*
X037820Y046730D01*
X037670D01*
X037770D02*
X037870Y046630D01*
X037970Y046930D02*
X038170D01*
Y046880D01*
X037970Y046680D01*
Y046630D01*
X038270D02*
X038370D01*
X038320D01*
Y046930D01*
X038270Y046880D01*
X039020Y044930D02*
Y045230D01*
X039170D01*
X039220Y045180D01*
Y045080D01*
X039170Y045030D01*
X039020D01*
X039120D02*
X039220Y044930D01*
X039320Y045230D02*
X039520D01*
Y045180D01*
X039320Y044980D01*
Y044930D01*
X039820D02*
X039620D01*
X039820Y045130D01*
Y045180D01*
X039770Y045230D01*
X039670D01*
X039620Y045180D01*
X038970Y043830D02*
Y044130D01*
X039120D01*
X039170Y044080D01*
Y043980D01*
X039120Y043930D01*
X038970D01*
X039070D02*
X039170Y043830D01*
X039270Y044130D02*
X039470D01*
Y044080D01*
X039270Y043880D01*
Y043830D01*
X039570Y044080D02*
X039620Y044130D01*
X039720D01*
X039770Y044080D01*
Y044030D01*
X039720Y043980D01*
X039670D01*
X039720D01*
X039770Y043930D01*
Y043880D01*
X039720Y043830D01*
X039620D01*
X039570Y043880D01*
X040870Y043130D02*
X040970D01*
X040920D01*
Y042830D01*
X040870D01*
X040970D01*
X041120D02*
Y043130D01*
X041320Y042830D01*
Y043130D01*
X041420Y042830D02*
X041520D01*
X041470D01*
Y043130D01*
X041420Y043080D01*
X041670Y042780D02*
X041870D01*
X041970Y042830D02*
Y043130D01*
X042170Y042830D01*
Y043130D01*
X033320Y041130D02*
X033220D01*
X033170Y041080D01*
Y040880D01*
X033220Y040830D01*
X033320D01*
X033370Y040880D01*
Y041080D01*
X033320Y041130D01*
X033470D02*
Y040880D01*
X033520Y040830D01*
X033620D01*
X033670Y040880D01*
Y041130D01*
X033770D02*
X033970D01*
X033870D01*
Y040830D01*
X034070D02*
X034170D01*
X034120D01*
Y041130D01*
X034070Y041080D01*
X040870Y042130D02*
X040970D01*
X040920D01*
Y041830D01*
X040870D01*
X040970D01*
X041120D02*
Y042130D01*
X041320Y041830D01*
Y042130D01*
X041420Y041830D02*
X041520D01*
X041470D01*
Y042130D01*
X041420Y042080D01*
X041670Y041780D02*
X041870D01*
X041970Y041830D02*
Y042130D01*
X042120D01*
X042170Y042080D01*
Y041980D01*
X042120Y041930D01*
X041970D01*
X041070Y044330D02*
X041020Y044380D01*
X040920D01*
X040870Y044330D01*
Y044130D01*
X040920Y044080D01*
X041020D01*
X041070Y044130D01*
Y044230D01*
X040970D01*
X041170Y044080D02*
Y044380D01*
X041370Y044080D01*
Y044380D01*
X041470D02*
Y044080D01*
X041620D01*
X041670Y044130D01*
Y044330D01*
X041620Y044380D01*
X041470D01*
X040820Y046630D02*
X040920D01*
X040870D01*
Y046330D01*
X040820D01*
X040920D01*
X041070D02*
Y046630D01*
X041270Y046330D01*
Y046630D01*
X041570Y046330D02*
X041370D01*
X041570Y046530D01*
Y046580D01*
X041520Y046630D01*
X041420D01*
X041370Y046580D01*
X041670Y046280D02*
X041870D01*
X041970Y046330D02*
Y046630D01*
X042170Y046330D01*
Y046630D01*
X033220Y043930D02*
X033120D01*
X033070Y043880D01*
Y043680D01*
X033120Y043630D01*
X033220D01*
X033270Y043680D01*
Y043880D01*
X033220Y043930D01*
X033370D02*
Y043680D01*
X033420Y043630D01*
X033520D01*
X033570Y043680D01*
Y043930D01*
X033670D02*
X033870D01*
X033770D01*
Y043630D01*
X034170D02*
X033970D01*
X034170Y043830D01*
Y043880D01*
X034120Y043930D01*
X034020D01*
X033970Y043880D01*
X040820Y045630D02*
X040920D01*
X040870D01*
Y045330D01*
X040820D01*
X040920D01*
X041070D02*
Y045630D01*
X041270Y045330D01*
Y045630D01*
X041570Y045330D02*
X041370D01*
X041570Y045530D01*
Y045580D01*
X041520Y045630D01*
X041420D01*
X041370Y045580D01*
X041670Y045280D02*
X041870D01*
X041970Y045330D02*
Y045630D01*
X042120D01*
X042170Y045580D01*
Y045480D01*
X042120Y045430D01*
X041970D01*
X033420Y042480D02*
X033370Y042530D01*
X033270D01*
X033220Y042480D01*
Y042280D01*
X033270Y042230D01*
X033370D01*
X033420Y042280D01*
Y042380D01*
X033320D01*
X033520Y042230D02*
Y042530D01*
X033720Y042230D01*
Y042530D01*
X033820D02*
Y042230D01*
X033970D01*
X034020Y042280D01*
Y042480D01*
X033970Y042530D01*
X033820D01*
X056120Y038730D02*
Y038430D01*
X056270D01*
X056320Y038480D01*
Y038680D01*
X056270Y038730D01*
X056120D01*
X056620Y038680D02*
X056570Y038730D01*
X056470D01*
X056420Y038680D01*
Y038630D01*
X056470Y038580D01*
X056570D01*
X056620Y038530D01*
Y038480D01*
X056570Y038430D01*
X056470D01*
X056420Y038480D01*
X056920Y038680D02*
X056870Y038730D01*
X056770D01*
X056720Y038680D01*
Y038630D01*
X056770Y038580D01*
X056870D01*
X056920Y038530D01*
Y038480D01*
X056870Y038430D01*
X056770D01*
X056720Y038480D01*
X057020Y038380D02*
X057220D01*
X057320Y038430D02*
Y038630D01*
X057420Y038730D01*
X057520Y038630D01*
Y038430D01*
Y038580D01*
X057320D01*
X057819Y038680D02*
X057769Y038730D01*
X057670D01*
X057620Y038680D01*
Y038480D01*
X057670Y038430D01*
X057769D01*
X057819Y038480D01*
Y038580D01*
X057719D01*
X057919Y038430D02*
Y038730D01*
X058119Y038430D01*
Y038730D01*
X058219D02*
Y038430D01*
X058369D01*
X058419Y038480D01*
Y038680D01*
X058369Y038730D01*
X058219D01*
X024470Y022680D02*
Y022980D01*
X024620D01*
X024670Y022930D01*
Y022830D01*
X024620Y022780D01*
X024470D01*
X024570D02*
X024670Y022680D01*
X024970Y022980D02*
X024770D01*
Y022830D01*
X024870D01*
X024770D01*
Y022680D01*
X025070Y022930D02*
X025120Y022980D01*
X025220D01*
X025270Y022930D01*
Y022880D01*
X025220Y022830D01*
X025170D01*
X025220D01*
X025270Y022780D01*
Y022730D01*
X025220Y022680D01*
X025120D01*
X025070Y022730D01*
X024670Y023930D02*
X024620Y023980D01*
X024520D01*
X024470Y023930D01*
Y023730D01*
X024520Y023680D01*
X024620D01*
X024670Y023730D01*
Y023830D01*
X024570D01*
X024770Y023680D02*
Y023980D01*
X024970Y023680D01*
Y023980D01*
X025070D02*
Y023680D01*
X025220D01*
X025270Y023730D01*
Y023930D01*
X025220Y023980D01*
X025070D01*
X024920Y048480D02*
X024720D01*
Y048330D01*
X024820Y048380D01*
X024870D01*
X024920Y048330D01*
Y048230D01*
X024870Y048180D01*
X024770D01*
X024720Y048230D01*
X025020Y048480D02*
Y048280D01*
X025120Y048180D01*
X025220Y048280D01*
Y048480D01*
X046420Y043130D02*
Y043330D01*
X046520Y043430D01*
X046620Y043330D01*
Y043130D01*
Y043280D01*
X046420D01*
X046720Y043130D02*
X046820D01*
X046770D01*
Y043430D01*
X046720Y043380D01*
X046420Y042430D02*
Y042130D01*
X046570D01*
X046620Y042180D01*
Y042230D01*
X046570Y042280D01*
X046420D01*
X046570D01*
X046620Y042330D01*
Y042380D01*
X046570Y042430D01*
X046420D01*
X046720Y042130D02*
X046820D01*
X046770D01*
Y042430D01*
X046720Y042380D01*
X041070Y037180D02*
Y036880D01*
X041220D01*
X041270Y036930D01*
Y036980D01*
X041220Y037030D01*
X041070D01*
X041220D01*
X041270Y037080D01*
Y037130D01*
X041220Y037180D01*
X041070D01*
X041570Y036880D02*
X041370D01*
X041570Y037080D01*
Y037130D01*
X041520Y037180D01*
X041420D01*
X041370Y037130D01*
X041070Y035830D02*
Y036030D01*
X041170Y036130D01*
X041270Y036030D01*
Y035830D01*
Y035980D01*
X041070D01*
X041570Y035830D02*
X041370D01*
X041570Y036030D01*
Y036080D01*
X041520Y036130D01*
X041420D01*
X041370Y036080D01*
X042770Y044830D02*
Y044530D01*
X042920D01*
X042970Y044580D01*
Y044780D01*
X042920Y044830D01*
X042770D01*
X043270D02*
X043070D01*
Y044530D01*
X043270D01*
X043070Y044680D02*
X043170D01*
X043370Y044530D02*
X043470D01*
X043420D01*
Y044830D01*
X043370Y044780D01*
X042920Y047380D02*
Y047080D01*
X043070D01*
X043120Y047130D01*
Y047330D01*
X043070Y047380D01*
X042920D01*
X043220Y047080D02*
X043320D01*
X043270D01*
Y047380D01*
X043220Y047330D01*
X044770Y046280D02*
Y046580D01*
X044920D01*
X044970Y046530D01*
Y046430D01*
X044920Y046380D01*
X044770D01*
X044870D02*
X044970Y046280D01*
X045070D02*
X045170D01*
X045120D01*
Y046580D01*
X045070Y046530D01*
X044770Y045280D02*
Y045580D01*
X044920D01*
X044970Y045530D01*
Y045430D01*
X044920Y045380D01*
X044770D01*
X044870D02*
X044970Y045280D01*
X045270Y045580D02*
X045070D01*
Y045280D01*
X045270D01*
X045070Y045430D02*
X045170D01*
X045370Y045280D02*
X045470D01*
X045420D01*
Y045580D01*
X045370Y045530D01*
X042070Y033230D02*
Y033530D01*
X042220D01*
X042270Y033480D01*
Y033380D01*
X042220Y033330D01*
X042070D01*
X042170D02*
X042270Y033230D01*
X042570Y033530D02*
X042370D01*
Y033230D01*
X042570D01*
X042370Y033380D02*
X042470D01*
X042870Y033230D02*
X042670D01*
X042870Y033430D01*
Y033480D01*
X042820Y033530D01*
X042720D01*
X042670Y033480D01*
X042320Y032230D02*
Y032530D01*
X042470D01*
X042520Y032480D01*
Y032380D01*
X042470Y032330D01*
X042320D01*
X042420D02*
X042520Y032230D01*
X042820D02*
X042620D01*
X042820Y032430D01*
Y032480D01*
X042770Y032530D01*
X042670D01*
X042620Y032480D01*
X045170Y032530D02*
Y032230D01*
X045320D01*
X045370Y032280D01*
Y032480D01*
X045320Y032530D01*
X045170D01*
X045670Y032230D02*
X045470D01*
X045670Y032430D01*
Y032480D01*
X045620Y032530D01*
X045520D01*
X045470Y032480D01*
X045170Y033530D02*
Y033230D01*
X045320D01*
X045370Y033280D01*
Y033480D01*
X045320Y033530D01*
X045170D01*
X045670D02*
X045470D01*
Y033230D01*
X045670D01*
X045470Y033380D02*
X045570D01*
X045970Y033230D02*
X045770D01*
X045970Y033430D01*
Y033480D01*
X045920Y033530D01*
X045820D01*
X045770Y033480D01*
X043070Y029180D02*
X043370D01*
Y029030D01*
X043320Y028980D01*
X043220D01*
X043170Y029030D01*
Y029180D01*
Y029080D02*
X043070Y028980D01*
X043370Y028880D02*
Y028680D01*
Y028780D01*
X043070D01*
X043320Y028380D02*
X043370Y028430D01*
Y028530D01*
X043320Y028580D01*
X043270D01*
X043220Y028530D01*
Y028430D01*
X043170Y028380D01*
X043120D01*
X043070Y028430D01*
Y028530D01*
X043120Y028580D01*
X042370Y029180D02*
Y028980D01*
Y029080D01*
X042070D01*
X042370Y028880D02*
X042070Y028680D01*
X042370D02*
X042070Y028880D01*
X042370Y028580D02*
X042070D01*
Y028430D01*
X042120Y028380D01*
X042320D01*
X042370Y028430D01*
Y028580D01*
X043320Y025930D02*
X043370Y025980D01*
Y026080D01*
X043320Y026130D01*
X043120D01*
X043070Y026080D01*
Y025980D01*
X043120Y025930D01*
X043370Y025830D02*
Y025630D01*
Y025730D01*
X043070D01*
X043320Y025330D02*
X043370Y025380D01*
Y025480D01*
X043320Y025530D01*
X043270D01*
X043220Y025480D01*
Y025380D01*
X043170Y025330D01*
X043120D01*
X043070Y025380D01*
Y025480D01*
X043120Y025530D01*
X042070Y026130D02*
X042370D01*
Y025980D01*
X042320Y025930D01*
X042220D01*
X042170Y025980D01*
Y026130D01*
Y026030D02*
X042070Y025930D01*
X042370Y025830D02*
X042070Y025630D01*
X042370D02*
X042070Y025830D01*
X042370Y025530D02*
X042070D01*
Y025380D01*
X042120Y025330D01*
X042320D01*
X042370Y025380D01*
Y025530D01*
X040220Y029830D02*
Y030130D01*
X040370D01*
X040420Y030080D01*
Y029980D01*
X040370Y029930D01*
X040220D01*
X040320D02*
X040420Y029830D01*
X040720Y030130D02*
X040520D01*
Y029980D01*
X040620D01*
X040520D01*
Y029830D01*
X040820Y030080D02*
X040870Y030130D01*
X040970D01*
X041020Y030080D01*
Y029880D01*
X040970Y029830D01*
X040870D01*
X040820Y029880D01*
Y030080D01*
X037120Y029830D02*
Y030130D01*
X037270D01*
X037320Y030080D01*
Y029980D01*
X037270Y029930D01*
X037120D01*
X037220D02*
X037320Y029830D01*
X037620Y030130D02*
X037420D01*
Y029980D01*
X037520D01*
X037420D01*
Y029830D01*
X037720D02*
X037820D01*
X037770D01*
Y030130D01*
X037720Y030080D01*
X035720Y024130D02*
X035420D01*
Y024280D01*
X035470Y024330D01*
X035570D01*
X035620Y024280D01*
Y024130D01*
Y024230D02*
X035720Y024330D01*
X035470Y024630D02*
X035420Y024580D01*
Y024480D01*
X035470Y024430D01*
X035670D01*
X035720Y024480D01*
Y024580D01*
X035670Y024630D01*
X035720Y024730D02*
Y024830D01*
Y024780D01*
X035420D01*
X035470Y024730D01*
Y024980D02*
X035420Y025030D01*
Y025130D01*
X035470Y025180D01*
X035520D01*
X035570Y025130D01*
Y025080D01*
Y025130D01*
X035620Y025180D01*
X035670D01*
X035720Y025130D01*
Y025030D01*
X035670Y024980D01*
X035270Y024130D02*
X034970D01*
Y024280D01*
X035020Y024330D01*
X035120D01*
X035170Y024280D01*
Y024130D01*
Y024230D02*
X035270Y024330D01*
X035020Y024630D02*
X034970Y024580D01*
Y024480D01*
X035020Y024430D01*
X035220D01*
X035270Y024480D01*
Y024580D01*
X035220Y024630D01*
X035270Y024730D02*
Y024830D01*
Y024780D01*
X034970D01*
X035020Y024730D01*
X035270Y025130D02*
X034970D01*
X035120Y024980D01*
Y025180D01*
X037120Y027480D02*
Y027780D01*
X037270D01*
X037320Y027730D01*
Y027630D01*
X037270Y027580D01*
X037120D01*
X037220D02*
X037320Y027480D01*
X037420Y027780D02*
Y027480D01*
X037570D01*
X037620Y027530D01*
Y027730D01*
X037570Y027780D01*
X037420D01*
X037920D02*
X037820Y027730D01*
X037720Y027630D01*
Y027530D01*
X037770Y027480D01*
X037870D01*
X037920Y027530D01*
Y027580D01*
X037870Y027630D01*
X037720D01*
X037120Y026480D02*
Y026780D01*
X037270D01*
X037320Y026730D01*
Y026630D01*
X037270Y026580D01*
X037120D01*
X037220D02*
X037320Y026480D01*
X037420Y026780D02*
Y026480D01*
X037570D01*
X037620Y026530D01*
Y026730D01*
X037570Y026780D01*
X037420D01*
X037870Y026480D02*
Y026780D01*
X037720Y026630D01*
X037920D01*
X037120Y025680D02*
Y025980D01*
X037270D01*
X037320Y025930D01*
Y025830D01*
X037270Y025780D01*
X037120D01*
X037220D02*
X037320Y025680D01*
X037420Y025980D02*
Y025680D01*
X037570D01*
X037620Y025730D01*
Y025930D01*
X037570Y025980D01*
X037420D01*
X037920Y025680D02*
X037720D01*
X037920Y025880D01*
Y025930D01*
X037870Y025980D01*
X037770D01*
X037720Y025930D01*
X037120Y025280D02*
Y025580D01*
X037270D01*
X037320Y025530D01*
Y025430D01*
X037270Y025380D01*
X037120D01*
X037220D02*
X037320Y025280D01*
X037420Y025580D02*
Y025280D01*
X037570D01*
X037620Y025330D01*
Y025530D01*
X037570Y025580D01*
X037420D01*
X037720Y025530D02*
X037770Y025580D01*
X037870D01*
X037920Y025530D01*
Y025330D01*
X037870Y025280D01*
X037770D01*
X037720Y025330D01*
Y025530D01*
X040220Y024480D02*
Y024780D01*
X040370D01*
X040420Y024730D01*
Y024630D01*
X040370Y024580D01*
X040220D01*
X040320D02*
X040420Y024480D01*
X040520Y024780D02*
Y024480D01*
X040670D01*
X040720Y024530D01*
Y024730D01*
X040670Y024780D01*
X040520D01*
X040820Y024480D02*
X040920D01*
X040870D01*
Y024780D01*
X040820Y024730D01*
X040220Y025480D02*
Y025780D01*
X040370D01*
X040420Y025730D01*
Y025630D01*
X040370Y025580D01*
X040220D01*
X040320D02*
X040420Y025480D01*
X040520Y025780D02*
Y025480D01*
X040670D01*
X040720Y025530D01*
Y025730D01*
X040670Y025780D01*
X040520D01*
X040820Y025730D02*
X040870Y025780D01*
X040970D01*
X041020Y025730D01*
Y025680D01*
X040970Y025630D01*
X040920D01*
X040970D01*
X041020Y025580D01*
Y025530D01*
X040970Y025480D01*
X040870D01*
X040820Y025530D01*
X040220Y026480D02*
Y026780D01*
X040370D01*
X040420Y026730D01*
Y026630D01*
X040370Y026580D01*
X040220D01*
X040320D02*
X040420Y026480D01*
X040520Y026780D02*
Y026480D01*
X040670D01*
X040720Y026530D01*
Y026730D01*
X040670Y026780D01*
X040520D01*
X041020D02*
X040820D01*
Y026630D01*
X040920Y026680D01*
X040970D01*
X041020Y026630D01*
Y026530D01*
X040970Y026480D01*
X040870D01*
X040820Y026530D01*
X040220Y027480D02*
Y027780D01*
X040370D01*
X040420Y027730D01*
Y027630D01*
X040370Y027580D01*
X040220D01*
X040320D02*
X040420Y027480D01*
X040520Y027780D02*
Y027480D01*
X040670D01*
X040720Y027530D01*
Y027730D01*
X040670Y027780D01*
X040520D01*
X040820D02*
X041020D01*
Y027730D01*
X040820Y027530D01*
Y027480D01*
X040220Y034030D02*
Y034330D01*
X040370D01*
X040420Y034280D01*
Y034180D01*
X040370Y034130D01*
X040220D01*
X040320D02*
X040420Y034030D01*
X040720Y034330D02*
X040520D01*
Y034030D01*
X040720D01*
X040520Y034180D02*
X040620D01*
X041020Y034330D02*
X040920Y034280D01*
X040820Y034180D01*
Y034080D01*
X040870Y034030D01*
X040970D01*
X041020Y034080D01*
Y034130D01*
X040970Y034180D01*
X040820D01*
X040220Y033030D02*
Y033330D01*
X040370D01*
X040420Y033280D01*
Y033180D01*
X040370Y033130D01*
X040220D01*
X040320D02*
X040420Y033030D01*
X040720Y033330D02*
X040520D01*
Y033030D01*
X040720D01*
X040520Y033180D02*
X040620D01*
X040970Y033030D02*
Y033330D01*
X040820Y033180D01*
X041020D01*
X040220Y032030D02*
Y032330D01*
X040370D01*
X040420Y032280D01*
Y032180D01*
X040370Y032130D01*
X040220D01*
X040320D02*
X040420Y032030D01*
X040720Y032330D02*
X040520D01*
Y032030D01*
X040720D01*
X040520Y032180D02*
X040620D01*
X041020Y032030D02*
X040820D01*
X041020Y032230D01*
Y032280D01*
X040970Y032330D01*
X040870D01*
X040820Y032280D01*
X040220Y031030D02*
Y031330D01*
X040370D01*
X040420Y031280D01*
Y031180D01*
X040370Y031130D01*
X040220D01*
X040320D02*
X040420Y031030D01*
X040720Y031330D02*
X040520D01*
Y031030D01*
X040720D01*
X040520Y031180D02*
X040620D01*
X040820Y031280D02*
X040870Y031330D01*
X040970D01*
X041020Y031280D01*
Y031080D01*
X040970Y031030D01*
X040870D01*
X040820Y031080D01*
Y031280D01*
X037220Y031030D02*
Y031330D01*
X037370D01*
X037420Y031280D01*
Y031180D01*
X037370Y031130D01*
X037220D01*
X037320D02*
X037420Y031030D01*
X037720Y031330D02*
X037520D01*
Y031030D01*
X037720D01*
X037520Y031180D02*
X037620D01*
X037820Y031030D02*
X037920D01*
X037870D01*
Y031330D01*
X037820Y031280D01*
X037120Y032030D02*
Y032330D01*
X037270D01*
X037320Y032280D01*
Y032180D01*
X037270Y032130D01*
X037120D01*
X037220D02*
X037320Y032030D01*
X037620Y032330D02*
X037420D01*
Y032030D01*
X037620D01*
X037420Y032180D02*
X037520D01*
X037720Y032280D02*
X037770Y032330D01*
X037870D01*
X037920Y032280D01*
Y032230D01*
X037870Y032180D01*
X037820D01*
X037870D01*
X037920Y032130D01*
Y032080D01*
X037870Y032030D01*
X037770D01*
X037720Y032080D01*
X037170Y033030D02*
Y033330D01*
X037320D01*
X037370Y033280D01*
Y033180D01*
X037320Y033130D01*
X037170D01*
X037270D02*
X037370Y033030D01*
X037670Y033330D02*
X037470D01*
Y033030D01*
X037670D01*
X037470Y033180D02*
X037570D01*
X037970Y033330D02*
X037770D01*
Y033180D01*
X037870Y033230D01*
X037920D01*
X037970Y033180D01*
Y033080D01*
X037920Y033030D01*
X037820D01*
X037770Y033080D01*
X037170Y034030D02*
Y034330D01*
X037320D01*
X037370Y034280D01*
Y034180D01*
X037320Y034130D01*
X037170D01*
X037270D02*
X037370Y034030D01*
X037670Y034330D02*
X037470D01*
Y034030D01*
X037670D01*
X037470Y034180D02*
X037570D01*
X037770Y034330D02*
X037970D01*
Y034280D01*
X037770Y034080D01*
Y034030D01*
X037920Y023780D02*
X038220D01*
Y023630D01*
X038170Y023580D01*
X038070D01*
X038020Y023630D01*
Y023780D01*
Y023680D02*
X037920Y023580D01*
X038220Y023480D02*
X037920D01*
Y023330D01*
X037970Y023280D01*
X038170D01*
X038220Y023330D01*
Y023480D01*
X037920Y023180D02*
Y023080D01*
Y023130D01*
X038220D01*
X038170Y023180D01*
Y022930D02*
X038220Y022880D01*
Y022780D01*
X038170Y022730D01*
X037970D01*
X037920Y022780D01*
Y022880D01*
X037970Y022930D01*
X038170D01*
X037920Y022630D02*
X038120Y022430D01*
X038170Y022131D02*
X038220Y022181D01*
Y022280D01*
X038170Y022330D01*
X038120D01*
X038070Y022280D01*
Y022181D01*
X038020Y022131D01*
X037970D01*
X037920Y022181D01*
Y022280D01*
X037970Y022330D01*
X038170Y021831D02*
X038220Y021881D01*
Y021981D01*
X038170Y022031D01*
X037970D01*
X037920Y021981D01*
Y021881D01*
X037970Y021831D01*
X038220Y021731D02*
X037920D01*
Y021531D01*
Y021431D02*
Y021331D01*
Y021381D01*
X038220D01*
X038170Y021431D01*
X033520Y022380D02*
Y022680D01*
X033670D01*
X033720Y022630D01*
Y022530D01*
X033670Y022480D01*
X033520D01*
X033620D02*
X033720Y022380D01*
X033820Y022680D02*
Y022380D01*
X033970D01*
X034020Y022430D01*
Y022630D01*
X033970Y022680D01*
X033820D01*
X034120Y022430D02*
X034170Y022380D01*
X034270D01*
X034320Y022430D01*
Y022630D01*
X034270Y022680D01*
X034170D01*
X034120Y022630D01*
Y022580D01*
X034170Y022530D01*
X034320D01*
X034420Y022380D02*
X034620Y022580D01*
X034920Y022630D02*
X034870Y022680D01*
X034770D01*
X034720Y022630D01*
Y022580D01*
X034770Y022530D01*
X034870D01*
X034920Y022480D01*
Y022430D01*
X034870Y022380D01*
X034770D01*
X034720Y022430D01*
X035020Y022680D02*
Y022380D01*
X035169D01*
X035219Y022430D01*
Y022630D01*
X035169Y022680D01*
X035020D01*
X035319Y022380D02*
Y022580D01*
X035419Y022680D01*
X035519Y022580D01*
Y022380D01*
Y022530D01*
X035319D01*
X035619Y022380D02*
X035719D01*
X035669D01*
Y022680D01*
X035619Y022630D01*
X026820Y022230D02*
X027120D01*
Y022080D01*
X027070Y022030D01*
X026970D01*
X026920Y022080D01*
Y022230D01*
Y022130D02*
X026820Y022030D01*
X027120Y021730D02*
Y021930D01*
X026970D01*
Y021830D01*
Y021930D01*
X026820D01*
X027120Y021430D02*
Y021630D01*
X026970D01*
X027020Y021530D01*
Y021480D01*
X026970Y021430D01*
X026870D01*
X026820Y021480D01*
Y021580D01*
X026870Y021630D01*
X026820Y021330D02*
X027020Y021130D01*
X027070Y020830D02*
X027120Y020880D01*
Y020980D01*
X027070Y021030D01*
X027020D01*
X026970Y020980D01*
Y020880D01*
X026920Y020830D01*
X026870D01*
X026820Y020880D01*
Y020980D01*
X026870Y021030D01*
X027070Y020531D02*
X027120Y020581D01*
Y020680D01*
X027070Y020730D01*
X026870D01*
X026820Y020680D01*
Y020581D01*
X026870Y020531D01*
X027120Y020431D02*
X026820D01*
Y020231D01*
Y019931D02*
Y020131D01*
X027020Y019931D01*
X027070D01*
X027120Y019981D01*
Y020081D01*
X027070Y020131D01*
X027570Y024030D02*
X027870D01*
Y023880D01*
X027820Y023830D01*
X027720D01*
X027670Y023880D01*
Y024030D01*
Y023930D02*
X027570Y023830D01*
X027870Y023530D02*
Y023730D01*
X027720D01*
Y023630D01*
Y023730D01*
X027570D01*
Y023280D02*
X027870D01*
X027720Y023430D01*
Y023230D01*
X027570Y023130D02*
X027770Y022930D01*
X027820Y022630D02*
X027870Y022680D01*
Y022780D01*
X027820Y022830D01*
X027770D01*
X027720Y022780D01*
Y022680D01*
X027670Y022630D01*
X027620D01*
X027570Y022680D01*
Y022780D01*
X027620Y022830D01*
X027870Y022530D02*
X027570D01*
Y022381D01*
X027620Y022331D01*
X027820D01*
X027870Y022381D01*
Y022530D01*
X027570Y022231D02*
X027770D01*
X027870Y022131D01*
X027770Y022031D01*
X027570D01*
X027720D01*
Y022231D01*
X027570Y021731D02*
Y021931D01*
X027770Y021731D01*
X027820D01*
X027870Y021781D01*
Y021881D01*
X027820Y021931D01*
X043470Y017680D02*
X043420Y017730D01*
X043320D01*
X043270Y017680D01*
Y017630D01*
X043320Y017580D01*
X043420D01*
X043470Y017530D01*
Y017480D01*
X043420Y017430D01*
X043320D01*
X043270Y017480D01*
X043770Y017680D02*
X043720Y017730D01*
X043620D01*
X043570Y017680D01*
Y017480D01*
X043620Y017430D01*
X043720D01*
X043770Y017480D01*
X043870Y017730D02*
Y017430D01*
X044070D01*
X040470Y017680D02*
X040420Y017730D01*
X040320D01*
X040270Y017680D01*
Y017630D01*
X040320Y017580D01*
X040420D01*
X040470Y017530D01*
Y017480D01*
X040420Y017430D01*
X040320D01*
X040270Y017480D01*
X040570Y017730D02*
Y017430D01*
X040720D01*
X040770Y017480D01*
Y017680D01*
X040720Y017730D01*
X040570D01*
X040870Y017430D02*
Y017630D01*
X040970Y017730D01*
X041070Y017630D01*
Y017430D01*
Y017580D01*
X040870D01*
X040470Y016680D02*
X040420Y016730D01*
X040320D01*
X040270Y016680D01*
Y016480D01*
X040320Y016430D01*
X040420D01*
X040470Y016480D01*
Y016580D01*
X040370D01*
X040570Y016430D02*
Y016730D01*
X040770Y016430D01*
Y016730D01*
X040870D02*
Y016430D01*
X041020D01*
X041070Y016480D01*
Y016680D01*
X041020Y016730D01*
X040870D01*
X043270Y016730D02*
X043320Y016780D01*
X043420D01*
X043470Y016730D01*
Y016680D01*
X043420Y016630D01*
X043370D01*
X043420D01*
X043470Y016580D01*
Y016530D01*
X043420Y016480D01*
X043320D01*
X043270Y016530D01*
X043570Y016780D02*
Y016580D01*
X043670Y016480D01*
X043770Y016580D01*
Y016780D01*
X043870Y016730D02*
X043920Y016780D01*
X044020D01*
X044070Y016730D01*
Y016680D01*
X044020Y016630D01*
X043970D01*
X044020D01*
X044070Y016580D01*
Y016530D01*
X044020Y016480D01*
X043920D01*
X043870Y016530D01*
X036920Y021380D02*
Y021680D01*
X037070D01*
X037120Y021630D01*
Y021530D01*
X037070Y021480D01*
X036920D01*
X037020D02*
X037120Y021380D01*
X037220Y021680D02*
Y021380D01*
X037370D01*
X037420Y021430D01*
Y021630D01*
X037370Y021680D01*
X037220D01*
X037520Y021630D02*
X037570Y021680D01*
X037670D01*
X037720Y021630D01*
Y021580D01*
X037670Y021530D01*
X037720Y021480D01*
Y021430D01*
X037670Y021380D01*
X037570D01*
X037520Y021430D01*
Y021480D01*
X037570Y021530D01*
X037520Y021580D01*
Y021630D01*
X037570Y021530D02*
X037670D01*
X034770Y023180D02*
Y023480D01*
X034920D01*
X034970Y023430D01*
Y023330D01*
X034920Y023280D01*
X034770D01*
X034870D02*
X034970Y023180D01*
X035070Y023480D02*
Y023180D01*
X035220D01*
X035270Y023230D01*
Y023430D01*
X035220Y023480D01*
X035070D01*
X035370Y023180D02*
X035470D01*
X035420D01*
Y023480D01*
X035370Y023430D01*
X035620Y023180D02*
X035720D01*
X035670D01*
Y023480D01*
X035620Y023430D01*
X052620Y016680D02*
X052570Y016730D01*
X052470D01*
X052420Y016680D01*
Y016630D01*
X052470Y016580D01*
X052570D01*
X052620Y016530D01*
Y016480D01*
X052570Y016430D01*
X052470D01*
X052420Y016480D01*
X052720Y016430D02*
X052820D01*
X052770D01*
Y016730D01*
X052720Y016680D01*
X055220D02*
X055170Y016730D01*
X055070D01*
X055020Y016680D01*
Y016630D01*
X055070Y016580D01*
X055170D01*
X055220Y016530D01*
Y016480D01*
X055170Y016430D01*
X055070D01*
X055020Y016480D01*
X055520Y016430D02*
X055320D01*
X055520Y016630D01*
Y016680D01*
X055470Y016730D01*
X055370D01*
X055320Y016680D01*
X055220Y017680D02*
X055170Y017730D01*
X055070D01*
X055020Y017680D01*
Y017630D01*
X055070Y017580D01*
X055170D01*
X055220Y017530D01*
Y017480D01*
X055170Y017430D01*
X055070D01*
X055020Y017480D01*
X055320Y017680D02*
X055370Y017730D01*
X055470D01*
X055520Y017680D01*
Y017630D01*
X055470Y017580D01*
X055420D01*
X055470D01*
X055520Y017530D01*
Y017480D01*
X055470Y017430D01*
X055370D01*
X055320Y017480D01*
X052520Y017680D02*
X052470Y017730D01*
X052370D01*
X052320Y017680D01*
Y017630D01*
X052370Y017580D01*
X052470D01*
X052520Y017530D01*
Y017480D01*
X052470Y017430D01*
X052370D01*
X052320Y017480D01*
X052770Y017430D02*
Y017730D01*
X052620Y017580D01*
X052820D01*
X035470Y032530D02*
X035770D01*
Y032380D01*
X035720Y032330D01*
X035620D01*
X035570Y032380D01*
Y032530D01*
Y032430D02*
X035470Y032330D01*
X035720Y032030D02*
X035770Y032080D01*
Y032180D01*
X035720Y032230D01*
X035520D01*
X035470Y032180D01*
Y032080D01*
X035520Y032030D01*
X035620D01*
Y032130D01*
X035520Y031930D02*
X035470Y031880D01*
Y031780D01*
X035520Y031730D01*
X035720D01*
X035770Y031780D01*
Y031880D01*
X035720Y031930D01*
X035670D01*
X035620Y031880D01*
Y031730D01*
X036470Y032530D02*
X036770D01*
Y032380D01*
X036720Y032330D01*
X036620D01*
X036570Y032380D01*
Y032530D01*
Y032430D02*
X036470Y032330D01*
X036720Y032030D02*
X036770Y032080D01*
Y032180D01*
X036720Y032230D01*
X036520D01*
X036470Y032180D01*
Y032080D01*
X036520Y032030D01*
X036620D01*
Y032130D01*
X036770Y031930D02*
Y031730D01*
X036720D01*
X036520Y031930D01*
X036470D01*
X036520Y034830D02*
Y035130D01*
X036670D01*
X036720Y035080D01*
Y034980D01*
X036670Y034930D01*
X036520D01*
X036620D02*
X036720Y034830D01*
X037020Y035080D02*
X036970Y035130D01*
X036870D01*
X036820Y035080D01*
Y034880D01*
X036870Y034830D01*
X036970D01*
X037020Y034880D01*
Y034980D01*
X036920D01*
X037320Y035130D02*
X037220Y035080D01*
X037120Y034980D01*
Y034880D01*
X037170Y034830D01*
X037270D01*
X037320Y034880D01*
Y034930D01*
X037270Y034980D01*
X037120D01*
X034620Y034680D02*
X034920D01*
Y034530D01*
X034870Y034480D01*
X034770D01*
X034720Y034530D01*
Y034680D01*
Y034580D02*
X034620Y034480D01*
X034870Y034180D02*
X034920Y034230D01*
Y034330D01*
X034870Y034380D01*
X034670D01*
X034620Y034330D01*
Y034230D01*
X034670Y034180D01*
X034770D01*
Y034280D01*
X034870Y034080D02*
X034920Y034030D01*
Y033930D01*
X034870Y033880D01*
X034820D01*
X034770Y033930D01*
X034720Y033880D01*
X034670D01*
X034620Y033930D01*
Y034030D01*
X034670Y034080D01*
X034720D01*
X034770Y034030D01*
X034820Y034080D01*
X034870D01*
X034770Y034030D02*
Y033930D01*
X033570Y035630D02*
X033870D01*
Y035480D01*
X033820Y035430D01*
X033720D01*
X033670Y035480D01*
Y035630D01*
Y035530D02*
X033570Y035430D01*
X033870Y035330D02*
X033570D01*
Y035180D01*
X033620Y035130D01*
X033670D01*
X033720Y035180D01*
Y035330D01*
Y035180D01*
X033770Y035130D01*
X033820D01*
X033870Y035180D01*
Y035330D01*
Y035030D02*
Y034830D01*
X033820D01*
X033620Y035030D01*
X033570D01*
X032620Y035630D02*
X032920D01*
Y035480D01*
X032870Y035430D01*
X032770D01*
X032720Y035480D01*
Y035630D01*
Y035530D02*
X032620Y035430D01*
X032920Y035330D02*
X032620D01*
Y035180D01*
X032670Y035130D01*
X032720D01*
X032770Y035180D01*
Y035330D01*
Y035180D01*
X032820Y035130D01*
X032870D01*
X032920Y035180D01*
Y035330D01*
Y034830D02*
Y035030D01*
X032770D01*
X032820Y034930D01*
Y034880D01*
X032770Y034830D01*
X032670D01*
X032620Y034880D01*
Y034980D01*
X032670Y035030D01*
X031620Y035630D02*
X031920D01*
Y035480D01*
X031870Y035430D01*
X031770D01*
X031720Y035480D01*
Y035630D01*
Y035530D02*
X031620Y035430D01*
X031920Y035330D02*
X031620D01*
Y035180D01*
X031670Y035130D01*
X031720D01*
X031770Y035180D01*
Y035330D01*
Y035180D01*
X031820Y035130D01*
X031870D01*
X031920Y035180D01*
Y035330D01*
X031870Y035030D02*
X031920Y034980D01*
Y034880D01*
X031870Y034830D01*
X031820D01*
X031770Y034880D01*
Y034930D01*
Y034880D01*
X031720Y034830D01*
X031670D01*
X031620Y034880D01*
Y034980D01*
X031670Y035030D01*
X030420Y034780D02*
Y035080D01*
X030570D01*
X030620Y035030D01*
Y034930D01*
X030570Y034880D01*
X030420D01*
X030520D02*
X030620Y034780D01*
X030720Y035080D02*
Y034780D01*
X030870D01*
X030920Y034830D01*
Y034880D01*
X030870Y034930D01*
X030720D01*
X030870D01*
X030920Y034980D01*
Y035030D01*
X030870Y035080D01*
X030720D01*
X031020Y034780D02*
X031120D01*
X031070D01*
Y035080D01*
X031020Y035030D01*
X030620Y032530D02*
X030920D01*
Y032380D01*
X030870Y032330D01*
X030770D01*
X030720Y032380D01*
Y032530D01*
Y032430D02*
X030620Y032330D01*
X030920Y032230D02*
X030620D01*
Y032080D01*
X030670Y032030D01*
X030720D01*
X030770Y032080D01*
Y032230D01*
Y032080D01*
X030820Y032030D01*
X030870D01*
X030920Y032080D01*
Y032230D01*
X030870Y031930D02*
X030920Y031880D01*
Y031780D01*
X030870Y031730D01*
X030670D01*
X030620Y031780D01*
Y031880D01*
X030670Y031930D01*
X030870D01*
X031620Y032530D02*
X031920D01*
Y032380D01*
X031870Y032330D01*
X031770D01*
X031720Y032380D01*
Y032530D01*
Y032430D02*
X031620Y032330D01*
X031920Y032230D02*
X031620D01*
Y032080D01*
X031670Y032030D01*
X031720D01*
X031770Y032080D01*
Y032230D01*
Y032080D01*
X031820Y032030D01*
X031870D01*
X031920Y032080D01*
Y032230D01*
X031620Y031730D02*
Y031930D01*
X031820Y031730D01*
X031870D01*
X031920Y031780D01*
Y031880D01*
X031870Y031930D01*
X032620Y032530D02*
X032920D01*
Y032380D01*
X032870Y032330D01*
X032770D01*
X032720Y032380D01*
Y032530D01*
Y032430D02*
X032620Y032330D01*
X032920Y032230D02*
X032620D01*
Y032080D01*
X032670Y032030D01*
X032720D01*
X032770Y032080D01*
Y032230D01*
Y032080D01*
X032820Y032030D01*
X032870D01*
X032920Y032080D01*
Y032230D01*
X032620Y031780D02*
X032920D01*
X032770Y031930D01*
Y031730D01*
X033670Y032530D02*
X033970D01*
Y032380D01*
X033920Y032330D01*
X033820D01*
X033770Y032380D01*
Y032530D01*
Y032430D02*
X033670Y032330D01*
X033970Y032230D02*
X033670D01*
Y032080D01*
X033720Y032030D01*
X033770D01*
X033820Y032080D01*
Y032230D01*
Y032080D01*
X033870Y032030D01*
X033920D01*
X033970Y032080D01*
Y032230D01*
Y031730D02*
X033920Y031830D01*
X033820Y031930D01*
X033720D01*
X033670Y031880D01*
Y031780D01*
X033720Y031730D01*
X033770D01*
X033820Y031780D01*
Y031930D01*
X024220Y025980D02*
Y026280D01*
X024370D01*
X024420Y026230D01*
Y026130D01*
X024370Y026080D01*
X024220D01*
X024320D02*
X024420Y025980D01*
X024520Y026280D02*
Y025980D01*
X024670D01*
X024720Y026030D01*
Y026080D01*
X024670Y026130D01*
X024520D01*
X024670D01*
X024720Y026180D01*
Y026230D01*
X024670Y026280D01*
X024520D01*
X024820Y025980D02*
X024920D01*
X024870D01*
Y026280D01*
X024820Y026230D01*
X025270Y025980D02*
X025070D01*
X025270Y026180D01*
Y026230D01*
X025220Y026280D01*
X025120D01*
X025070Y026230D01*
X024220Y024980D02*
Y025280D01*
X024370D01*
X024420Y025230D01*
Y025130D01*
X024370Y025080D01*
X024220D01*
X024320D02*
X024420Y024980D01*
X024520Y025280D02*
Y024980D01*
X024670D01*
X024720Y025030D01*
Y025080D01*
X024670Y025130D01*
X024520D01*
X024670D01*
X024720Y025180D01*
Y025230D01*
X024670Y025280D01*
X024520D01*
X024820Y024980D02*
X024920D01*
X024870D01*
Y025280D01*
X024820Y025230D01*
X025220Y024980D02*
Y025280D01*
X025070Y025130D01*
X025270D01*
X027570Y025980D02*
Y026280D01*
X027720D01*
X027770Y026230D01*
Y026130D01*
X027720Y026080D01*
X027570D01*
X027670D02*
X027770Y025980D01*
X027870Y026280D02*
Y025980D01*
X028020D01*
X028070Y026030D01*
Y026080D01*
X028020Y026130D01*
X027870D01*
X028020D01*
X028070Y026180D01*
Y026230D01*
X028020Y026280D01*
X027870D01*
X028170Y025980D02*
X028270D01*
X028220D01*
Y026280D01*
X028170Y026230D01*
X028420D02*
X028470Y026280D01*
X028570D01*
X028620Y026230D01*
Y026180D01*
X028570Y026130D01*
X028520D01*
X028570D01*
X028620Y026080D01*
Y026030D01*
X028570Y025980D01*
X028470D01*
X028420Y026030D01*
X027570Y024980D02*
Y025280D01*
X027720D01*
X027770Y025230D01*
Y025130D01*
X027720Y025080D01*
X027570D01*
X027670D02*
X027770Y024980D01*
X027870Y025280D02*
Y024980D01*
X028020D01*
X028070Y025030D01*
Y025080D01*
X028020Y025130D01*
X027870D01*
X028020D01*
X028070Y025180D01*
Y025230D01*
X028020Y025280D01*
X027870D01*
X028170Y024980D02*
X028270D01*
X028220D01*
Y025280D01*
X028170Y025230D01*
X028620Y025280D02*
X028420D01*
Y025130D01*
X028520Y025180D01*
X028570D01*
X028620Y025130D01*
Y025030D01*
X028570Y024980D01*
X028470D01*
X028420Y025030D01*
X027720Y027180D02*
X027670Y027230D01*
X027570D01*
X027520Y027180D01*
Y026980D01*
X027570Y026930D01*
X027670D01*
X027720Y026980D01*
X027820Y027230D02*
Y026930D01*
Y027080D01*
X027870Y027130D01*
X027970D01*
X028020Y027080D01*
Y026930D01*
X028120D02*
X028220D01*
X028170D01*
Y027230D01*
X028120Y027180D01*
X028370Y026830D02*
Y027130D01*
X028520D01*
X028570Y027080D01*
Y026980D01*
X028520Y026930D01*
X028370D01*
X027720Y027680D02*
X027670Y027730D01*
X027570D01*
X027520Y027680D01*
Y027480D01*
X027570Y027430D01*
X027670D01*
X027720Y027480D01*
X027820Y027730D02*
Y027430D01*
Y027580D01*
X027870Y027630D01*
X027970D01*
X028020Y027580D01*
Y027430D01*
X028120Y027680D02*
X028170Y027730D01*
X028270D01*
X028320Y027680D01*
Y027480D01*
X028270Y027430D01*
X028170D01*
X028120Y027480D01*
Y027680D01*
X028420Y027330D02*
Y027630D01*
X028570D01*
X028620Y027580D01*
Y027480D01*
X028570Y027430D01*
X028420D01*
X024470Y027130D02*
X024420Y027180D01*
X024320D01*
X024270Y027130D01*
Y026930D01*
X024320Y026880D01*
X024420D01*
X024470Y026930D01*
X024570Y027180D02*
Y026880D01*
Y027030D01*
X024620Y027080D01*
X024720D01*
X024770Y027030D01*
Y026880D01*
X024870D02*
X024970D01*
X024920D01*
Y027180D01*
X024870Y027130D01*
X025120Y026880D02*
Y027080D01*
X025270D01*
X025320Y027030D01*
Y026880D01*
X051170Y042930D02*
X051120Y042980D01*
X051020D01*
X050970Y042930D01*
Y042730D01*
X051020Y042680D01*
X051120D01*
X051170Y042730D01*
X051470Y042930D02*
X051420Y042980D01*
X051320D01*
X051270Y042930D01*
Y042880D01*
X051320Y042830D01*
X051420D01*
X051470Y042780D01*
Y042730D01*
X051420Y042680D01*
X051320D01*
X051270Y042730D01*
X051570Y042630D02*
X051770D01*
X051870Y042680D02*
Y042980D01*
X051970Y042880D01*
X052070Y042980D01*
Y042680D01*
X052370Y042930D02*
X052320Y042980D01*
X052220D01*
X052170Y042930D01*
Y042730D01*
X052220Y042680D01*
X052320D01*
X052370Y042730D01*
X052470Y042680D02*
Y042980D01*
X052619D01*
X052669Y042930D01*
Y042830D01*
X052619Y042780D01*
X052470D01*
X047170Y042930D02*
X047120Y042980D01*
X047020D01*
X046970Y042930D01*
Y042730D01*
X047020Y042680D01*
X047120D01*
X047170Y042730D01*
X047470Y042930D02*
X047420Y042980D01*
X047320D01*
X047270Y042930D01*
Y042880D01*
X047320Y042830D01*
X047420D01*
X047470Y042780D01*
Y042730D01*
X047420Y042680D01*
X047320D01*
X047270Y042730D01*
X047570Y042630D02*
X047770D01*
X047870Y042680D02*
Y042980D01*
X047970Y042880D01*
X048070Y042980D01*
Y042680D01*
X048370Y042930D02*
X048320Y042980D01*
X048220D01*
X048170Y042930D01*
Y042730D01*
X048220Y042680D01*
X048320D01*
X048370Y042730D01*
X048470Y042680D02*
Y042980D01*
X048619D01*
X048669Y042930D01*
Y042830D01*
X048619Y042780D01*
X048470D01*
X048020Y041930D02*
X047970Y041980D01*
X047870D01*
X047820Y041930D01*
Y041880D01*
X047870Y041830D01*
X047970D01*
X048020Y041780D01*
Y041730D01*
X047970Y041680D01*
X047870D01*
X047820Y041730D01*
X048320Y041930D02*
X048270Y041980D01*
X048170D01*
X048120Y041930D01*
Y041730D01*
X048170Y041680D01*
X048270D01*
X048320Y041730D01*
X048420Y041980D02*
Y041680D01*
Y041780D01*
X048620Y041980D01*
X048470Y041830D01*
X048620Y041680D01*
X051170Y041930D02*
X051120Y041980D01*
X051020D01*
X050970Y041930D01*
Y041880D01*
X051020Y041830D01*
X051120D01*
X051170Y041780D01*
Y041730D01*
X051120Y041680D01*
X051020D01*
X050970Y041730D01*
X051270Y041980D02*
Y041680D01*
X051420D01*
X051470Y041730D01*
Y041930D01*
X051420Y041980D01*
X051270D01*
X051720D02*
X051620D01*
X051570Y041930D01*
Y041730D01*
X051620Y041680D01*
X051720D01*
X051770Y041730D01*
Y041930D01*
X051720Y041980D01*
D72*
X034960Y049440D02*
X035420D01*
X034960Y048820D02*
Y049440D01*
Y048820D02*
X035420D01*
X035720Y049440D02*
X036180D01*
X035720Y048820D02*
X036180D01*
Y049440D01*
X057260Y034220D02*
Y034840D01*
X057720D01*
X057260Y034220D02*
X057720D01*
X058020Y034840D02*
X058480D01*
Y034220D02*
Y034840D01*
X058020Y034220D02*
X058480D01*
X028430Y028780D02*
Y029240D01*
X027810D02*
X028430D01*
X027810Y028780D02*
Y029240D01*
X028430Y028020D02*
Y028480D01*
X027810Y028020D02*
Y028480D01*
Y028020D02*
X028430D01*
X030043Y023880D02*
Y024193D01*
X030503D01*
X030803D02*
X031263D01*
Y023573D02*
Y024193D01*
X030803Y023573D02*
X031263D01*
X055230Y048830D02*
Y049290D01*
X054610D02*
X055230D01*
X054610Y048830D02*
Y049290D01*
X055230Y048070D02*
Y048530D01*
X054610Y048070D02*
Y048530D01*
Y048070D02*
X055230D01*
X055360Y050370D02*
Y050990D01*
X055820D01*
X055360Y050370D02*
X055820D01*
X056120Y050990D02*
X056580D01*
Y050370D02*
Y050990D01*
X056120Y050370D02*
X056580D01*
X056080Y048830D02*
Y049290D01*
X055460D02*
X056080D01*
X055460Y048830D02*
Y049290D01*
X056080Y048070D02*
Y048530D01*
X055460Y048070D02*
Y048530D01*
Y048070D02*
X056080D01*
X029320Y031190D02*
X029780D01*
Y030570D02*
Y031190D01*
X029320Y030570D02*
X029780D01*
X028560Y031190D02*
X029020D01*
X028560Y030570D02*
X029020D01*
X028560D02*
Y031190D01*
X029310Y031620D02*
X029930D01*
Y032080D01*
X029310Y031620D02*
Y032080D01*
X029930Y032380D02*
Y032840D01*
X029310D02*
X029930D01*
X029310Y032380D02*
Y032840D01*
X048140Y027360D02*
X048300D01*
X048220Y027280D02*
Y027440D01*
X049300Y025100D02*
Y025260D01*
X049220Y025180D02*
X049380D01*
X050000Y030200D02*
Y030360D01*
X049920Y030280D02*
X050080D01*
X051920D02*
X052080D01*
X052000Y030200D02*
Y030360D01*
X048220Y029280D02*
Y029440D01*
X048140Y029360D02*
X048300D01*
X035780Y053070D02*
Y053690D01*
X035320Y053070D02*
X035780D01*
X035320Y053690D02*
X035780D01*
X034560Y053070D02*
X035020D01*
X034560D02*
Y053690D01*
X035020D01*
D73*
X050870Y044930D02*
X051320D01*
X050870Y046080D02*
X051320D01*
Y044930D02*
Y045130D01*
X050420Y045480D02*
Y045530D01*
X051320Y045880D02*
Y046080D01*
X052070Y037730D02*
X052520D01*
X052070Y038880D02*
X052520D01*
Y037730D02*
Y037930D01*
X051620Y038280D02*
Y038330D01*
X052520Y038680D02*
Y038880D01*
X046020Y028830D02*
X046470D01*
X046020Y029980D02*
X046470D01*
Y028830D02*
Y029030D01*
X045570Y029380D02*
Y029430D01*
X046470Y029780D02*
Y029980D01*
X045070Y024230D02*
X045520D01*
X045070Y025380D02*
X045520D01*
Y024230D02*
Y024430D01*
X044620Y024780D02*
Y024830D01*
X045520Y025180D02*
Y025380D01*
X051770Y033730D02*
X052220D01*
X051770Y034880D02*
X052220D01*
Y033730D02*
Y033930D01*
X051320Y034280D02*
Y034330D01*
X052220Y034680D02*
Y034880D01*
X052070Y036080D02*
X052520D01*
X052070Y037230D02*
X052520D01*
Y036080D02*
Y036280D01*
X051620Y036630D02*
Y036680D01*
X052520Y037030D02*
Y037230D01*
X028050Y045720D02*
X028250D01*
X028600Y044820D02*
X028650D01*
X029000Y045720D02*
X029200D01*
X028050Y045270D02*
Y045720D01*
X029200Y045270D02*
Y045720D01*
X030670Y045730D02*
X030870D01*
X031220Y044830D02*
X031270D01*
X031620Y045730D02*
X031820D01*
X030670Y045280D02*
Y045730D01*
X031820Y045280D02*
Y045730D01*
X020070Y051580D02*
X020403D01*
X020736Y051330D02*
X020570Y051497D01*
Y051663D01*
X020736Y051830D01*
X021320Y051747D02*
X021236Y051830D01*
X021070D01*
X020986Y051747D01*
Y051413D01*
X021070Y051330D01*
X021236D01*
X021320Y051413D01*
Y051580D01*
X021153D01*
X021486Y051330D02*
Y051830D01*
X021819Y051330D01*
Y051830D01*
X021986D02*
Y051330D01*
X022236D01*
X022319Y051413D01*
Y051747D01*
X022236Y051830D01*
X021986D01*
X022486Y051330D02*
X022652Y051497D01*
Y051663D01*
X022486Y051830D01*
X020070Y046530D02*
X020537D01*
X020303Y046763D02*
Y046297D01*
D74*
X033397Y029206D02*
X034021Y028582D01*
M02*
