M48
;Layer_Color=9474304
;FILE_FORMAT=2:4
INCH
;TYPE=PLATED
T1F00S00C0.0236
T2F00S00C0.0276
T3F00S00C0.0354
T4F00S00C0.0394
T5F00S00C0.0472
T6F00S00C0.0827
T7F00S00C0.1181
T8F00S00C0.1378
%
T01
X051270Y025980
X052670Y026480
X032342Y025730
X031751
X031270Y026780
Y027980
X031770Y029080
X032370
X031420Y022080
X033720
X032620Y019040
X028820Y022280
X028270Y022330
X029970Y023430
X030620Y027133
X028770Y028310
X028870Y029630
X028270
Y030880
Y031430
X030920Y036430
X027970Y039980
X034570Y033180
X050470Y044530
X051470Y044480
Y046630
X055720Y046580
X054220Y044230
X054320Y048630
X052420Y047680
X044570Y048830
X036470Y049130
X036070Y053630
X039020Y053530
X023570Y047980
T02
X047420Y018880
X051770Y018380
X052820Y022630
X050520Y024680
X051120Y027480
X051170Y028980
X050570Y028480
X045370Y028480
X043870Y025880
X041620Y024380
X042470Y021030
X039670Y020930
X038970Y020180
X046620Y021380
X033870Y027330
X027570Y029530
X024630Y027990
X023778Y028482
X022472Y027988
X021620Y028480
X022620Y030240
X020510Y030890
X021320Y022130
X021870Y032130
X022420Y036330
X020845
X020570Y039330
X020686Y045530
X021670
X023970Y045880
X025545
X033770Y046530
X036370Y039380
X036091Y036986
X034977Y035873
X038520Y040480
X042820Y040330
X045070Y038980
X046320Y037830
X049670
X051170Y037930
Y036280
X050770Y035480
X048470
X054720Y034430
X057620Y041580
X055770Y045530
X055520Y050030
X053920Y050530
Y053530
X050920
X048720Y053146
Y054130
X050920Y050530
X047666Y049276
X046970Y048580
X032520Y047030
T03
X047370Y025480
Y026480
Y027730
Y028730
X053270Y028780
Y027780
X054670Y027980
Y026888
Y025797
Y024705
Y023613
X055670Y024155
Y025247
Y026338
Y027430
X053270Y025730
Y024730
X043470Y020630
X029470Y039230
X028220Y038230
X026220
X026320Y042930
X028620
Y046680
X031270
Y042930
X033570Y043080
Y044480
Y041680
X040270Y041980
Y042980
Y044230
Y045480
Y046480
X039170Y036480
X053520Y036430
Y037430
Y035430
Y034430
X056520
Y035430
X057420
X056520Y036430
Y037430
X057970Y039330
X055770Y040480
X054170Y041830
X053170
X057620Y044430
X057970Y048080
X056270Y049830
X044420Y050780
Y051780
X044170Y053280
X043170
X038120Y052280
Y051280
Y050130
Y049130
X036270Y050080
Y051230
Y052380
X034370Y049080
X031270Y049180
Y050930
Y052680
X029020Y052630
Y053630
Y051630
Y050630
X029620Y049080
X027970
X026320
X026020Y050630
Y051630
Y052630
Y053630
T04
X053420Y016580
Y017580
X054420
Y016580
X042670
Y017580
X041670
Y016580
X033370Y016880
X032370
Y017880
X033370
X036320Y022330
X037320
Y023330
X036320
Y024630
X037320
X038570
X039570
Y025630
X038570
Y026630
Y027630
X039570
Y026630
Y028830
X038570
Y029980
X039570
Y031180
X038570
X042220Y027780
X043220
Y026780
X042220
X026920Y026130
X025920
Y025130
X026920
Y023830
X025920
Y022830
X026920
X027370Y019530
Y018730
X026370
Y019530
X025920Y027430
X026920
Y028430
X025920
X026220Y033430
Y034430
X027220
Y033430
X028220
Y034430
X030770Y034180
Y033180
X029870Y036780
Y037780
X022920Y038530
Y039530
X031770Y034180
Y033180
X032770
Y034180
X033770
Y033180
X035570
X036570
Y034180
X035570
X038570
X039570
Y033180
X038570
Y032180
X039570
X043520Y032380
X044520
Y033380
X043520
X042220Y036030
Y037030
X045770Y042280
Y043280
X044120Y045430
X043120
Y046430
X044120
X049320Y042830
X050320
Y041830
X049320
X053220Y043830
Y044830
X049320Y031280
X048320
X045620Y047980
Y048980
X025070Y054080
X024070
T05
X021570Y023430
Y024430
Y025430
X020920Y040680
Y041680
Y042680
X021670Y048080
Y050080
T06
X024508Y017676
X029248Y017676
T07
X055170Y020880
Y030722
T08
X056972Y017649
X021539
X056972Y053082
X021539
M30
