%FSAX24Y24*%
%MOIN*%
G70*
G01*
G75*
G04 Layer_Physical_Order=1*
G04 Layer_Color=255*
%ADD10C,0.0100*%
%ADD11R,0.0630X0.0512*%
%ADD12R,0.0512X0.0630*%
%ADD13R,0.0400X0.0400*%
%ADD14R,0.0400X0.0400*%
%ADD15R,0.0532X0.0394*%
%ADD16R,0.0374X0.0394*%
G04:AMPARAMS|DCode=17|XSize=86.6mil|YSize=27.6mil|CornerRadius=6.9mil|HoleSize=0mil|Usage=FLASHONLY|Rotation=90.000|XOffset=0mil|YOffset=0mil|HoleType=Round|Shape=RoundedRectangle|*
%AMROUNDEDRECTD17*
21,1,0.0866,0.0138,0,0,90.0*
21,1,0.0728,0.0276,0,0,90.0*
1,1,0.0138,0.0069,0.0364*
1,1,0.0138,0.0069,-0.0364*
1,1,0.0138,-0.0069,-0.0364*
1,1,0.0138,-0.0069,0.0364*
%
%ADD17ROUNDEDRECTD17*%
%ADD18O,0.0276X0.0866*%
G04:AMPARAMS|DCode=19|XSize=59.1mil|YSize=15.7mil|CornerRadius=3.9mil|HoleSize=0mil|Usage=FLASHONLY|Rotation=270.000|XOffset=0mil|YOffset=0mil|HoleType=Round|Shape=RoundedRectangle|*
%AMROUNDEDRECTD19*
21,1,0.0591,0.0079,0,0,270.0*
21,1,0.0512,0.0157,0,0,270.0*
1,1,0.0079,-0.0039,-0.0256*
1,1,0.0079,-0.0039,0.0256*
1,1,0.0079,0.0039,0.0256*
1,1,0.0079,0.0039,-0.0256*
%
%ADD19ROUNDEDRECTD19*%
%ADD20R,0.0600X0.0470*%
%ADD21R,0.0472X0.0591*%
%ADD22R,0.0591X0.0472*%
%ADD23R,0.0600X0.0825*%
%ADD24R,0.0550X0.0650*%
%ADD25R,0.0650X0.0550*%
G04:AMPARAMS|DCode=26|XSize=10.2mil|YSize=82.7mil|CornerRadius=2.6mil|HoleSize=0mil|Usage=FLASHONLY|Rotation=270.000|XOffset=0mil|YOffset=0mil|HoleType=Round|Shape=RoundedRectangle|*
%AMROUNDEDRECTD26*
21,1,0.0102,0.0776,0,0,270.0*
21,1,0.0051,0.0827,0,0,270.0*
1,1,0.0051,-0.0388,-0.0026*
1,1,0.0051,-0.0388,0.0026*
1,1,0.0051,0.0388,0.0026*
1,1,0.0051,0.0388,-0.0026*
%
%ADD26ROUNDEDRECTD26*%
G04:AMPARAMS|DCode=27|XSize=10.2mil|YSize=82.7mil|CornerRadius=2.6mil|HoleSize=0mil|Usage=FLASHONLY|Rotation=0.000|XOffset=0mil|YOffset=0mil|HoleType=Round|Shape=RoundedRectangle|*
%AMROUNDEDRECTD27*
21,1,0.0102,0.0776,0,0,0.0*
21,1,0.0051,0.0827,0,0,0.0*
1,1,0.0051,0.0026,-0.0388*
1,1,0.0051,-0.0026,-0.0388*
1,1,0.0051,-0.0026,0.0388*
1,1,0.0051,0.0026,0.0388*
%
%ADD27ROUNDEDRECTD27*%
%ADD28R,0.0394X0.0394*%
%ADD29R,0.1969X0.0827*%
G04:AMPARAMS|DCode=30|XSize=86.6mil|YSize=27.6mil|CornerRadius=6.9mil|HoleSize=0mil|Usage=FLASHONLY|Rotation=0.000|XOffset=0mil|YOffset=0mil|HoleType=Round|Shape=RoundedRectangle|*
%AMROUNDEDRECTD30*
21,1,0.0866,0.0138,0,0,0.0*
21,1,0.0728,0.0276,0,0,0.0*
1,1,0.0138,0.0364,-0.0069*
1,1,0.0138,-0.0364,-0.0069*
1,1,0.0138,-0.0364,0.0069*
1,1,0.0138,0.0364,0.0069*
%
%ADD30ROUNDEDRECTD30*%
%ADD31O,0.0866X0.0276*%
%ADD32R,0.0394X0.0374*%
%ADD33R,0.0394X0.0532*%
%ADD34C,0.1000*%
%ADD35C,0.0400*%
%ADD36C,0.0500*%
%ADD37C,0.0250*%
%ADD38C,0.0300*%
%ADD39C,0.0200*%
%ADD40C,0.0600*%
%ADD41C,0.0150*%
%ADD42C,0.0180*%
%ADD43C,0.0650*%
%ADD44C,0.0800*%
%ADD45C,0.0700*%
%ADD46C,0.0450*%
%ADD47C,0.0550*%
%ADD48C,0.0350*%
%ADD49C,0.0110*%
%ADD50P,0.0682X8X22.5*%
%ADD51C,0.0630*%
%ADD52P,0.0671X8X292.5*%
%ADD53C,0.0620*%
%ADD54C,0.1967*%
%ADD55C,0.0500*%
%ADD56C,0.0591*%
%ADD57R,0.0591X0.0591*%
%ADD58P,0.0649X8X112.5*%
%ADD59C,0.0600*%
%ADD60C,0.0709*%
%ADD61P,0.0682X8X112.5*%
%ADD62C,0.0787*%
%ADD63R,0.0787X0.0787*%
%ADD64P,0.0649X8X202.5*%
%ADD65C,0.1614*%
%ADD66C,0.0610*%
%ADD67C,0.1181*%
%ADD68C,0.1181*%
%ADD69C,0.0450*%
D10*
X034529Y021639D02*
G03*
X034670Y021580I000141J000141D01*
G01*
X034528Y021639D02*
G03*
X034670Y021580I000142J000141D01*
G01*
X033442Y022393D02*
G03*
X033362Y022587I-000275J000000D01*
G01*
X033442Y022393D02*
G03*
X033361Y022588I-000275J000000D01*
G01*
X035864Y019734D02*
G03*
X035776Y019674I000106J-000254D01*
G01*
X035864Y019734D02*
G03*
X035775Y019674I000106J-000254D01*
G01*
X032892Y019680D02*
G03*
X032973Y019486I000275J000000D01*
G01*
X032892Y019680D02*
G03*
X032973Y019485I000275J000000D01*
G01*
X033272Y019186D02*
G03*
X033414Y019110I000195J000194D01*
G01*
X033273Y019186D02*
G03*
X033414Y019110I000194J000194D01*
G01*
X031758Y023002D02*
G03*
X031805Y022877I000190J000000D01*
G01*
X031758Y023002D02*
G03*
X031805Y022877I000190J000000D01*
G01*
D02*
G03*
X031883Y022693I000265J000003D01*
G01*
X032617Y019486D02*
G03*
X032698Y019680I-000194J000194D01*
G01*
X032617Y019485D02*
G03*
X032698Y019680I-000194J000195D01*
G01*
X032176Y019110D02*
G03*
X032318Y019186I-000053J000270D01*
G01*
X032176Y019110D02*
G03*
X032317Y019186I-000053J000270D01*
G01*
X054385Y053530D02*
G03*
X054283Y053820I-000465J000000D01*
G01*
X053557D02*
G03*
X054385Y053530I000363J-000290D01*
G01*
Y050530D02*
G03*
X053695Y050123I-000465J000000D01*
G01*
X054145D02*
G03*
X054385Y050530I-000225J000407D01*
G01*
X053695Y048380D02*
G03*
X053798Y048191I000225J000000D01*
G01*
X051385Y053530D02*
G03*
X051283Y053820I-000465J000000D01*
G01*
X050557D02*
G03*
X051385Y053530I000363J-000290D01*
G01*
X051374Y050430D02*
G03*
X051385Y050530I-000454J000100D01*
G01*
D02*
G03*
X050466Y050430I-000465J000000D01*
G01*
X035148Y025952D02*
X035970Y025130D01*
X033870Y023830D02*
X037770D01*
X033920Y024380D02*
X036070D01*
X033870Y024130D02*
X036820D01*
X036270Y030680D02*
X038270Y032680D01*
X036270Y030080D02*
Y030680D01*
X035470Y030380D02*
X037770Y032680D01*
Y032780D01*
X033820Y030380D02*
X035470D01*
X037520Y032780D02*
Y033180D01*
X035320Y030580D02*
X037520Y032780D01*
X033720Y030580D02*
X035320D01*
X037320Y032880D02*
Y033580D01*
X035220Y030780D02*
X037320Y032880D01*
X033620Y030780D02*
X035220D01*
X037070Y032930D02*
Y033680D01*
X035120Y030980D02*
X037070Y032930D01*
X033520Y030980D02*
X035120D01*
X033220Y031580D02*
X033820D01*
X036070Y033030D02*
Y033680D01*
X034420Y031380D02*
X036070Y033030D01*
X033320Y031380D02*
X034420D01*
X034570Y031180D02*
X036570Y033180D01*
X033420Y031180D02*
X034570D01*
X035970Y025130D02*
X039070D01*
X032342Y031002D02*
X034520Y033180D01*
X034570D01*
X032342Y029830D02*
Y031002D01*
X032539Y030899D02*
X033220Y031580D01*
X032539Y029830D02*
Y030899D01*
X032736Y030796D02*
X033320Y031380D01*
X032736Y029830D02*
Y030796D01*
X032933Y030693D02*
X033420Y031180D01*
X032933Y029830D02*
Y030693D01*
X033129Y030589D02*
X033520Y030980D01*
X033129Y029830D02*
Y030589D01*
X038270Y032680D02*
X039070D01*
X035301Y028511D02*
X036820Y030030D01*
X035404Y028314D02*
X038270Y031180D01*
X038570D01*
X036070Y024380D02*
X036320Y024630D01*
X033720Y024580D02*
Y025027D01*
X033523Y024477D02*
Y025027D01*
Y024477D02*
X033870Y024130D01*
X036820D02*
X037320Y024630D01*
X033920Y024380D02*
X034820D01*
X033720Y024580D02*
X033920Y024380D01*
X033326Y024374D02*
Y025027D01*
Y024374D02*
X033870Y023830D01*
X034070Y023330D02*
X036320D01*
X033129Y024271D02*
Y025027D01*
Y024271D02*
X034070Y023330D01*
X032933Y024167D02*
Y025027D01*
Y024167D02*
X034270Y022830D01*
X036820D01*
X037320Y023330D01*
X032736Y024014D02*
Y025027D01*
Y024014D02*
X034420Y022330D01*
X036320D01*
X032539Y023911D02*
X034670Y021780D01*
X036770D01*
X037320Y022330D01*
X027017Y027527D02*
X029842D01*
X030767Y024577D02*
Y025027D01*
X030670Y024480D02*
X030767Y024577D01*
X030764Y024280D02*
X030964Y024480D01*
Y025027D01*
X031358Y023368D02*
Y025027D01*
X031555Y023265D02*
Y025027D01*
X032539Y023911D02*
Y025027D01*
X026370Y019530D02*
Y020030D01*
X026770Y020430D01*
X028420D01*
X031358Y023368D01*
X026370Y018730D02*
X026520D01*
X026870Y019080D01*
Y019980D01*
X027070Y020180D01*
X028470D01*
X031555Y023265D01*
X028690Y028930D02*
X029109Y028511D01*
X025920Y027430D02*
X026420Y026930D01*
X026920Y027430D02*
X027017Y027527D01*
X027396Y027724D02*
X029842D01*
X027190Y027930D02*
X027396Y027724D01*
X026420Y027930D02*
X027190D01*
X025920Y028430D02*
X026420Y027930D01*
X026920Y028430D02*
X027150D01*
X027659Y027921D01*
X029842D01*
X029385Y028905D02*
X029842D01*
X028963Y028117D02*
X029842D01*
X028770Y028310D02*
X028963Y028117D01*
X028774Y028314D02*
X029842D01*
X028770Y028310D02*
X028774Y028314D01*
X028120Y028330D02*
X028750D01*
X028770Y028310D01*
X028120Y028930D02*
X028690D01*
X028870Y029420D02*
Y029630D01*
Y029420D02*
X029385Y028905D01*
X031751Y025027D02*
Y025730D01*
X032342Y025027D02*
Y025730D01*
X031948Y029258D02*
Y029830D01*
X031770Y029080D02*
X031948Y029258D01*
X032145Y029305D02*
Y029830D01*
Y029305D02*
X032370Y029080D01*
X029842Y027133D02*
X030620D01*
X030620Y027133D01*
X031161Y024371D02*
Y025027D01*
X030953Y023883D02*
Y024163D01*
X031161Y024371D01*
X029320Y024480D02*
X030670D01*
X028370Y023530D02*
X029320Y024480D01*
X026920Y023830D02*
X026970D01*
X026920Y022830D02*
X027420Y023330D01*
X025920Y026130D02*
X026420Y026630D01*
X025920Y025130D02*
X026420Y025630D01*
X027670D01*
X028583Y026543D01*
X029842D01*
X026920Y023980D02*
X029089Y026149D01*
X026920Y023830D02*
Y023980D01*
X029089Y026149D02*
X029842D01*
X029342Y025952D02*
X029842D01*
X027420Y024030D02*
X029342Y025952D01*
X027420Y023330D02*
Y024030D01*
X028270Y022330D02*
Y022680D01*
X028370Y022780D01*
Y023530D01*
X029270Y024030D02*
X029520Y024280D01*
X029270Y023630D02*
Y024030D01*
X029520Y024280D02*
X030764D01*
X029109Y028511D02*
X029842D01*
X029292Y028708D02*
X029842D01*
X028685Y029215D02*
X028785D01*
X029292Y028708D01*
X028270Y029630D02*
X028685Y029215D01*
X030964Y032074D02*
X031270Y032380D01*
X030964Y029830D02*
Y032074D01*
X033720Y029830D02*
Y030280D01*
X033820Y030380D01*
X033523Y029830D02*
Y030383D01*
X033720Y030580D01*
X033326Y029830D02*
Y030486D01*
X033620Y030780D01*
X030767Y033177D02*
X030770Y033180D01*
X030767Y029830D02*
Y033177D01*
X030770Y034180D02*
X031270Y033680D01*
Y032380D02*
Y033680D01*
X031770Y032430D02*
Y033180D01*
X031161Y031821D02*
X031770Y032430D01*
X031161Y029830D02*
Y031821D01*
X031358Y031568D02*
X032270Y032480D01*
X031358Y029830D02*
Y031568D01*
X031555Y031365D02*
X032770Y032580D01*
X031555Y029830D02*
Y031365D01*
X031751Y031212D02*
X033270Y032730D01*
X031751Y029830D02*
Y031212D01*
X032770Y034180D02*
X033270Y033680D01*
Y032730D02*
Y033680D01*
X031770Y034180D02*
X032270Y033680D01*
Y032480D02*
Y033680D01*
X032770Y032580D02*
Y033180D01*
X033870Y027330D02*
X034645D01*
X033870Y027330D02*
X033870Y027330D01*
X034645Y025952D02*
X035148D01*
X034645Y026149D02*
X035301D01*
X035820Y025630D01*
X038570D01*
X034645Y026346D02*
X035504D01*
X035720Y026130D01*
X039070D01*
X039570Y025630D01*
X034645Y026543D02*
X037283D01*
X037370Y026630D01*
X038570D01*
X034645Y026739D02*
X036679D01*
X037070Y027130D01*
X039070D01*
X039570Y026630D01*
X034645Y026936D02*
X036476D01*
X037170Y027630D01*
X038570D01*
X034645Y027133D02*
X036373D01*
X037370Y028130D01*
X039070D01*
X039570Y027630D01*
X034645Y027527D02*
X036317D01*
X037620Y028830D01*
X038570D01*
X034645Y027724D02*
X036064D01*
X037720Y029380D01*
X038970D01*
X039570Y029980D01*
X034645Y027921D02*
X035761D01*
X037820Y029980D01*
X038570D01*
X039070Y033680D02*
X039570Y034180D01*
X039070Y032680D02*
X039570Y033180D01*
X038020Y033680D02*
X039070D01*
X035570Y034180D02*
X036070Y033680D01*
X036570Y034180D02*
X037070Y033680D01*
X037920Y034180D02*
X038570D01*
X037320Y033580D02*
X037920Y034180D01*
X037520Y033180D02*
X038020Y033680D01*
X037770Y032780D02*
X038170Y033180D01*
X038570D01*
X038470Y032180D02*
X038570D01*
X039220Y031680D02*
X039570Y032030D01*
Y032180D01*
X038320Y031680D02*
X039220D01*
X038970Y030580D02*
X039570Y031180D01*
X034645Y028905D02*
X035095D01*
X036270Y030080D01*
X034645Y028708D02*
X035198D01*
X036520Y030030D02*
Y030230D01*
X035198Y028708D02*
X036520Y030030D01*
Y030230D02*
X038470Y032180D01*
X034645Y028511D02*
X035301D01*
X036820Y030030D02*
Y030180D01*
X038320Y031680D01*
X034645Y028314D02*
X035404D01*
X034645Y028117D02*
X035507D01*
X037970Y030580D01*
X038970D01*
X039070Y025130D02*
X039570Y024630D01*
X037770Y023830D02*
X038570Y024630D01*
X026920Y025130D02*
X027620D01*
X028836Y026346D01*
X029842D01*
X028279Y026739D02*
X029842D01*
X026920Y026130D02*
X027670D01*
X028279Y026739D01*
X026420Y026630D02*
X027720D01*
X028026Y026936D01*
X029842D01*
X026420Y026930D02*
X027520D01*
X027920Y027330D01*
X029842D01*
X032145Y023415D02*
Y025027D01*
Y023415D02*
X032320Y023240D01*
X031948Y023002D02*
Y025027D01*
Y023002D02*
X032070Y022880D01*
X033820Y031580D02*
X033979Y031739D01*
X035840Y021443D02*
Y021580D01*
X035760Y021443D02*
Y021580D01*
X035920Y021443D02*
Y021580D01*
X034670D02*
X036070D01*
X035600Y021443D02*
Y021580D01*
X035520Y021443D02*
Y021580D01*
X035680Y021443D02*
Y021580D01*
X035360Y021443D02*
Y021580D01*
X034960Y021443D02*
Y021580D01*
X035440Y021443D02*
Y021580D01*
X034720Y021443D02*
Y021580D01*
X034640Y021443D02*
Y021582D01*
X034880Y021443D02*
Y021580D01*
X033442Y021680D02*
X034487D01*
X032987Y023180D02*
X034528Y021639D01*
X033442Y021600D02*
X034583D01*
X033442Y021840D02*
X034327D01*
X033442Y021920D02*
X034247D01*
X033442Y021760D02*
X034407D01*
X034560Y021443D02*
Y021613D01*
X034400Y021443D02*
Y021767D01*
X034320Y021443D02*
Y021847D01*
X034480Y021443D02*
Y021687D01*
X035954Y021120D02*
X036070D01*
X035954Y021200D02*
X036070D01*
X035954Y020960D02*
X036070D01*
X035954Y021040D02*
X036070D01*
X035954Y021360D02*
X036070D01*
X035954Y021440D02*
X036070D01*
X035954Y021280D02*
X036070D01*
X035954Y020560D02*
X036070D01*
X035954Y020880D02*
X036070D01*
X035954Y020480D02*
X036070D01*
X035954Y020400D02*
X036070D01*
X035954Y020317D02*
Y021443D01*
Y020320D02*
X036070D01*
X035280Y021443D02*
Y021580D01*
X033442Y021520D02*
X036070D01*
X033686Y021443D02*
X035954D01*
X035120D02*
Y021580D01*
X035040Y021443D02*
Y021580D01*
X035200Y021443D02*
Y021580D01*
X035954Y020720D02*
X036070D01*
X035954Y020800D02*
X036070D01*
X035954Y020640D02*
X036070D01*
X034800Y021443D02*
Y021580D01*
X033686Y020317D02*
X035954D01*
X033442Y020240D02*
X036070D01*
X033386Y022560D02*
X033607D01*
X033309Y022640D02*
X033527D01*
X033442Y022400D02*
X033767D01*
X033428Y022480D02*
X033687D01*
X033440Y022428D02*
Y022727D01*
X033360Y022589D02*
Y022807D01*
X033680Y021155D02*
Y022487D01*
X033600Y021155D02*
Y022567D01*
X033760Y021443D02*
Y022407D01*
X033520Y021155D02*
Y022647D01*
X033442Y021155D02*
Y022393D01*
X032909Y023040D02*
X033127D01*
X032829Y023120D02*
X033047D01*
X032989Y022960D02*
X033207D01*
X032960Y022989D02*
Y023180D01*
X032880Y023069D02*
Y023180D01*
X033040Y022909D02*
Y023127D01*
X033149Y022800D02*
X033367D01*
X033069Y022880D02*
X033287D01*
X033229Y022720D02*
X033447D01*
X033200Y022749D02*
Y022967D01*
X033120Y022829D02*
Y023047D01*
X033280Y022669D02*
Y022887D01*
X034080Y021443D02*
Y022087D01*
X033442Y022080D02*
X034087D01*
X033442Y022000D02*
X034167D01*
X033442Y022240D02*
X033927D01*
X033442Y022320D02*
X033847D01*
X034000Y021443D02*
Y022167D01*
X034160Y021443D02*
Y022007D01*
X033920Y021443D02*
Y022247D01*
X034240Y021443D02*
Y021927D01*
X033840Y021443D02*
Y022327D01*
X033686Y021155D02*
Y021443D01*
Y020317D02*
Y020605D01*
X033442Y021440D02*
X033686D01*
X033442Y022160D02*
X034007D01*
X033442Y021360D02*
X033686D01*
X033442Y021200D02*
X033686D01*
X033442Y021280D02*
X033686D01*
X033442Y021155D02*
X033686D01*
X033442Y020400D02*
X033686D01*
X033442Y020480D02*
X033686D01*
X033442Y020320D02*
X033686D01*
X033442Y020605D02*
X033686D01*
X032892Y020880D02*
Y022279D01*
X033442Y020560D02*
X033686D01*
X036070Y019945D02*
Y021580D01*
X036000Y019945D02*
Y021580D01*
X035920Y019945D02*
Y020317D01*
X035864Y019945D02*
X036070D01*
X035840Y019722D02*
Y020317D01*
X035760Y019659D02*
Y020317D01*
X035864Y019734D02*
Y019945D01*
X035600Y019499D02*
Y020317D01*
X035520Y019419D02*
Y020317D01*
X035680Y019579D02*
Y020317D01*
X035360Y019259D02*
Y020317D01*
X035280Y019179D02*
Y020317D01*
X035440Y019339D02*
Y020317D01*
X033442Y020080D02*
X036070D01*
X033442Y020160D02*
X036070D01*
X033442Y020000D02*
X036070D01*
X035040Y019845D02*
Y020317D01*
X034960Y019845D02*
Y020317D01*
X033442Y019920D02*
X035864D01*
X035200Y019099D02*
Y020317D01*
X035120Y019019D02*
Y020317D01*
X035076Y018975D02*
Y019845D01*
X034800D02*
Y020317D01*
X034720Y019845D02*
Y020317D01*
X034880Y019845D02*
Y020317D01*
X035076Y019760D02*
X035864D01*
X035076Y019840D02*
X035864D01*
X035076Y019680D02*
X035781D01*
X035076Y019600D02*
X035701D01*
X035076Y019520D02*
X035621D01*
X035076Y018975D02*
X035775Y019674D01*
X035076Y019440D02*
X035541D01*
X035076Y019280D02*
X035381D01*
X035076Y019360D02*
X035461D01*
X035076Y019120D02*
X035221D01*
X034670Y019380D02*
X035026D01*
X034264Y019845D02*
X035076D01*
Y019200D02*
X035301D01*
X034670Y018965D02*
Y019380D01*
Y019795D01*
X034314Y019380D02*
X034670D01*
X034880Y018779D02*
Y018915D01*
X034264D02*
X035016D01*
X034831Y018730D02*
X035016Y018915D01*
X034720Y018730D02*
Y018915D01*
X034640Y018730D02*
Y018915D01*
X034800Y018730D02*
Y018915D01*
X034480Y019845D02*
Y020317D01*
X034400Y019845D02*
Y020317D01*
X034640Y019845D02*
Y020317D01*
X034560Y019845D02*
Y020317D01*
X034000Y019845D02*
Y020317D01*
X033920Y019845D02*
Y020317D01*
X034320Y019845D02*
Y020317D01*
X034264Y018915D02*
Y019845D01*
X034240Y018730D02*
Y020317D01*
X034226Y018915D02*
Y019845D01*
X034080D02*
Y020317D01*
X033840Y019845D02*
Y020317D01*
X034160Y019845D02*
Y020317D01*
X033760Y019845D02*
Y020317D01*
X033680Y019845D02*
Y020605D01*
X033442Y019845D02*
X034226D01*
X033520D02*
Y020605D01*
X033442Y019845D02*
Y020605D01*
X033600Y019845D02*
Y020605D01*
X032960Y018730D02*
Y019499D01*
X032880Y018730D02*
Y022291D01*
X032800Y018730D02*
Y022371D01*
X032892Y019680D02*
Y020880D01*
X033920Y018730D02*
Y018915D01*
X033840Y018730D02*
Y018915D01*
X034000Y018730D02*
Y018915D01*
X033680Y018730D02*
Y018915D01*
X033600Y018730D02*
Y018915D01*
X033760Y018730D02*
Y018915D01*
X034480Y018730D02*
Y018915D01*
X034400Y018730D02*
Y018915D01*
X034560Y018730D02*
Y018915D01*
X034160Y018730D02*
Y018915D01*
X034080Y018730D02*
Y018915D01*
X034320Y018730D02*
Y018915D01*
X033520Y018730D02*
Y018915D01*
X033414D02*
X034226D01*
X032973Y019485D02*
X033272Y019186D01*
X033414Y018915D02*
Y019110D01*
X033360Y018730D02*
Y019127D01*
X033280Y018730D02*
Y019179D01*
X033440Y018730D02*
Y018915D01*
X033120Y018730D02*
Y019338D01*
X033040Y018730D02*
Y019418D01*
X033200Y018730D02*
Y019258D01*
X032769Y023180D02*
X033361Y022588D01*
X032769Y023180D02*
X032987D01*
X032698Y022160D02*
X032892D01*
X032698Y022473D02*
X032892Y022279D01*
X032698Y022240D02*
X032892D01*
X032698Y022320D02*
X032851D01*
X032698Y022080D02*
X032892D01*
X032698Y021920D02*
X032892D01*
X032698Y022000D02*
X032892D01*
X032698Y021760D02*
X032892D01*
X032698Y021680D02*
X032892D01*
X032698Y020880D02*
Y022473D01*
Y021600D02*
X032892D01*
X031883Y022693D02*
X032148Y022427D01*
X030973Y022400D02*
X032148D01*
X032698Y021840D02*
X032892D01*
X030893Y022320D02*
X032148D01*
X030493Y021920D02*
X032148D01*
X030413Y021840D02*
X032148D01*
X030333Y021760D02*
X032148D01*
X030253Y021680D02*
X032148D01*
X032698Y021520D02*
X032892D01*
X032148Y021443D02*
Y022427D01*
X030173Y021600D02*
X032148D01*
X030093Y021520D02*
X032148D01*
X032698Y021120D02*
X032892D01*
X032698Y021200D02*
X032892D01*
X032698Y021040D02*
X032892D01*
X032698Y021360D02*
X032892D01*
X032698Y021440D02*
X032892D01*
X032698Y021280D02*
X032892D01*
X032698Y020640D02*
X032892D01*
X032698Y020720D02*
X032892D01*
X032698Y020560D02*
X032892D01*
X032698Y020880D02*
X032892D01*
X032698Y020960D02*
X032892D01*
X032698Y020800D02*
X032892D01*
X032698Y020400D02*
X032892D01*
X032698Y020480D02*
X032892D01*
X032698Y020320D02*
X032892D01*
X032698Y020240D02*
X032892D01*
X030064Y021443D02*
X032148D01*
X029970Y020240D02*
X032148D01*
X032698Y020080D02*
X032892D01*
X032698Y020160D02*
X032892D01*
X032698Y020000D02*
X032892D01*
X029970Y019920D02*
X032148D01*
X029970Y020000D02*
X032148D01*
X032698Y019920D02*
X032892D01*
X031920Y021443D02*
Y022655D01*
X031758Y023002D02*
Y023180D01*
X031613Y023040D02*
X031758D01*
X031533Y022960D02*
X031763D01*
X032000Y021443D02*
Y022575D01*
X031840Y021443D02*
Y022748D01*
X032080Y021443D02*
Y022495D01*
X031680Y021443D02*
Y023107D01*
X031600Y021443D02*
Y023027D01*
X031760Y021443D02*
Y022977D01*
X031293Y022720D02*
X031859D01*
X031213Y022640D02*
X031935D01*
X031133Y022560D02*
X032015D01*
X031453Y022880D02*
X031802D01*
X031373Y022800D02*
X031817D01*
X031120Y021443D02*
Y022547D01*
X031520Y021443D02*
Y022947D01*
X029970Y021397D02*
X031696Y023123D01*
X031440Y021443D02*
Y022867D01*
X031360Y021443D02*
Y022787D01*
X031280Y021443D02*
Y022707D01*
X031200Y021443D02*
Y022627D01*
X030813Y022240D02*
X032148D01*
X030733Y022160D02*
X032148D01*
X030653Y022080D02*
X032148D01*
X031053Y022480D02*
X032095D01*
X031040Y021443D02*
Y022467D01*
X030960Y021443D02*
Y022387D01*
X031760Y019845D02*
Y020317D01*
X030960Y019845D02*
Y020317D01*
X031840Y019845D02*
Y020317D01*
X030880Y021443D02*
Y022307D01*
X030800Y021443D02*
Y022227D01*
X030720Y021443D02*
Y022147D01*
X030640Y021443D02*
Y022067D01*
X030573Y022000D02*
X032148D01*
X030560Y021443D02*
Y021987D01*
X030480Y021443D02*
Y021907D01*
X030400Y021443D02*
Y021827D01*
X030320Y021443D02*
Y021747D01*
X030064Y020317D02*
X032148D01*
X029970Y020160D02*
X032148D01*
X029970Y020080D02*
X032148D01*
X030240Y021443D02*
Y021667D01*
X030160Y021443D02*
Y021587D01*
X030064Y020317D02*
Y021443D01*
X032698Y019680D02*
X032892D01*
X032698Y019760D02*
X032892D01*
X032686Y019600D02*
X032904D01*
X032646Y019520D02*
X032944D01*
X032698Y019840D02*
X032892D01*
X032698Y019680D02*
Y020880D01*
X032720Y018730D02*
Y022451D01*
X032572Y019440D02*
X033018D01*
X032492Y019360D02*
X033098D01*
X032640Y018730D02*
Y019511D01*
X032560Y018730D02*
Y019428D01*
X032080Y019845D02*
Y020317D01*
X032000Y019845D02*
Y020317D01*
X032148Y019845D02*
Y020317D01*
X031680Y019845D02*
Y020317D01*
X031440Y019845D02*
Y020317D01*
X031920Y019845D02*
Y020317D01*
X032480Y018730D02*
Y019348D01*
X032318Y019186D02*
X032617Y019485D01*
X032412Y019280D02*
X033178D01*
X031600Y019845D02*
Y020317D01*
X031520Y019845D02*
Y020317D01*
X031364Y019845D02*
X032148D01*
X032212Y019120D02*
X033378D01*
X032176Y019040D02*
X033414D01*
X032176Y018960D02*
X033414D01*
X032332Y019200D02*
X033258D01*
X032400Y018730D02*
Y019268D01*
X032320Y018730D02*
Y019188D01*
X032240Y018730D02*
Y019131D01*
X032176Y018915D02*
Y019110D01*
X032160Y018730D02*
Y018915D01*
X032080Y018730D02*
Y018915D01*
X031364D02*
X032176D01*
X029970Y018880D02*
X034981D01*
X029970Y018800D02*
X034901D01*
X031840Y018730D02*
Y018915D01*
X031760Y018730D02*
Y018915D01*
X032000Y018730D02*
Y018915D01*
X031920Y018730D02*
Y018915D01*
X031680Y018730D02*
Y018915D01*
X029970Y018730D02*
X034831D01*
X031520D02*
Y018915D01*
X031440Y018730D02*
Y018915D01*
X031600Y018730D02*
Y018915D01*
X031120Y019845D02*
Y020317D01*
X031040Y019845D02*
Y020317D01*
X031280Y019845D02*
Y020317D01*
X031200Y019845D02*
Y020317D01*
X030640Y019845D02*
Y020317D01*
X030560Y019845D02*
Y020317D01*
X030880Y019845D02*
Y020317D01*
X031364Y018915D02*
Y019845D01*
X031360Y018730D02*
Y020317D01*
X031326Y018915D02*
Y019845D01*
X030800D02*
Y020317D01*
X030720Y019845D02*
Y020317D01*
X030920Y019380D02*
Y019795D01*
X030514Y019845D02*
X031326D01*
X029970Y019840D02*
X030514D01*
X029970Y019760D02*
X030514D01*
X030400Y018730D02*
Y020317D01*
X030320Y018730D02*
Y020317D01*
X030514Y018915D02*
Y019845D01*
X030240Y018730D02*
Y020317D01*
X030160Y018730D02*
Y020317D01*
X030480Y018730D02*
Y020317D01*
X030000Y018730D02*
Y021427D01*
X029970Y018730D02*
Y021397D01*
X030080Y018730D02*
Y020317D01*
X031280Y018730D02*
Y018915D01*
X030920Y019380D02*
X031276D01*
X031120Y018730D02*
Y018915D01*
X030920Y018965D02*
Y019380D01*
X030564D02*
X030920D01*
X031040Y018730D02*
Y018915D01*
X030960Y018730D02*
Y018915D01*
X030880Y018730D02*
Y018915D01*
X031200Y018730D02*
Y018915D01*
X030720Y018730D02*
Y018915D01*
X030640Y018730D02*
Y018915D01*
X030800Y018730D02*
Y018915D01*
X029970Y019360D02*
X030514D01*
X029970Y019440D02*
X030514D01*
X029970Y019280D02*
X030514D01*
X029970Y019600D02*
X030514D01*
X029970Y019680D02*
X030514D01*
X029970Y019520D02*
X030514D01*
X030560Y018730D02*
Y018915D01*
X029970Y019120D02*
X030514D01*
Y018915D02*
X031326D01*
X029970Y019040D02*
X030514D01*
X029970Y019200D02*
X030514D01*
X029970Y018960D02*
X030514D01*
X054360Y053680D02*
X054670D01*
X054380Y053600D02*
X054670D01*
X054544Y053820D02*
X054670Y053694D01*
X054324Y053760D02*
X054604D01*
X054353Y053360D02*
X054670D01*
X054344Y050720D02*
X054670D01*
X054385Y053520D02*
X054670D01*
X054376Y053440D02*
X054670D01*
X054248Y053200D02*
X054670D01*
X054139Y053120D02*
X054670D01*
X054283Y053820D02*
X054544D01*
X054312Y053280D02*
X054670D01*
X054226Y050880D02*
X054670D01*
X054299Y050800D02*
X054670D01*
X054097Y050960D02*
X054670D01*
X054382Y050480D02*
X054670D01*
X054366Y050400D02*
X054670D01*
X054372Y050640D02*
X054670D01*
X054384Y050560D02*
X054670D01*
X054283Y050240D02*
X054670D01*
X054202Y050160D02*
X054670D01*
X054335Y050320D02*
X054670D01*
X054145Y049920D02*
X054670D01*
X054145Y049840D02*
X054670D01*
X054145Y050080D02*
X054670D01*
X054145Y050000D02*
X054670D01*
X054145Y049680D02*
X054670D01*
X054145Y049600D02*
X054670D01*
X054145Y049760D02*
X054670D01*
X053920Y053530D02*
X054335D01*
X054080Y050967D02*
Y053093D01*
X054000Y050988D02*
Y053072D01*
X054320Y050767D02*
Y053293D01*
X054240Y050867D02*
Y053193D01*
X054160Y050928D02*
Y053132D01*
X053505Y053530D02*
X053920D01*
Y053115D02*
Y053530D01*
X053760Y050967D02*
Y053093D01*
X053600Y050867D02*
Y053193D01*
X053680Y050928D02*
Y053132D01*
X053520Y050767D02*
Y053293D01*
X053840Y050988D02*
Y053072D01*
X053920Y050995D02*
Y053065D01*
X051970Y050400D02*
X053474D01*
X051970Y050320D02*
X053505D01*
X051970Y050240D02*
X053557D01*
X051970Y050000D02*
X053695D01*
X051970Y049920D02*
X053695D01*
X051970Y050160D02*
X053638D01*
X051970Y050080D02*
X053695D01*
X051970Y049760D02*
X053695D01*
X051970Y049680D02*
X053695D01*
X051970Y049840D02*
X053695D01*
X054560Y049220D02*
Y053804D01*
X054670Y049330D02*
Y053694D01*
X054400Y049060D02*
Y053820D01*
X054480Y049140D02*
Y053820D01*
X054320Y048980D02*
Y050293D01*
X054240Y048980D02*
Y050193D01*
X054160Y048980D02*
Y050132D01*
X054145Y049520D02*
X054670D01*
X054145Y049440D02*
X054670D01*
X051970Y049600D02*
X053695D01*
X051970Y049520D02*
X053695D01*
Y049130D02*
Y050123D01*
X054145Y049130D02*
Y050123D01*
X051970Y049440D02*
X053695D01*
X054145Y049360D02*
X054670D01*
X054145Y049200D02*
X054540D01*
X054145Y049120D02*
X054460D01*
X054145Y049040D02*
X054380D01*
X054320Y048980D02*
X054570Y049230D01*
X054145Y048980D02*
X054320D01*
X054145D02*
Y049130D01*
X051970Y048880D02*
X053695D01*
X051970Y048320D02*
X053703D01*
X051970Y049360D02*
X053695D01*
X051970Y048960D02*
X053695D01*
X051970Y048130D02*
X053859D01*
X051970Y048240D02*
X053744D01*
X053120Y048130D02*
Y053820D01*
X053200Y048130D02*
Y053820D01*
X052960Y048130D02*
Y053820D01*
X053040Y048130D02*
Y053820D01*
X053360Y048130D02*
Y053820D01*
X053440Y048130D02*
Y053820D01*
X053280Y048130D02*
Y053820D01*
X052160Y048130D02*
Y053820D01*
X052240Y048130D02*
Y053820D01*
X052000Y048130D02*
Y053820D01*
X052080Y048130D02*
Y053820D01*
X052800Y048130D02*
Y053820D01*
X052880Y048130D02*
Y053820D01*
X052720Y048130D02*
Y053820D01*
X053680Y048130D02*
Y050132D01*
X053695Y048380D02*
Y049030D01*
X053520Y048130D02*
Y050293D01*
X053600Y048130D02*
Y050193D01*
X052560Y048130D02*
Y053820D01*
X052640Y048130D02*
Y053820D01*
X052480Y048130D02*
Y053820D01*
X051970Y048800D02*
X053695D01*
X051970Y048720D02*
X053695D01*
X051970Y049280D02*
X053695D01*
X051970Y049200D02*
X053695D01*
X052320Y048130D02*
Y053820D01*
X052400Y048130D02*
Y053820D01*
X051970Y048130D02*
Y050430D01*
X049170Y052960D02*
X054670D01*
X049170Y052880D02*
X054670D01*
X051139Y053120D02*
X053701D01*
X049170Y053040D02*
X054670D01*
X049170Y052720D02*
X054670D01*
X049170Y052640D02*
X054670D01*
X049170Y052800D02*
X054670D01*
X049170Y052400D02*
X054670D01*
X049170Y052320D02*
X054670D01*
X049170Y052560D02*
X054670D01*
X049170Y052480D02*
X054670D01*
X049170Y052160D02*
X054670D01*
X049170Y052080D02*
X054670D01*
X049170Y052240D02*
X054670D01*
X049170Y051280D02*
X054670D01*
X049170Y051200D02*
X054670D01*
X049170Y051440D02*
X054670D01*
X049170Y051360D02*
X054670D01*
X049170Y051120D02*
X054670D01*
X049170Y051040D02*
X054670D01*
X051097Y050960D02*
X053743D01*
X049170Y051840D02*
X054670D01*
X049170Y051760D02*
X054670D01*
X049170Y052000D02*
X054670D01*
X049170Y051920D02*
X054670D01*
X049170Y051600D02*
X054670D01*
X049170Y051520D02*
X054670D01*
X049170Y051680D02*
X054670D01*
X051283Y053820D02*
X053557D01*
X051324Y053760D02*
X053516D01*
X051360Y053680D02*
Y053820D01*
X051360Y053680D02*
X053480D01*
X051380Y053600D02*
X053460D01*
X051385Y053520D02*
X053455D01*
X049170Y053820D02*
X050557D01*
X049170Y053760D02*
X050516D01*
X050480Y053680D02*
Y053820D01*
X049170Y053680D02*
X050480D01*
X049170Y053600D02*
X050460D01*
X049170Y053520D02*
X050455D01*
X051312Y053280D02*
X053528D01*
X051248Y053200D02*
X053592D01*
X051376Y053440D02*
X053464D01*
X051353Y053360D02*
X053487D01*
X051040Y050979D02*
Y053081D01*
X050960Y050993D02*
Y053067D01*
X050880Y050993D02*
Y053067D01*
X049170Y053280D02*
X050528D01*
X049170Y053200D02*
X050592D01*
X049170Y053440D02*
X050464D01*
X049170Y053360D02*
X050487D01*
X050800Y050979D02*
Y053081D01*
X049170Y050960D02*
X050743D01*
X049170Y053120D02*
X050701D01*
X051600Y050430D02*
Y053820D01*
X051680Y050430D02*
Y053820D01*
X051440Y050430D02*
Y053820D01*
X051520Y050430D02*
Y053820D01*
X051840Y050430D02*
Y053820D01*
X051920Y050430D02*
Y053820D01*
X051760Y050430D02*
Y053820D01*
X051200Y050901D02*
Y053159D01*
X051120Y050950D02*
Y053110D01*
X050640Y050901D02*
Y053159D01*
X050720Y050950D02*
Y053110D01*
X051360Y050680D02*
Y053380D01*
X051280Y050824D02*
Y053236D01*
X050560Y050824D02*
Y053236D01*
X051382Y050480D02*
X053458D01*
X051970Y048640D02*
X053695D01*
X051384Y050560D02*
X053456D01*
X051374Y050430D02*
X051970D01*
Y048480D02*
X053695D01*
X051970Y048400D02*
X053695D01*
X051970Y048560D02*
X053695D01*
X051226Y050880D02*
X053614D01*
X051299Y050800D02*
X053541D01*
X049735Y050880D02*
X050614D01*
X051344Y050720D02*
X053496D01*
X051372Y050640D02*
X053468D01*
X050080Y050430D02*
Y053820D01*
X050160Y050430D02*
Y053820D01*
X049920Y050430D02*
Y053820D01*
X050000Y050430D02*
Y053820D01*
X050320Y050430D02*
Y053820D01*
X050400Y050430D02*
Y053820D01*
X050240Y050430D02*
Y053820D01*
X049280Y050886D02*
Y053820D01*
X049360Y050886D02*
Y053820D01*
X049170Y050886D02*
Y053820D01*
X049200Y050886D02*
Y053820D01*
X049760Y050430D02*
Y053820D01*
X049840Y050430D02*
Y053820D01*
X049440Y050886D02*
Y053820D01*
X049735Y050800D02*
X050541D01*
X049735Y050720D02*
X050496D01*
X050480Y050680D02*
Y053380D01*
X049735Y050640D02*
X050468D01*
X049735Y050480D02*
X050458D01*
X049735Y050430D02*
X050466D01*
X049735D02*
Y050886D01*
X049680D02*
Y053820D01*
X049170Y050886D02*
X049735D01*
X049520D02*
Y053820D01*
X049600Y050886D02*
Y053820D01*
X049735Y050560D02*
X050456D01*
X049270Y050480D02*
X049685D01*
X049270D02*
Y050836D01*
X019570Y015680D02*
Y055050D01*
X058940Y015680D02*
Y055050D01*
X019570D02*
X058940D01*
X019570Y015680D02*
X058940D01*
D11*
X049270Y050480D02*
D03*
Y049630D02*
D03*
X046220Y051480D02*
D03*
Y052330D02*
D03*
X027870Y035530D02*
D03*
Y036380D02*
D03*
X022920Y030930D02*
D03*
Y031780D02*
D03*
X044620Y026730D02*
D03*
Y025880D02*
D03*
X027420Y045830D02*
D03*
Y046680D02*
D03*
X020520Y032430D02*
D03*
Y031580D02*
D03*
Y030180D02*
D03*
Y029330D02*
D03*
X047270Y051480D02*
D03*
Y052330D02*
D03*
X056720Y043380D02*
D03*
Y042530D02*
D03*
X047520Y022080D02*
D03*
Y022930D02*
D03*
X046620Y022080D02*
D03*
Y022930D02*
D03*
X039670Y021630D02*
D03*
Y022480D02*
D03*
X044620Y027580D02*
D03*
Y028430D02*
D03*
X053170Y047680D02*
D03*
Y046830D02*
D03*
X057620Y042530D02*
D03*
Y043380D02*
D03*
X055820D02*
D03*
Y042530D02*
D03*
X049320Y045030D02*
D03*
Y045880D02*
D03*
X050420Y046730D02*
D03*
Y047580D02*
D03*
X030020Y045230D02*
D03*
Y046080D02*
D03*
D12*
X025370Y049030D02*
D03*
X024520D02*
D03*
X025270Y049930D02*
D03*
X024420D02*
D03*
X047170Y053180D02*
D03*
X046320D02*
D03*
X047070Y050530D02*
D03*
X046220D02*
D03*
X049670Y037030D02*
D03*
X050520D02*
D03*
X049670Y038680D02*
D03*
X050520D02*
D03*
X052320Y039480D02*
D03*
X051470D02*
D03*
X055770Y041580D02*
D03*
X056620D02*
D03*
X032620Y053480D02*
D03*
X033470D02*
D03*
X032220Y049180D02*
D03*
X033070D02*
D03*
Y052380D02*
D03*
X032220D02*
D03*
X039070Y051680D02*
D03*
X039920D02*
D03*
X041370Y053280D02*
D03*
X042220D02*
D03*
X039720Y053530D02*
D03*
X040570D02*
D03*
X043120Y049580D02*
D03*
X042270D02*
D03*
X043470Y051730D02*
D03*
X042620D02*
D03*
X041520Y049380D02*
D03*
X040670D02*
D03*
X042620Y050830D02*
D03*
X043470D02*
D03*
X039920Y049880D02*
D03*
X039070D02*
D03*
X039920Y050780D02*
D03*
X039070D02*
D03*
Y052630D02*
D03*
X039920D02*
D03*
X026020Y035630D02*
D03*
X026870D02*
D03*
X027470Y031030D02*
D03*
X026620D02*
D03*
X027820Y032380D02*
D03*
X028670D02*
D03*
X027270Y039980D02*
D03*
X026420D02*
D03*
X024270Y021430D02*
D03*
X023420D02*
D03*
X022920Y034080D02*
D03*
X022070D02*
D03*
X021320D02*
D03*
X020470D02*
D03*
X044270Y023630D02*
D03*
X045120D02*
D03*
X046420Y026480D02*
D03*
X045570D02*
D03*
X029070Y043980D02*
D03*
X028220D02*
D03*
X036270Y016530D02*
D03*
X037120D02*
D03*
X020570Y038530D02*
D03*
X021420D02*
D03*
X057970Y049580D02*
D03*
X057120D02*
D03*
X057970Y050630D02*
D03*
X057120D02*
D03*
X047420Y018080D02*
D03*
X046570D02*
D03*
X052070Y021730D02*
D03*
X051220D02*
D03*
X052070Y022630D02*
D03*
X051220D02*
D03*
X047420Y017180D02*
D03*
X046570D02*
D03*
X051770Y017580D02*
D03*
X050920D02*
D03*
X051770Y016580D02*
D03*
X050920D02*
D03*
X046720Y024380D02*
D03*
X047570D02*
D03*
X030920Y019380D02*
D03*
X031770D02*
D03*
X034670D02*
D03*
X033820D02*
D03*
X022170Y021430D02*
D03*
X021320D02*
D03*
X038970Y018480D02*
D03*
X038120D02*
D03*
X038970Y016530D02*
D03*
X038120D02*
D03*
X036270Y017480D02*
D03*
X037120D02*
D03*
X038120D02*
D03*
X038970D02*
D03*
X038120Y019480D02*
D03*
X038970D02*
D03*
X036270Y018480D02*
D03*
X037120D02*
D03*
X036270Y019480D02*
D03*
X037120D02*
D03*
X039070Y023630D02*
D03*
X039920D02*
D03*
X041820D02*
D03*
X040970D02*
D03*
X042670Y018680D02*
D03*
X043520D02*
D03*
X043270Y019580D02*
D03*
X044120D02*
D03*
X041470Y018680D02*
D03*
X040620D02*
D03*
X025920Y029530D02*
D03*
X026770D02*
D03*
X029870Y035680D02*
D03*
X030720D02*
D03*
X046420Y027730D02*
D03*
X045570D02*
D03*
X046570Y030580D02*
D03*
X047420D02*
D03*
X043270Y029780D02*
D03*
X044120D02*
D03*
X033070Y050080D02*
D03*
X032220D02*
D03*
X049670Y034680D02*
D03*
X050520D02*
D03*
X052320Y033130D02*
D03*
X051470D02*
D03*
X052320Y035480D02*
D03*
X051470D02*
D03*
X044370Y040330D02*
D03*
X043520D02*
D03*
Y038980D02*
D03*
X044370D02*
D03*
X038520Y044230D02*
D03*
X037670D02*
D03*
X038520Y045130D02*
D03*
X037670D02*
D03*
X038520Y046030D02*
D03*
X037670D02*
D03*
X036220Y045730D02*
D03*
X035370D02*
D03*
X034620D02*
D03*
X033770D02*
D03*
X036370Y040480D02*
D03*
X037220D02*
D03*
X038520Y041380D02*
D03*
X037670D02*
D03*
X038520Y042280D02*
D03*
X037670D02*
D03*
X038520Y043180D02*
D03*
X037670D02*
D03*
X035520Y040480D02*
D03*
X034670D02*
D03*
X031720Y043980D02*
D03*
X030870D02*
D03*
D13*
X035870Y049130D02*
D03*
X035270D02*
D03*
X058170Y034530D02*
D03*
X057570D02*
D03*
X030953Y023883D02*
D03*
X030353D02*
D03*
X056270Y050680D02*
D03*
X055670D02*
D03*
X028870Y030880D02*
D03*
X029470D02*
D03*
X034870Y053380D02*
D03*
X035470D02*
D03*
D14*
X028120Y028330D02*
D03*
Y028930D02*
D03*
X054920Y048380D02*
D03*
Y048980D02*
D03*
X055770Y048380D02*
D03*
Y048980D02*
D03*
X029620Y032530D02*
D03*
Y031930D02*
D03*
D15*
X051415Y045505D02*
D03*
X052615Y038305D02*
D03*
X046565Y029405D02*
D03*
X045615Y024805D02*
D03*
X052315Y034305D02*
D03*
X052615Y036655D02*
D03*
D16*
X050470Y045130D02*
D03*
Y045880D02*
D03*
X051670Y037930D02*
D03*
Y038680D02*
D03*
X045620Y029030D02*
D03*
Y029780D02*
D03*
X044670Y024430D02*
D03*
Y025180D02*
D03*
X051370Y033930D02*
D03*
Y034680D02*
D03*
X051670Y036280D02*
D03*
Y037030D02*
D03*
D17*
X035370Y052380D02*
D03*
X034370Y050080D02*
D03*
X034870D02*
D03*
X035370D02*
D03*
X033870Y052380D02*
D03*
X034370D02*
D03*
X034870D02*
D03*
X041970Y022580D02*
D03*
X041470D02*
D03*
X040970D02*
D03*
X042470Y020280D02*
D03*
X041970D02*
D03*
X041470D02*
D03*
X042470Y022580D02*
D03*
X044720Y037780D02*
D03*
X043720Y035480D02*
D03*
X044220D02*
D03*
X044720D02*
D03*
X043220Y037780D02*
D03*
X043720D02*
D03*
X044220D02*
D03*
X043250Y041530D02*
D03*
X044250Y043830D02*
D03*
X043750D02*
D03*
X043250D02*
D03*
X044750Y041530D02*
D03*
X044250D02*
D03*
X043750D02*
D03*
X036370Y044230D02*
D03*
X035370Y041930D02*
D03*
X035870D02*
D03*
X036370D02*
D03*
X034870Y044230D02*
D03*
X035370D02*
D03*
X035870D02*
D03*
D18*
X033870Y050080D02*
D03*
X040970Y020280D02*
D03*
X043220Y035480D02*
D03*
X044750Y043830D02*
D03*
X034870Y041930D02*
D03*
D19*
X041620Y052180D02*
D03*
X041364D02*
D03*
X041108D02*
D03*
X040852D02*
D03*
Y050380D02*
D03*
X041108D02*
D03*
X041364D02*
D03*
X041620D02*
D03*
X022120Y032930D02*
D03*
X021864D02*
D03*
X021608D02*
D03*
X021352D02*
D03*
Y030430D02*
D03*
X021608D02*
D03*
X021864D02*
D03*
X022120D02*
D03*
X054735Y044850D02*
D03*
X054479D02*
D03*
X054223D02*
D03*
X053967D02*
D03*
Y047350D02*
D03*
X054223D02*
D03*
X054479D02*
D03*
X054735D02*
D03*
X055246Y044840D02*
D03*
X054990D02*
D03*
Y047340D02*
D03*
X055246D02*
D03*
X056270Y044830D02*
D03*
X056014D02*
D03*
X055758D02*
D03*
X055502D02*
D03*
Y047330D02*
D03*
X055758D02*
D03*
X056014D02*
D03*
X056270D02*
D03*
D20*
X030920Y037780D02*
D03*
Y037080D02*
D03*
X029270Y023630D02*
D03*
Y022930D02*
D03*
D21*
X044920Y020230D02*
D03*
X048070D02*
D03*
X052770D02*
D03*
X049620D02*
D03*
D22*
X048870Y024130D02*
D03*
Y020980D02*
D03*
Y019530D02*
D03*
Y016380D02*
D03*
D23*
X024070Y051280D02*
D03*
Y052380D02*
D03*
X025070Y051280D02*
D03*
Y052380D02*
D03*
D24*
X048220Y027880D02*
D03*
Y026680D02*
D03*
Y028680D02*
D03*
Y029880D02*
D03*
D25*
X049820Y025180D02*
D03*
X048620D02*
D03*
X050520Y030280D02*
D03*
X049320D02*
D03*
X051320D02*
D03*
X052520D02*
D03*
D26*
X034645Y028905D02*
D03*
Y028708D02*
D03*
Y028511D02*
D03*
Y028314D02*
D03*
Y028117D02*
D03*
Y027921D02*
D03*
Y027724D02*
D03*
Y027527D02*
D03*
Y027330D02*
D03*
Y027133D02*
D03*
Y026936D02*
D03*
Y026739D02*
D03*
Y026543D02*
D03*
Y026346D02*
D03*
Y026149D02*
D03*
Y025952D02*
D03*
X029842D02*
D03*
Y026149D02*
D03*
Y026346D02*
D03*
Y026543D02*
D03*
Y026739D02*
D03*
Y026936D02*
D03*
Y027133D02*
D03*
Y027330D02*
D03*
Y027527D02*
D03*
Y027724D02*
D03*
Y027921D02*
D03*
Y028117D02*
D03*
Y028314D02*
D03*
Y028511D02*
D03*
Y028708D02*
D03*
Y028905D02*
D03*
D27*
X033720Y025027D02*
D03*
X033523D02*
D03*
X033326D02*
D03*
X033129D02*
D03*
X032933D02*
D03*
X032736D02*
D03*
X032539D02*
D03*
X032342D02*
D03*
X032145D02*
D03*
X031948D02*
D03*
X031751D02*
D03*
X031555D02*
D03*
X031358D02*
D03*
X031161D02*
D03*
X030964D02*
D03*
X030767D02*
D03*
Y029830D02*
D03*
X030964D02*
D03*
X031161D02*
D03*
X031358D02*
D03*
X031555D02*
D03*
X031751D02*
D03*
X031948D02*
D03*
X032145D02*
D03*
X032342D02*
D03*
X032539D02*
D03*
X032736D02*
D03*
X032933D02*
D03*
X033129D02*
D03*
X033326D02*
D03*
X033523D02*
D03*
X033720D02*
D03*
D28*
X028870Y036380D02*
D03*
Y035380D02*
D03*
D29*
X031198Y020880D02*
D03*
X034820D02*
D03*
D30*
X051970Y028480D02*
D03*
Y028980D02*
D03*
Y029480D02*
D03*
X049670Y027980D02*
D03*
Y028480D02*
D03*
Y028980D02*
D03*
Y027480D02*
D03*
Y026980D02*
D03*
Y026480D02*
D03*
X051970Y027980D02*
D03*
Y026980D02*
D03*
Y027480D02*
D03*
Y026480D02*
D03*
X049670Y025980D02*
D03*
X051970D02*
D03*
D31*
X049670Y029480D02*
D03*
D32*
X028250Y044870D02*
D03*
X029000D02*
D03*
X030870Y044880D02*
D03*
X031620D02*
D03*
D33*
X028625Y045815D02*
D03*
X031245Y045825D02*
D03*
D34*
X026320Y041130D02*
X027820D01*
X025770D02*
X026320D01*
X043980Y048020D02*
X044817Y047183D01*
X047320Y044680D01*
X027820Y041130D02*
X029720D01*
X034977Y035873D01*
X025170Y040530D02*
X025770Y041130D01*
X025170Y035580D02*
Y040530D01*
X034977Y035873D02*
X035470Y035380D01*
X040620Y030930D02*
Y034730D01*
Y029730D02*
Y030930D01*
X023970Y046130D02*
X025860Y048020D01*
X035470Y035380D02*
X039970D01*
X040620Y034730D01*
Y028880D02*
Y029730D01*
Y027930D02*
Y028880D01*
X025170Y030950D02*
Y035580D01*
X035270Y048020D02*
X042270D01*
X043980D01*
X047320Y032280D02*
Y044680D01*
Y032280D02*
X047595Y032005D01*
X034620Y048020D02*
X035270D01*
X029970D02*
X034620D01*
X023970Y031560D02*
Y046130D01*
X025860Y048020D02*
X027420D01*
X029970D01*
D35*
X044817Y047183D02*
X044823D01*
X045620Y047980D01*
X045770Y048980D02*
X046170Y048580D01*
X046970D01*
X045670Y048980D02*
X045770D01*
X045620D02*
X045670D01*
X046970Y048580D02*
Y048930D01*
X044370Y038980D02*
X045070D01*
X042820Y040330D02*
X043520D01*
X042620Y039630D02*
X042870D01*
X039970Y036980D02*
X042620Y039630D01*
X039970Y035380D02*
Y036980D01*
X026320Y048070D02*
Y049080D01*
X046770Y054130D02*
X048720D01*
X046320Y053680D02*
X046770Y054130D01*
X050770Y035480D02*
X051470D01*
X057620Y041580D02*
Y042530D01*
X056620Y041580D02*
X057620D01*
X056720Y042530D02*
X057620D01*
X055820D02*
X056720D01*
X055770Y034930D02*
X056270Y034430D01*
X055770Y034930D02*
Y040480D01*
Y041580D01*
X056520Y035430D02*
X057420D01*
X056270Y034430D02*
X056520D01*
X058170Y033730D02*
Y034530D01*
X056520Y037430D02*
X058170Y035780D01*
Y034530D02*
Y035780D01*
X020510Y030190D02*
X020520Y030180D01*
X020510Y030190D02*
Y030890D01*
Y031570D02*
X020520Y031580D01*
X020510Y030890D02*
Y031570D01*
X021320Y034080D02*
X022070D01*
X020470Y035955D02*
X020845Y036330D01*
X020470Y034080D02*
Y035955D01*
X021420Y037770D02*
Y038530D01*
Y039650D01*
X021670Y044830D02*
Y045530D01*
Y046140D02*
Y046280D01*
Y045530D02*
Y046140D01*
X025420Y029530D02*
X025920D01*
X025170Y029780D02*
X025420Y029530D01*
X025170Y029780D02*
Y030090D01*
X024330Y027990D02*
X024630D01*
Y029550D02*
X024720Y029640D01*
X023795Y027455D02*
X024330Y027990D01*
X024630Y026980D02*
Y027990D01*
Y028680D01*
X029870Y025030D02*
X030920Y026080D01*
X027620Y021530D02*
Y022680D01*
X027920Y022980D01*
Y023730D01*
X029220Y025030D02*
X029870D01*
X027920Y023730D02*
X029220Y025030D01*
X038970Y016530D02*
Y017480D01*
Y018480D01*
Y019480D01*
Y020180D01*
X040970Y023630D02*
Y024986D01*
X041542Y025558D01*
X048070Y020230D02*
X048870D01*
X049620D01*
X048870Y019530D02*
Y020230D01*
Y020980D01*
X047220Y020230D02*
X048070D01*
X040380Y054270D02*
X040570Y054080D01*
X039220Y054270D02*
X040380D01*
X040570Y053530D02*
Y054080D01*
X047270Y053180D02*
X047304Y053146D01*
X048720D01*
X046220Y052330D02*
Y052580D01*
Y052330D02*
X046320Y052430D01*
Y052680D01*
Y053180D01*
X046220Y052580D02*
X046320Y052680D01*
Y053180D02*
Y053680D01*
X047170Y053180D02*
X047270Y053080D01*
X047170Y052830D02*
Y053180D01*
Y052830D02*
X047270Y052730D01*
Y052330D02*
Y052730D01*
X046220Y050530D02*
Y051480D01*
Y049680D02*
Y050530D01*
Y049680D02*
X046970Y048930D01*
X047070Y049872D02*
Y050530D01*
Y049872D02*
X047666Y049276D01*
X047070Y050530D02*
Y050980D01*
X047270Y051180D01*
Y051480D01*
X049270Y049630D02*
X050320D01*
X050920Y050230D01*
Y050530D01*
X046970Y048580D02*
X048820D01*
X049270Y049030D01*
Y049630D01*
X047666Y049276D02*
X048870Y050480D01*
X049270D01*
X048820Y048580D02*
X050420D01*
X050670D01*
X052045Y047205D02*
X052420Y046830D01*
X050670Y048580D02*
X052045Y047205D01*
X052420Y046830D02*
X053170D01*
X057496Y033056D02*
X058170Y033730D01*
X051470Y032330D02*
Y033130D01*
X038520Y044230D02*
X040270D01*
X038520Y043180D02*
X039420D01*
X039620Y042980D01*
X040270D01*
X038520Y042280D02*
X039420D01*
X039720Y041980D01*
X040270D01*
X030020Y046080D02*
Y047970D01*
X029970Y048020D02*
X030020Y047970D01*
X027420Y046680D02*
Y048020D01*
X037220Y040480D02*
X038520D01*
Y041380D01*
X050020Y025180D02*
X050520Y024680D01*
X049820Y025180D02*
X050020D01*
X020570Y038530D02*
Y039330D01*
X043870Y025880D02*
X044620D01*
X033770Y045730D02*
Y046530D01*
X026320Y041130D02*
Y042930D01*
X034520Y039380D02*
X036370D01*
X032520Y041380D02*
X034520Y039380D01*
X032520Y041380D02*
Y047030D01*
X049320Y031280D02*
X051920D01*
X052620D01*
X054870Y029030D01*
X055370D02*
X056520Y027880D01*
Y023930D02*
Y027880D01*
X055570Y022980D02*
X056520Y023930D01*
X054870Y029030D02*
X055370D01*
X053670Y022980D02*
X055570D01*
X052720Y023930D02*
X053670Y022980D01*
X050220Y023930D02*
X052720D01*
X049827Y024323D02*
X050220Y023930D01*
X045620Y049030D02*
X045670Y048980D01*
D36*
X046970Y047880D02*
Y048580D01*
X046320Y031730D02*
Y037830D01*
X045520Y030930D02*
X046320Y031730D01*
X040620Y030930D02*
X045520D01*
X021620Y028480D02*
X021900D01*
X020430Y028050D02*
Y028640D01*
X020520Y028730D02*
Y029330D01*
X020430Y028640D02*
X020520Y028730D01*
X022000Y036750D02*
X022070Y036680D01*
X021900Y028480D02*
X023366Y029946D01*
X021420Y038530D02*
X022920D01*
X047595Y032005D02*
X048320Y031280D01*
X022070Y036680D02*
X022421Y036331D01*
X022743Y036012D01*
D37*
X027820Y041130D02*
Y043180D01*
X044370Y039930D02*
Y040330D01*
X044070Y039630D02*
X044370Y039930D01*
X043520Y039630D02*
X044070D01*
X042870D02*
X043520D01*
X035020Y032780D02*
Y034330D01*
X026320Y049080D02*
Y049480D01*
X025870Y049930D02*
X026320Y049480D01*
X025270Y049930D02*
X025870D01*
X024420Y049480D02*
Y049930D01*
Y049480D02*
X024520Y049380D01*
Y049030D02*
Y049380D01*
X025370Y048730D02*
Y049030D01*
X024620Y047980D02*
X025370Y048730D01*
X023570Y047980D02*
X024620D01*
X023570D02*
X024220D01*
X055520Y050030D02*
Y050230D01*
X055670Y050380D01*
Y050680D01*
X051170Y036280D02*
X051670D01*
X050520Y038680D02*
X051670D01*
X052320Y038830D02*
Y039480D01*
Y038830D02*
X052615Y038535D01*
Y038305D02*
Y038535D01*
X050520Y037030D02*
X051670D01*
X052615Y037885D02*
Y038305D01*
Y037885D02*
X053070Y037430D01*
X053520D01*
X053220Y036430D02*
X053520D01*
X052995Y036655D02*
X053220Y036430D01*
X052615Y036655D02*
X052995D01*
X052615Y036325D02*
Y036655D01*
X052320Y036030D02*
X052615Y036325D01*
X052320Y035480D02*
Y036030D01*
X050520Y034680D02*
X051370D01*
X052315Y034305D02*
X052320Y034300D01*
Y033130D02*
Y034300D01*
X053440Y035430D02*
X053520D01*
X052315Y034305D02*
X053440Y035430D01*
X055320Y041580D02*
X055770D01*
X055120Y041780D02*
X055320Y041580D01*
X055120Y041780D02*
Y043180D01*
X055320Y043380D01*
X055820D01*
X039020Y053530D02*
X039720D01*
X034370Y049080D02*
Y050080D01*
X035370Y051830D02*
Y052380D01*
X036270D01*
X035370Y050080D02*
X036270D01*
X034870Y053380D02*
Y054270D01*
X035370Y050080D02*
Y050630D01*
X033070Y052380D02*
X033870D01*
X033070D02*
Y052730D01*
X035470Y053380D02*
X035820D01*
X036070Y053630D01*
X032570Y051630D02*
X035170D01*
X035370Y051830D01*
X032520Y050880D02*
X035120D01*
X032220Y050580D02*
X032520Y050880D01*
X035120D02*
X035370Y050630D01*
X044370Y050830D02*
X044420Y050780D01*
X043470Y050830D02*
X044370D01*
Y051730D02*
X044420Y051780D01*
X043470Y051730D02*
X044370D01*
X042220Y053280D02*
X043170D01*
X038120Y051280D02*
X038620Y050780D01*
X039070D01*
X038120Y051280D02*
X038520Y051680D01*
X039070D01*
X039920Y049880D02*
Y050780D01*
Y051730D02*
Y052630D01*
X048820Y030280D02*
X049320D01*
X048520Y030580D02*
X048820Y030280D01*
X047420Y030580D02*
X048520D01*
X046570Y029410D02*
Y030580D01*
X046565Y029405D02*
X046570Y029410D01*
X047370Y028730D02*
Y029080D01*
X047045Y029405D02*
X047370Y029080D01*
X046565Y029405D02*
X047045D01*
X045120Y028480D02*
X045370D01*
X045070Y028430D02*
X045120Y028480D01*
X044620Y028430D02*
X045070D01*
X043220Y025580D02*
Y026780D01*
X044620Y026730D02*
X045070D01*
X045320Y026480D01*
X045570D01*
X045120Y027730D02*
X045570D01*
X044970Y027580D02*
X045120Y027730D01*
X044620Y027580D02*
X044970D01*
X043970D02*
X044620D01*
X043770Y027780D02*
X043970Y027580D01*
X043220Y027780D02*
X043770D01*
X041770Y026780D02*
X042220D01*
X046420Y027730D02*
X047370D01*
X046720Y024830D02*
X047370Y025480D01*
X046720Y024380D02*
Y024830D01*
X046420Y024380D02*
X046720D01*
X047570D02*
X048170D01*
X043315Y023035D02*
X043909Y023630D01*
X044270D01*
X048170Y024380D02*
X048420Y024630D01*
X031770Y019380D02*
X032123D01*
X032423Y019680D01*
X033167D02*
X033467Y019380D01*
X033820D01*
X032423Y019680D02*
Y020880D01*
X033167Y019680D02*
Y020880D01*
X033770Y016880D02*
X034370Y017480D01*
X033370Y016880D02*
X033770D01*
X032370D02*
X032920Y016330D01*
X034470D01*
X034670Y016530D01*
X039920Y023630D02*
X040970D01*
X039070Y022680D02*
Y023630D01*
Y022680D02*
X039270Y022480D01*
X039670D01*
X041470Y018680D02*
Y019230D01*
Y018180D02*
Y018680D01*
Y018180D02*
X041670Y017980D01*
Y017580D02*
Y017980D01*
X042670Y017580D02*
Y018680D01*
X042095Y018855D02*
X042270Y018680D01*
X042095Y018855D02*
Y019155D01*
X042270Y018680D02*
X042670D01*
X040620D02*
Y019130D01*
X040420Y019330D02*
X040620Y019130D01*
X041970Y021680D02*
X042270D01*
X040420Y019330D02*
Y020830D01*
X040720Y021130D02*
X041420D01*
X040420Y020830D02*
X040720Y021130D01*
X041420D02*
X041970Y021680D01*
X042470Y022980D02*
X042918Y023428D01*
X042922D01*
X033167Y020880D02*
X034820D01*
X044120Y019580D02*
Y021442D01*
X044514Y021836D01*
X044120Y018830D02*
Y019580D01*
X043970Y018680D02*
X044120Y018830D01*
X043520Y018680D02*
X043970D01*
X043520Y017430D02*
Y018680D01*
X042670Y016580D02*
X043520Y017430D01*
X047420Y018080D02*
Y018880D01*
X046620Y021380D02*
Y022080D01*
X052770Y020230D02*
Y020680D01*
X052520Y020930D02*
X052770Y020680D01*
X051220Y021730D02*
Y022630D01*
X052070D02*
X052820D01*
X051770Y017580D02*
Y018380D01*
X028270Y030880D02*
X028870D01*
X027920D02*
X028270D01*
Y031430D02*
X028620D01*
X029120Y031930D01*
X029620D01*
X027820Y031880D02*
X028270Y031430D01*
X027820Y031880D02*
Y032380D01*
X028670D02*
Y032980D01*
X028220Y033430D02*
X028670Y032980D01*
X027470Y031030D02*
X027770D01*
X027920Y030880D01*
X026220Y033430D02*
X026620Y033030D01*
Y031030D02*
Y033030D01*
X030720Y035680D02*
X033670D01*
X035020Y034330D01*
X027870Y035530D02*
X028170D01*
X028870Y036230D01*
Y036380D01*
X029870Y037780D02*
X030920D01*
Y036430D02*
Y037080D01*
X027270Y039980D02*
X027970D01*
X030883Y020880D02*
X031198D01*
X032423D01*
X042470Y022580D02*
Y022980D01*
X040970Y022461D02*
Y022580D01*
Y019730D02*
X041470Y019230D01*
X040970Y019730D02*
Y020280D01*
X041470Y019780D02*
X042095Y019155D01*
X041470Y019780D02*
Y020280D01*
X042470D02*
Y021030D01*
Y021880D02*
Y022580D01*
X042270Y021680D02*
X042470Y021880D01*
X040970Y022580D02*
Y023630D01*
X041970Y021680D02*
Y022580D01*
X050770Y026980D02*
X051970D01*
X053603Y024730D02*
X054670Y025797D01*
X053270Y024730D02*
X053603D01*
X054020Y027538D02*
X054670Y026888D01*
X054020Y027538D02*
Y028030D01*
X053270Y028780D02*
X054020Y028030D01*
X051970Y028480D02*
X052970D01*
X053270Y028780D01*
X049670Y025980D02*
X050070D01*
X053020Y025480D02*
X053270Y025730D01*
X051120Y025480D02*
X053020D01*
X049670Y026480D02*
X050120D01*
X051120Y025480D01*
X050070Y025980D02*
X051320Y024730D01*
X053270D01*
X049170Y026980D02*
X049670D01*
X048970Y026780D02*
X049170Y026980D01*
X048970Y026080D02*
Y026780D01*
X048620Y025730D02*
X048970Y026080D01*
X048620Y025180D02*
Y025730D01*
X049020Y027980D02*
X049670D01*
X048920Y027880D02*
X049020Y027980D01*
X048920Y028480D02*
X049670D01*
X048720Y028680D02*
X048920Y028480D01*
X048220Y028680D02*
X048720D01*
X048970Y029480D02*
X049670D01*
X048570Y029880D02*
X048970Y029480D01*
X048220Y029880D02*
X048570D01*
X049670Y028980D02*
X050370D01*
X050520Y029130D01*
Y030280D01*
X051170Y028980D02*
X051970D01*
X051170D02*
Y029730D01*
X051320Y029880D01*
Y030280D01*
X051970Y029480D02*
X052420D01*
X052520Y029580D01*
Y030280D01*
Y030680D01*
X048220Y027880D02*
X048920D01*
X048220Y026680D02*
X049020Y027480D01*
X049670D01*
X044120Y029780D02*
X045620D01*
X050570Y027180D02*
X050770Y026980D01*
X050570Y027180D02*
Y028480D01*
X051120Y027480D02*
X051970D01*
X051270Y025980D02*
X051970D01*
Y026480D02*
X052670D01*
X048420Y024630D02*
X049520D01*
X033470Y053130D02*
Y053480D01*
X033070Y052730D02*
X033470Y053130D01*
X032220Y051980D02*
Y052380D01*
Y051980D02*
X032570Y051630D01*
X033070Y050080D02*
X033870D01*
X032220D02*
Y050580D01*
X034870Y052380D02*
Y053380D01*
X033070Y049180D02*
Y050080D01*
X031270Y049180D02*
X032220D01*
X035870Y049130D02*
X036470D01*
X049320Y030280D02*
Y031280D01*
X042270Y048020D02*
Y049580D01*
X051470Y039480D02*
Y044480D01*
Y046630D02*
X052045Y047205D01*
X050820Y046730D02*
X050970Y046580D01*
X050420Y046730D02*
X050820D01*
X052870Y045430D02*
X053020D01*
X052620Y045830D02*
X052720D01*
X052620Y045180D02*
X052870Y045430D01*
X052620Y041230D02*
Y045180D01*
X052170Y045380D02*
X052620Y045830D01*
X053520Y036430D02*
X053920D01*
X054170Y036680D01*
X053520Y035430D02*
X053970D01*
X054570Y036030D01*
Y039280D01*
X052620Y041230D02*
X054570Y039280D01*
X052170Y041080D02*
X054170Y039080D01*
Y036680D02*
Y039080D01*
X052170Y041080D02*
Y045380D01*
X051415Y045505D02*
X051695D01*
X052370Y046180D02*
X052520D01*
X051695Y045505D02*
X052370Y046180D01*
X051415Y045505D02*
Y045835D01*
X050970Y046280D02*
X051415Y045835D01*
X050970Y046280D02*
Y046580D01*
X050320Y040530D02*
Y041830D01*
X049270Y033930D02*
X051370D01*
X049070Y034130D02*
X049270Y033930D01*
X049070Y034130D02*
Y039280D01*
X050320Y040530D01*
X035270Y049130D02*
Y049180D01*
X034870Y049580D02*
Y050080D01*
Y049580D02*
X035270Y049180D01*
X042270Y049580D02*
Y049980D01*
X042072Y050178D02*
X042270Y049980D01*
X038120Y050130D02*
X038520D01*
X038770Y049880D02*
X039070D01*
X038520Y050130D02*
X038770Y049880D01*
X039920Y051680D02*
X039970D01*
X040520D01*
X040570Y052880D02*
Y053530D01*
Y052880D02*
X040729Y052721D01*
X032370Y017880D02*
X032920Y018430D01*
X033370Y017880D02*
X035170D01*
X035770Y018480D01*
X032920Y018430D02*
X034920D01*
X032070Y053480D02*
X032620D01*
X031270Y052680D02*
X032070Y053480D01*
X036370Y040480D02*
Y041930D01*
X035520Y040480D02*
Y041080D01*
X035370Y041230D02*
X035520Y041080D01*
X035370Y041230D02*
Y041930D01*
X034670Y040480D02*
Y041030D01*
X034870Y041230D01*
Y041930D01*
X035870D02*
Y042480D01*
X036020Y042630D01*
X036670D01*
X037020Y042280D01*
X037670D01*
Y041380D02*
Y042280D01*
X035870Y043180D02*
X037670D01*
X035370Y042680D02*
X035870Y043180D01*
X035370Y041930D02*
Y042680D01*
X033820Y041930D02*
X034870D01*
X033570Y041680D02*
X033820Y041930D01*
X034870Y044230D02*
Y044930D01*
X034620Y045180D02*
X034870Y044930D01*
X034620Y045180D02*
Y045730D01*
X035370Y044230D02*
Y045730D01*
X035870Y044230D02*
Y044880D01*
X036220Y045230D01*
Y045730D01*
X036370Y044230D02*
X037670D01*
Y045130D01*
X036220Y045730D02*
X036770D01*
X037070Y046030D01*
X037670D01*
X028250Y044560D02*
Y044870D01*
X028220Y044530D02*
X028250Y044560D01*
X028220Y043980D02*
Y044530D01*
X029000Y044550D02*
Y044870D01*
Y044550D02*
X029070Y044480D01*
Y043980D02*
Y044480D01*
X028620Y042930D02*
X029070Y043380D01*
Y043980D01*
X028220Y043580D02*
Y043980D01*
X027820Y043180D02*
X028220Y043580D01*
X030870Y043980D02*
Y044880D01*
X031620Y044530D02*
Y044880D01*
Y044530D02*
X031720Y044430D01*
Y043980D02*
Y044430D01*
Y043380D02*
Y043980D01*
X031270Y042930D02*
X031720Y043380D01*
X030020Y045230D02*
X030370D01*
X030965Y045825D01*
X031245D01*
Y046655D01*
X031270Y046680D01*
X028625Y045815D02*
Y046675D01*
X028620Y046680D02*
X028625Y046675D01*
X033167Y020880D02*
Y022393D01*
X032320Y023240D02*
X033167Y022393D01*
X032070Y022880D02*
X032423Y022527D01*
Y020880D02*
Y022527D01*
X027935Y045815D02*
X028625D01*
X027920Y045830D02*
X027935Y045815D01*
X027420Y045830D02*
X027920D01*
X043120Y049580D02*
X043820D01*
X044570Y048830D01*
X045615Y024805D02*
X045995D01*
X046420Y024380D01*
X044370Y024430D02*
X044670D01*
X043220Y025580D02*
X044370Y024430D01*
X029720Y041130D02*
Y042380D01*
X030870Y043530D02*
Y043980D01*
X029720Y042380D02*
X030870Y043530D01*
X051220Y021280D02*
Y021730D01*
Y021280D02*
X051570Y020930D01*
X052520D01*
X044220Y026730D02*
X044620D01*
X043470Y027280D02*
X043670D01*
X044220Y026730D01*
X042570Y029030D02*
X045620D01*
X041570Y026980D02*
X041770Y026780D01*
X041570Y026980D02*
Y028030D01*
X042570Y029030D01*
X054162Y026338D02*
X055670D01*
X053270Y027230D02*
Y027780D01*
Y027230D02*
X054162Y026338D01*
X052770Y027780D02*
X053270D01*
X052570Y027980D02*
X052770Y027780D01*
X051970Y027980D02*
X052570D01*
X034670Y016530D02*
X036270D01*
X034370Y017480D02*
X036270D01*
X035770Y018480D02*
X036270D01*
X034920Y018430D02*
X035970Y019480D01*
X036270D01*
X035370Y043580D02*
Y044230D01*
X033570Y044480D02*
X034670Y043380D01*
X035170D02*
X035370Y043580D01*
X034670Y043380D02*
X035170D01*
X051920Y031280D02*
X052520Y030680D01*
X049520Y024630D02*
X049827Y024323D01*
X033979Y031739D02*
X035020Y032780D01*
X038120Y052630D02*
X039070D01*
D38*
X036370Y039380D02*
Y040480D01*
X055570Y051830D02*
Y052430D01*
X055770Y048980D02*
Y049330D01*
X055431Y049412D02*
X055688D01*
X055770Y049330D01*
X056270Y049830D02*
Y050680D01*
X051170Y037930D02*
X051670D01*
X049670Y034680D02*
Y037030D01*
X057620Y043380D02*
Y044430D01*
X056720Y043380D02*
X057620D01*
X035270Y048020D02*
Y049130D01*
X040620Y029730D02*
X040670Y029780D01*
X043270D01*
X046420Y026480D02*
X047370D01*
X022620Y030240D02*
X022920Y030540D01*
Y030930D01*
X020890Y029330D02*
X021348Y029788D01*
X020520Y029330D02*
X020890D01*
X021864Y029294D02*
Y029596D01*
X021620Y029050D02*
X021864Y029294D01*
X021620Y028480D02*
Y029050D01*
Y027610D02*
Y028480D01*
X026550Y054420D02*
X027640Y053330D01*
X025410Y054420D02*
X026550D01*
X025070Y054080D02*
X025410Y054420D01*
X024070Y053700D02*
Y054080D01*
Y053700D02*
X024440Y053330D01*
X024070Y052380D02*
X025070D01*
X024070Y051280D02*
X025070D01*
X037120Y019480D02*
X038120D01*
X037120Y018480D02*
X038120D01*
X037120Y017480D02*
X038120D01*
X037120Y016530D02*
X038120D01*
X048870Y016380D02*
X049720D01*
X046570Y017180D02*
Y018080D01*
Y019030D01*
X045370Y020230D02*
X046570Y019030D01*
X044920Y020230D02*
X045370D01*
X046620Y022930D02*
X047520D01*
X052120Y018880D02*
X053320Y017680D01*
X050720Y018880D02*
X052120D01*
X049020Y017180D02*
X050720Y018880D01*
X047420Y017180D02*
X049020D01*
X054420Y016580D02*
X054770D01*
X055120Y016930D01*
X053320Y016680D02*
X053420Y016580D01*
X049720Y016380D02*
X049920Y016580D01*
X051770D02*
X053220D01*
X053420D01*
X050920Y016680D02*
Y017580D01*
X049920Y016580D02*
X050920D01*
X028870Y035380D02*
X029220D01*
X029520Y035680D01*
X029870D01*
X028220Y038230D02*
X029670Y036780D01*
X029870D01*
X026220Y038230D02*
Y038880D01*
X026420Y039080D01*
Y039980D01*
X029870Y035680D02*
Y036780D01*
X026020Y052530D02*
Y052630D01*
X025870Y052380D02*
X026020Y052530D01*
X025070Y052380D02*
X025870D01*
X025370Y051280D02*
X026020Y050630D01*
X025070Y051280D02*
X025370D01*
X025520Y053330D02*
X025820Y053630D01*
X026020D01*
X024440Y053330D02*
X025520D01*
X027120Y051630D02*
X029020D01*
X057120Y049580D02*
Y050630D01*
X057970Y049580D02*
Y050630D01*
Y048080D02*
Y049580D01*
X049670Y038680D02*
Y039180D01*
X050970Y040480D01*
Y043530D01*
X050570Y043930D02*
X050970Y043530D01*
X049320Y044480D02*
X049870Y043930D01*
X049320Y044480D02*
Y045030D01*
X049870Y043930D02*
X050570D01*
X050470Y044530D02*
Y045130D01*
X049320Y045880D02*
X050470D01*
X054970Y049873D02*
X055431Y049412D01*
X054970Y049873D02*
Y051230D01*
X055570Y051830D01*
X052420Y047680D02*
X053170D01*
X050420Y047580D02*
Y048580D01*
X049670Y037030D02*
Y037830D01*
Y038680D01*
X030953Y023563D02*
Y023883D01*
X028920Y021530D02*
X030953Y023563D01*
X028620Y021530D02*
X028920D01*
X047520Y022080D02*
X049570D01*
X052470Y021730D02*
X055120Y019080D01*
X052070Y021730D02*
X052470D01*
X055120Y016930D02*
Y019080D01*
X049570Y022080D02*
X052017Y019633D01*
X052367D01*
X054420Y017580D01*
X047520Y022930D02*
X048120D01*
X048870Y023680D02*
Y024130D01*
X048120Y022930D02*
X048870Y023680D01*
X053320Y017680D02*
X053420D01*
X053220Y016580D02*
X053320Y016680D01*
X053420D01*
D39*
X044220Y037030D02*
Y037780D01*
X043670Y036480D02*
X044220Y037030D01*
X042670Y036480D02*
X043670D01*
X042220Y036030D02*
X042670Y036480D01*
X043720Y037230D02*
Y037780D01*
X043520Y037030D02*
X043720Y037230D01*
X042220Y037030D02*
X043520D01*
Y038980D02*
Y039630D01*
X043220Y037780D02*
Y038330D01*
X043520Y038630D01*
Y038980D01*
X044720Y037780D02*
Y038280D01*
X044370Y038630D02*
X044720Y038280D01*
X044370Y038630D02*
Y038980D01*
X043250Y041050D02*
Y041530D01*
Y041050D02*
X043520Y040780D01*
Y040330D02*
Y040780D01*
X044750Y041060D02*
Y041530D01*
X044370Y040680D02*
X044750Y041060D01*
X044370Y040330D02*
Y040680D01*
X043750Y042430D02*
X044150Y042830D01*
X043750Y041530D02*
Y042430D01*
X044150Y042830D02*
X045320D01*
X045770Y043280D01*
X044470Y042280D02*
X045770D01*
X044250Y042060D02*
X044470Y042280D01*
X044250Y041530D02*
Y042060D01*
X043250Y043830D02*
Y044500D01*
X042570Y045180D02*
X043250Y044500D01*
X042570Y045180D02*
Y045880D01*
X043120Y046430D01*
X044750Y043830D02*
Y045800D01*
X044120Y046430D02*
X044750Y045800D01*
X044250Y043830D02*
Y044900D01*
X044120Y045030D02*
X044250Y044900D01*
X044120Y045030D02*
Y045430D01*
X043750Y043830D02*
Y044800D01*
X043120Y045430D02*
X043750Y044800D01*
X044520Y032380D02*
X045120Y032980D01*
Y034030D01*
X044720Y034430D02*
X045120Y034030D01*
X044720Y034430D02*
Y035480D01*
X044220Y034630D02*
Y034980D01*
Y034180D02*
Y034630D01*
Y035480D01*
X043720Y034530D02*
Y034980D01*
Y034230D02*
Y034530D01*
Y035480D01*
X043220Y034580D02*
Y034980D01*
Y034330D02*
Y034580D01*
Y035480D01*
X044520Y033380D02*
Y033880D01*
X044220Y034180D02*
X044520Y033880D01*
X043520Y033380D02*
Y034030D01*
X043720Y034230D01*
X042820Y033080D02*
X043520Y032380D01*
X042820Y033080D02*
Y033930D01*
X043220Y034330D01*
X028820Y022280D02*
X029270Y022730D01*
Y022930D01*
X029620Y032530D02*
Y032930D01*
X029870Y033180D01*
X029470Y030880D02*
X029920D01*
X030170Y031130D01*
X029870Y034530D02*
X030470Y035130D01*
X029870Y033180D02*
Y034530D01*
X033220Y034730D02*
X033770Y034180D01*
X030170Y031130D02*
Y034330D01*
X030570Y034730D01*
X033220D01*
X030470Y035130D02*
X033620D01*
X034320Y034430D01*
Y033730D02*
Y034430D01*
X033770Y033180D02*
X034320Y033730D01*
X042170Y019580D02*
X043270D01*
X040770Y021680D02*
X041270D01*
X039970Y022480D02*
X040770Y021680D01*
X039670Y022480D02*
X039970D01*
X041970Y019780D02*
X042170Y019580D01*
X041970Y019780D02*
Y020280D01*
X041470Y021880D02*
Y022580D01*
X041270Y021680D02*
X041470Y021880D01*
X054670Y048980D02*
X054920D01*
X054320Y048630D02*
X054670Y048980D01*
X053170Y046830D02*
X054920D01*
X041520Y048930D02*
Y049380D01*
X041420Y048830D02*
X041520Y048930D01*
X040020Y048830D02*
X041420D01*
X039720Y049130D02*
X040020Y048830D01*
X038120Y049130D02*
X039720D01*
X029970Y023500D02*
X030353Y023883D01*
X029970Y023430D02*
Y023500D01*
X033670Y034080D02*
X033770Y033980D01*
Y032980D02*
X033870Y033080D01*
D40*
X027120Y048330D02*
Y051630D01*
X055570Y052430D02*
Y053430D01*
X054730Y054270D02*
X055570Y053430D01*
X048860Y054270D02*
X054730D01*
X048720Y054130D02*
X048860Y054270D01*
X031060D02*
X034870D01*
X029820Y053030D02*
X031060Y054270D01*
X042922Y023428D02*
X043315Y023035D01*
X044514Y021836D01*
X023091Y017209D02*
X023860Y016440D01*
X023091Y017209D02*
Y018309D01*
X022710Y018690D02*
X023091Y018309D01*
X023860Y016440D02*
X026380D01*
X028420Y018480D02*
Y019230D01*
X028120Y019530D02*
X028420Y019230D01*
X027370Y019530D02*
X028120D01*
X026380Y016440D02*
X028420Y018480D01*
X040620Y026480D02*
Y027930D01*
X042620Y023730D02*
Y024480D01*
Y023730D02*
X042922Y023428D01*
X041542Y025558D02*
X042620Y024480D01*
X040620Y026480D02*
X041542Y025558D01*
X044514Y021836D02*
X045070Y021280D01*
X045520D01*
X046570Y020230D02*
X047220D01*
X045520Y021280D02*
X046570Y020230D01*
X028240Y053630D02*
X029020D01*
X027120Y052510D02*
X028240Y053630D01*
X027120Y051630D02*
Y052510D01*
X034870Y054270D02*
X039220D01*
X048470Y033930D02*
Y035480D01*
Y033930D02*
X050070Y032330D01*
X056770D02*
X057496Y033056D01*
X048470Y035480D02*
Y045780D01*
X046970Y047280D02*
X048470Y045780D01*
X046970Y047280D02*
Y047880D01*
X051470Y032330D02*
X056770D01*
X050070D02*
X051470D01*
X029620Y049080D02*
Y049830D01*
X029820Y050030D02*
Y053030D01*
X029620Y049830D02*
X029820Y050030D01*
D41*
X054220Y044230D02*
X054223Y044233D01*
Y044850D01*
X053967Y047350D02*
X054223D01*
X054320Y048326D02*
X054735Y047912D01*
Y047350D02*
Y047912D01*
X055170Y046830D02*
X055246Y046906D01*
Y047340D01*
X055758Y047330D02*
Y048368D01*
X055770Y048380D01*
X056014Y047874D02*
X056270Y048130D01*
Y049730D01*
X055480Y048980D02*
X055770D01*
X055400Y048900D02*
X055480Y048980D01*
X055400Y048110D02*
Y048900D01*
Y048110D02*
X055502Y048007D01*
Y047330D02*
Y048007D01*
X053720Y044850D02*
X053967D01*
X053700Y044830D02*
X053720Y044850D01*
X053220Y044830D02*
X053700D01*
X053220D02*
X053240Y044850D01*
X055758Y045518D02*
X055770Y045530D01*
X055758Y044830D02*
Y045518D01*
X053170Y042380D02*
X055246Y044456D01*
X053170Y041830D02*
Y042380D01*
X055246Y044456D02*
Y044840D01*
X042220Y053180D02*
Y053280D01*
X041620Y052580D02*
X042220Y053180D01*
X041620Y052180D02*
Y052580D01*
X041364Y053274D02*
X041370Y053280D01*
X041364Y052180D02*
Y053274D01*
X040852Y052180D02*
Y052598D01*
X040670Y049380D02*
Y049580D01*
X041108Y050018D01*
Y050380D01*
X041520Y049380D02*
Y049830D01*
X041364Y049986D02*
X041520Y049830D01*
X041364Y049986D02*
Y050380D01*
X041620D02*
X041870D01*
X039920Y050780D02*
X040720D01*
X040852Y050648D01*
X042020Y050830D02*
X042620D01*
X041970Y050880D02*
X042020Y050830D01*
X041220Y050880D02*
X041970D01*
X041108Y050768D02*
X041220Y050880D01*
X041108Y050380D02*
Y050768D01*
X040852Y050380D02*
Y050648D01*
X042020Y051680D02*
X042070Y051730D01*
X041420Y051680D02*
X042020D01*
X041364Y051736D02*
X041420Y051680D01*
X041364Y051736D02*
Y052180D01*
X040970Y051680D02*
X041108Y051818D01*
Y052180D01*
X045120Y023630D02*
Y025030D01*
X021348Y029788D02*
X021608Y030048D01*
X021864Y029596D02*
Y030430D01*
Y029596D02*
X021870Y029590D01*
X021608Y030048D02*
Y030430D01*
X021320Y033700D02*
Y034080D01*
Y033700D02*
X021608Y033412D01*
Y032930D02*
Y033412D01*
X021352Y030430D02*
Y030758D01*
X021220Y030890D02*
X021352Y030758D01*
X020510Y030890D02*
X021220D01*
X020520Y032430D02*
X021250D01*
X021352Y032532D01*
Y032930D01*
X022500Y031780D02*
X022920D01*
X022120Y031400D02*
X022500Y031780D01*
X022120Y030430D02*
Y031400D01*
X057120Y048630D02*
Y049580D01*
X056014Y047330D02*
Y047874D01*
X056270Y047330D02*
Y047780D01*
X057120Y048630D01*
X053920Y049030D02*
Y049130D01*
Y050530D01*
X054479Y047350D02*
Y047821D01*
X053920Y048380D02*
X054479Y047821D01*
X053920Y048380D02*
Y049130D01*
X054920Y048080D02*
Y048380D01*
Y048080D02*
X054990Y048010D01*
Y047340D02*
Y048010D01*
X054479Y044850D02*
Y045271D01*
X054320Y045430D02*
X054479Y045271D01*
X053850Y047350D02*
X053967D01*
X053170Y047680D02*
X053520D01*
X053850Y047350D01*
X054735Y044850D02*
Y045415D01*
X054320Y045830D02*
X054735Y045415D01*
X052720Y045830D02*
X054320D01*
X054990Y044840D02*
Y045560D01*
X054370Y046180D02*
X054990Y045560D01*
X052520Y046180D02*
X054370D01*
X053020Y045430D02*
X054320D01*
X055502Y044312D02*
Y044830D01*
X054170Y041830D02*
Y042980D01*
X055502Y044312D01*
X056270Y044330D02*
Y044830D01*
Y044330D02*
X056720Y043880D01*
Y043380D02*
Y043880D01*
X056014Y044324D02*
Y044830D01*
X055820Y043380D02*
Y044130D01*
X056014Y044324D01*
X054320Y048326D02*
Y048630D01*
X054920Y046830D02*
X055170D01*
X041870Y050380D02*
X042072Y050178D01*
X040520Y051680D02*
X040970D01*
X040729Y052721D02*
X040852Y052598D01*
X042070Y051730D02*
X042620D01*
X021864Y032136D02*
Y032930D01*
Y032136D02*
X021870Y032130D01*
X044970Y025180D02*
X045120Y025030D01*
X044670Y025180D02*
X044970D01*
X055502Y046798D02*
Y047330D01*
Y046798D02*
X055720Y046580D01*
X039920Y051730D02*
X039970Y051680D01*
D42*
X042220Y027780D02*
X042720Y027280D01*
X043470D01*
D43*
X022080Y023430D02*
X022730Y024080D01*
X021570Y023430D02*
X022080D01*
X021620Y026890D02*
Y027610D01*
X021570Y026840D02*
X021620Y026890D01*
X021570Y025430D02*
Y026840D01*
X024720Y029640D02*
X025170Y030090D01*
X023970Y030550D02*
Y031560D01*
X023366Y029946D02*
X023970Y030550D01*
X022730Y024080D02*
Y024680D01*
Y025080D01*
Y024680D02*
Y026390D01*
X023795Y027455D01*
X024630Y022470D02*
Y026980D01*
Y028680D02*
Y029550D01*
X025170Y030090D02*
Y030950D01*
X025570Y021530D02*
X027620D01*
X028620D01*
X025265Y021835D02*
X025570Y021530D01*
X024630Y022470D02*
X025265Y021835D01*
D44*
X020430Y020970D02*
Y028050D01*
Y020970D02*
X022710Y018690D01*
D45*
X022000Y036750D02*
X022070Y036680D01*
X021420Y037330D02*
X022000Y036750D01*
X021420Y037330D02*
Y037770D01*
X022920Y034710D02*
Y035830D01*
Y032390D02*
Y033450D01*
X022743Y036012D02*
X022920Y035830D01*
X021420Y039310D02*
Y039650D01*
X020920Y040150D02*
X021420Y039650D01*
X020920Y040150D02*
Y040680D01*
X021670Y044220D02*
Y044830D01*
X020920Y043470D02*
X021670Y044220D01*
X020920Y042680D02*
Y043470D01*
X021670Y046140D02*
Y048080D01*
D46*
X022920Y034080D02*
Y034710D01*
Y033450D02*
Y034080D01*
Y031780D02*
Y032390D01*
D47*
Y039530D02*
X023920D01*
D48*
X026770Y029530D02*
X027570D01*
X031270Y027980D02*
Y028380D01*
X029370Y030280D02*
X031270Y028380D01*
X025360Y030280D02*
X029370D01*
X030920Y026430D02*
X031270Y026780D01*
X030920Y026080D02*
Y026430D01*
X027770Y028930D02*
X028120D01*
X027570Y029130D02*
X027770Y028930D01*
X027570Y029130D02*
Y029530D01*
X025170Y030090D02*
X025360Y030280D01*
X039570Y028830D02*
X040570D01*
X040620Y028880D01*
X021320Y021430D02*
Y022130D01*
X022170Y021430D02*
X023420D01*
X024270D02*
X024859D01*
X025265Y021835D01*
X041820Y023630D02*
Y024230D01*
X041670Y024380D02*
X041820Y024230D01*
X039670Y020930D02*
Y021630D01*
X043270Y019580D02*
Y020430D01*
X043470Y020630D01*
X025220Y035630D02*
X026020D01*
X025170Y035580D02*
X025220Y035630D01*
X026020D02*
Y036030D01*
X026370Y036380D01*
X027870D01*
X026870Y035230D02*
Y035630D01*
X026220Y034580D02*
X026870Y035230D01*
X026220Y034430D02*
Y034580D01*
X028220Y034430D02*
X028870Y035080D01*
Y035380D01*
X057570Y034080D02*
Y034530D01*
X057170Y033680D02*
X057570Y034080D01*
X055470Y033680D02*
X057170D01*
X054720Y034430D02*
X055470Y033680D01*
X038520Y046030D02*
X039320D01*
X039770Y046480D01*
X040270D01*
X038520Y045130D02*
X039370D01*
X039720Y045480D01*
X040270D01*
X034620Y045730D02*
Y048020D01*
D49*
X019520Y014730D02*
X019787D01*
X019653D01*
Y014330D01*
X020120Y014730D02*
X019987D01*
X019920Y014663D01*
Y014397D01*
X019987Y014330D01*
X020120D01*
X020186Y014397D01*
Y014663D01*
X020120Y014730D01*
X020320Y014330D02*
Y014730D01*
X020520D01*
X020586Y014663D01*
Y014530D01*
X020520Y014463D01*
X020320D01*
X021119Y014730D02*
Y014330D01*
X021386D01*
X021519D02*
Y014597D01*
X021653Y014730D01*
X021786Y014597D01*
Y014330D01*
Y014530D01*
X021519D01*
X021919Y014730D02*
Y014663D01*
X022053Y014530D01*
X022186Y014663D01*
Y014730D01*
X022053Y014530D02*
Y014330D01*
X022586Y014730D02*
X022319D01*
Y014330D01*
X022586D01*
X022319Y014530D02*
X022452D01*
X022719Y014330D02*
Y014730D01*
X022919D01*
X022986Y014663D01*
Y014530D01*
X022919Y014463D01*
X022719D01*
X022852D02*
X022986Y014330D01*
D50*
X038570Y029980D02*
D03*
X037320Y024630D02*
D03*
X038570Y028830D02*
D03*
X025070Y054080D02*
D03*
X030770Y033180D02*
D03*
X048320Y031280D02*
D03*
D51*
X039570Y029980D02*
D03*
X053920Y053530D02*
D03*
Y050530D02*
D03*
X050920Y053530D02*
D03*
Y050530D02*
D03*
X034370Y049080D02*
D03*
X044420Y051780D02*
D03*
Y050780D02*
D03*
X043170Y053280D02*
D03*
X038120Y049130D02*
D03*
X031270Y049180D02*
D03*
Y052680D02*
D03*
X038120Y051280D02*
D03*
Y050130D02*
D03*
Y052280D02*
D03*
X036270Y052380D02*
D03*
Y050080D02*
D03*
X047370Y025480D02*
D03*
Y026480D02*
D03*
Y027730D02*
D03*
Y028730D02*
D03*
X053270Y025730D02*
D03*
Y024730D02*
D03*
Y027780D02*
D03*
Y028780D02*
D03*
X043470Y020630D02*
D03*
X056270Y049830D02*
D03*
X028620Y046680D02*
D03*
X029470Y039230D02*
D03*
X027970Y049080D02*
D03*
X029620D02*
D03*
X036320Y024630D02*
D03*
Y022330D02*
D03*
X022920Y039530D02*
D03*
X039570Y028830D02*
D03*
X038570Y024630D02*
D03*
X039570Y025630D02*
D03*
X038570D02*
D03*
Y026630D02*
D03*
Y027630D02*
D03*
X039570D02*
D03*
Y026630D02*
D03*
Y033180D02*
D03*
Y034180D02*
D03*
X038570D02*
D03*
Y033180D02*
D03*
Y032180D02*
D03*
X039570D02*
D03*
X038570Y031180D02*
D03*
X024070Y054080D02*
D03*
X028220Y033430D02*
D03*
X042670Y016580D02*
D03*
X053420Y017580D02*
D03*
X042220Y027780D02*
D03*
X025920Y026130D02*
D03*
Y023830D02*
D03*
X032370Y017880D02*
D03*
X030770Y034180D02*
D03*
X031770Y033180D02*
D03*
Y034180D02*
D03*
X032770D02*
D03*
X033770D02*
D03*
Y033180D02*
D03*
X032770D02*
D03*
X057420Y035430D02*
D03*
X049320Y031280D02*
D03*
X057970Y048080D02*
D03*
X054170Y041830D02*
D03*
X053170D02*
D03*
X055770Y040480D02*
D03*
X057620Y044430D02*
D03*
X053220Y044830D02*
D03*
X049320Y042830D02*
D03*
X045620Y048980D02*
D03*
X029870Y037780D02*
D03*
X028620Y042930D02*
D03*
X026320Y049080D02*
D03*
X044170Y053280D02*
D03*
X036270Y051230D02*
D03*
X031270Y050930D02*
D03*
X043520Y033380D02*
D03*
X044120Y045430D02*
D03*
X042220Y036030D02*
D03*
X045770Y043280D02*
D03*
X033570Y043080D02*
D03*
X040270Y045480D02*
D03*
X033570Y044480D02*
D03*
X040270Y046480D02*
D03*
Y044230D02*
D03*
Y041980D02*
D03*
X033570Y041680D02*
D03*
X040270Y042980D02*
D03*
X031270Y042930D02*
D03*
Y046680D02*
D03*
X039170Y036480D02*
D03*
X026920Y027430D02*
D03*
X036570Y033180D02*
D03*
X026320Y042930D02*
D03*
X057970Y039330D02*
D03*
D52*
X054670Y027980D02*
D03*
D53*
Y026888D02*
D03*
Y025797D02*
D03*
Y024705D02*
D03*
Y023613D02*
D03*
X055670Y027430D02*
D03*
Y026338D02*
D03*
Y025247D02*
D03*
Y024155D02*
D03*
D54*
X055170Y030722D02*
D03*
Y020880D02*
D03*
D55*
X023970Y045880D02*
D03*
X025545D02*
D03*
X034977Y035873D02*
D03*
X036091Y036986D02*
D03*
X048720Y053146D02*
D03*
Y054130D02*
D03*
X047666Y049276D02*
D03*
X046970Y048580D02*
D03*
X023778Y028482D02*
D03*
X024630Y027990D02*
D03*
X022472Y027988D02*
D03*
X021620Y028480D02*
D03*
X022420Y036330D02*
D03*
X020845D02*
D03*
X021670Y045530D02*
D03*
X020686D02*
D03*
X032520Y047030D02*
D03*
X036370Y039380D02*
D03*
X045070Y038980D02*
D03*
X042820Y040330D02*
D03*
X055520Y050030D02*
D03*
X048470Y035480D02*
D03*
X046320Y037830D02*
D03*
X050770Y035480D02*
D03*
X051170Y037930D02*
D03*
Y036280D02*
D03*
X055770Y045530D02*
D03*
X054720Y034430D02*
D03*
X045370Y028480D02*
D03*
X022620Y030240D02*
D03*
X020510Y030890D02*
D03*
X051170Y028980D02*
D03*
X050570Y028480D02*
D03*
X051120Y027480D02*
D03*
X027570Y029530D02*
D03*
X033870Y027330D02*
D03*
X021320Y022130D02*
D03*
X039670Y020930D02*
D03*
X041620Y024380D02*
D03*
X042470Y021030D02*
D03*
X038970Y020180D02*
D03*
X047420Y018880D02*
D03*
X046620Y021380D02*
D03*
X051770Y018380D02*
D03*
X052820Y022630D02*
D03*
X050520Y024680D02*
D03*
X057620Y041580D02*
D03*
X049670Y037830D02*
D03*
X038520Y040480D02*
D03*
X020570Y039330D02*
D03*
X021870Y032130D02*
D03*
X043870Y025880D02*
D03*
X033770Y046530D02*
D03*
D56*
X053520Y036430D02*
D03*
Y035430D02*
D03*
Y034430D02*
D03*
X056520D02*
D03*
Y035430D02*
D03*
Y036430D02*
D03*
Y037430D02*
D03*
X026220Y038230D02*
D03*
X028220D02*
D03*
X029020Y053630D02*
D03*
Y052630D02*
D03*
Y051630D02*
D03*
Y050630D02*
D03*
X026020D02*
D03*
Y051630D02*
D03*
Y052630D02*
D03*
D57*
X053520Y037430D02*
D03*
X026020Y053630D02*
D03*
D58*
X037320Y022330D02*
D03*
D59*
Y023330D02*
D03*
X036320D02*
D03*
X026220Y033430D02*
D03*
Y034430D02*
D03*
X027220Y033430D02*
D03*
Y034430D02*
D03*
X041670Y017580D02*
D03*
Y016580D02*
D03*
X054420D02*
D03*
Y017580D02*
D03*
X043220Y027780D02*
D03*
Y026780D02*
D03*
X026920Y025130D02*
D03*
Y026130D02*
D03*
Y022830D02*
D03*
Y023830D02*
D03*
X033370Y016880D02*
D03*
Y017880D02*
D03*
X050320Y042830D02*
D03*
Y041830D02*
D03*
X044520Y033380D02*
D03*
Y032380D02*
D03*
X043120Y045430D02*
D03*
Y046430D02*
D03*
X025920Y028430D02*
D03*
Y027430D02*
D03*
X035570Y034180D02*
D03*
Y033180D02*
D03*
D60*
X021570Y025430D02*
D03*
Y024430D02*
D03*
Y023430D02*
D03*
X020920Y040680D02*
D03*
Y041680D02*
D03*
Y042680D02*
D03*
D61*
X022920Y038530D02*
D03*
X039570Y024630D02*
D03*
Y031180D02*
D03*
X053220Y043830D02*
D03*
X045620Y047980D02*
D03*
X029870Y036780D02*
D03*
X042220Y037030D02*
D03*
X045770Y042280D02*
D03*
D62*
X021670Y050080D02*
D03*
D63*
Y048080D02*
D03*
D64*
X028220Y034430D02*
D03*
X042670Y017580D02*
D03*
X053420Y016580D02*
D03*
X042220Y026780D02*
D03*
X025920Y025130D02*
D03*
Y022830D02*
D03*
X032370Y016880D02*
D03*
X049320Y041830D02*
D03*
X043520Y032380D02*
D03*
X044120Y046430D02*
D03*
X026920Y028430D02*
D03*
X036570Y034180D02*
D03*
D65*
X021539Y017649D02*
D03*
X056972Y053082D02*
D03*
X021539D02*
D03*
X056972Y017649D02*
D03*
D66*
X027370Y019530D02*
D03*
X026370D02*
D03*
Y018730D02*
D03*
X027370D02*
D03*
D67*
X024508Y017676D02*
D03*
D68*
X029248Y017676D02*
D03*
D69*
X044570Y048830D02*
D03*
X023570Y047980D02*
D03*
X054220Y044230D02*
D03*
X052420Y047680D02*
D03*
X054320Y048630D02*
D03*
X039020Y053530D02*
D03*
X036070Y053630D02*
D03*
X030920Y036430D02*
D03*
X030620Y027133D02*
D03*
X028770Y028310D02*
D03*
X028270Y029630D02*
D03*
X028870D02*
D03*
X031751Y025730D02*
D03*
X032342D02*
D03*
X032370Y029080D02*
D03*
X031770D02*
D03*
X028820Y022280D02*
D03*
X028270Y022330D02*
D03*
Y030880D02*
D03*
Y031430D02*
D03*
X034570Y033180D02*
D03*
X027970Y039980D02*
D03*
X051270Y025980D02*
D03*
X052670Y026480D02*
D03*
X036470Y049130D02*
D03*
X050470Y044530D02*
D03*
X051470Y044480D02*
D03*
Y046630D02*
D03*
X031270Y026780D02*
D03*
Y027980D02*
D03*
X031420Y022080D02*
D03*
X033720D02*
D03*
X029970Y023430D02*
D03*
X055720Y046580D02*
D03*
X032620Y019040D02*
D03*
M02*
