%FSAX24Y24*%
%MOIN*%
G70*
G01*
G75*
G04 Layer_Color=8388736*
%ADD10C,0.0100*%
%ADD11R,0.0630X0.0512*%
%ADD12R,0.0512X0.0630*%
%ADD13R,0.0400X0.0400*%
%ADD14R,0.0400X0.0400*%
%ADD15R,0.0532X0.0394*%
%ADD16R,0.0374X0.0394*%
G04:AMPARAMS|DCode=17|XSize=86.6mil|YSize=27.6mil|CornerRadius=6.9mil|HoleSize=0mil|Usage=FLASHONLY|Rotation=90.000|XOffset=0mil|YOffset=0mil|HoleType=Round|Shape=RoundedRectangle|*
%AMROUNDEDRECTD17*
21,1,0.0866,0.0138,0,0,90.0*
21,1,0.0728,0.0276,0,0,90.0*
1,1,0.0138,0.0069,0.0364*
1,1,0.0138,0.0069,-0.0364*
1,1,0.0138,-0.0069,-0.0364*
1,1,0.0138,-0.0069,0.0364*
%
%ADD17ROUNDEDRECTD17*%
%ADD18O,0.0276X0.0866*%
G04:AMPARAMS|DCode=19|XSize=59.1mil|YSize=15.7mil|CornerRadius=3.9mil|HoleSize=0mil|Usage=FLASHONLY|Rotation=270.000|XOffset=0mil|YOffset=0mil|HoleType=Round|Shape=RoundedRectangle|*
%AMROUNDEDRECTD19*
21,1,0.0591,0.0079,0,0,270.0*
21,1,0.0512,0.0157,0,0,270.0*
1,1,0.0079,-0.0039,-0.0256*
1,1,0.0079,-0.0039,0.0256*
1,1,0.0079,0.0039,0.0256*
1,1,0.0079,0.0039,-0.0256*
%
%ADD19ROUNDEDRECTD19*%
%ADD20R,0.0600X0.0470*%
%ADD21R,0.0472X0.0591*%
%ADD22R,0.0591X0.0472*%
%ADD23R,0.0600X0.0825*%
%ADD24R,0.0550X0.0650*%
%ADD25R,0.0650X0.0550*%
G04:AMPARAMS|DCode=26|XSize=10.2mil|YSize=82.7mil|CornerRadius=2.6mil|HoleSize=0mil|Usage=FLASHONLY|Rotation=270.000|XOffset=0mil|YOffset=0mil|HoleType=Round|Shape=RoundedRectangle|*
%AMROUNDEDRECTD26*
21,1,0.0102,0.0776,0,0,270.0*
21,1,0.0051,0.0827,0,0,270.0*
1,1,0.0051,-0.0388,-0.0026*
1,1,0.0051,-0.0388,0.0026*
1,1,0.0051,0.0388,0.0026*
1,1,0.0051,0.0388,-0.0026*
%
%ADD26ROUNDEDRECTD26*%
G04:AMPARAMS|DCode=27|XSize=10.2mil|YSize=82.7mil|CornerRadius=2.6mil|HoleSize=0mil|Usage=FLASHONLY|Rotation=0.000|XOffset=0mil|YOffset=0mil|HoleType=Round|Shape=RoundedRectangle|*
%AMROUNDEDRECTD27*
21,1,0.0102,0.0776,0,0,0.0*
21,1,0.0051,0.0827,0,0,0.0*
1,1,0.0051,0.0026,-0.0388*
1,1,0.0051,-0.0026,-0.0388*
1,1,0.0051,-0.0026,0.0388*
1,1,0.0051,0.0026,0.0388*
%
%ADD27ROUNDEDRECTD27*%
%ADD28R,0.0394X0.0394*%
%ADD29R,0.1969X0.0827*%
G04:AMPARAMS|DCode=30|XSize=86.6mil|YSize=27.6mil|CornerRadius=6.9mil|HoleSize=0mil|Usage=FLASHONLY|Rotation=0.000|XOffset=0mil|YOffset=0mil|HoleType=Round|Shape=RoundedRectangle|*
%AMROUNDEDRECTD30*
21,1,0.0866,0.0138,0,0,0.0*
21,1,0.0728,0.0276,0,0,0.0*
1,1,0.0138,0.0364,-0.0069*
1,1,0.0138,-0.0364,-0.0069*
1,1,0.0138,-0.0364,0.0069*
1,1,0.0138,0.0364,0.0069*
%
%ADD30ROUNDEDRECTD30*%
%ADD31O,0.0866X0.0276*%
%ADD32R,0.0394X0.0374*%
%ADD33R,0.0394X0.0532*%
%ADD34C,0.1000*%
%ADD35C,0.0400*%
%ADD36C,0.0500*%
%ADD37C,0.0250*%
%ADD38C,0.0300*%
%ADD39C,0.0200*%
%ADD40C,0.0600*%
%ADD41C,0.0150*%
%ADD42C,0.0180*%
%ADD43C,0.0650*%
%ADD44C,0.0800*%
%ADD45C,0.0700*%
%ADD46C,0.0450*%
%ADD47C,0.0550*%
%ADD48C,0.0350*%
%ADD49C,0.0110*%
%ADD50P,0.0682X8X22.5*%
%ADD51C,0.0630*%
%ADD52P,0.0671X8X292.5*%
%ADD53C,0.0620*%
%ADD54C,0.1967*%
%ADD55C,0.0500*%
%ADD56C,0.0591*%
%ADD57R,0.0591X0.0591*%
%ADD58P,0.0649X8X112.5*%
%ADD59C,0.0600*%
%ADD60C,0.0709*%
%ADD61P,0.0682X8X112.5*%
%ADD62C,0.0787*%
%ADD63R,0.0787X0.0787*%
%ADD64P,0.0649X8X202.5*%
%ADD65C,0.1614*%
%ADD66C,0.0610*%
%ADD67C,0.1181*%
%ADD68C,0.1181*%
%ADD69C,0.0450*%
%ADD70C,0.0160*%
%ADD71C,0.0080*%
%ADD72C,0.0090*%
%ADD73C,0.0120*%
%ADD74C,0.0079*%
%ADD75R,0.0710X0.0592*%
%ADD76R,0.0592X0.0710*%
%ADD77R,0.0480X0.0480*%
%ADD78R,0.0480X0.0480*%
%ADD79R,0.0612X0.0474*%
%ADD80R,0.0454X0.0474*%
G04:AMPARAMS|DCode=81|XSize=94.6mil|YSize=35.6mil|CornerRadius=8.9mil|HoleSize=0mil|Usage=FLASHONLY|Rotation=90.000|XOffset=0mil|YOffset=0mil|HoleType=Round|Shape=RoundedRectangle|*
%AMROUNDEDRECTD81*
21,1,0.0946,0.0178,0,0,90.0*
21,1,0.0768,0.0356,0,0,90.0*
1,1,0.0178,0.0089,0.0384*
1,1,0.0178,0.0089,-0.0384*
1,1,0.0178,-0.0089,-0.0384*
1,1,0.0178,-0.0089,0.0384*
%
%ADD81ROUNDEDRECTD81*%
%ADD82O,0.0356X0.0946*%
G04:AMPARAMS|DCode=83|XSize=62.6mil|YSize=19.2mil|CornerRadius=4.8mil|HoleSize=0mil|Usage=FLASHONLY|Rotation=270.000|XOffset=0mil|YOffset=0mil|HoleType=Round|Shape=RoundedRectangle|*
%AMROUNDEDRECTD83*
21,1,0.0626,0.0096,0,0,270.0*
21,1,0.0529,0.0192,0,0,270.0*
1,1,0.0096,-0.0048,-0.0265*
1,1,0.0096,-0.0048,0.0265*
1,1,0.0096,0.0048,0.0265*
1,1,0.0096,0.0048,-0.0265*
%
%ADD83ROUNDEDRECTD83*%
%ADD84R,0.0680X0.0550*%
%ADD85R,0.0552X0.0671*%
%ADD86R,0.0671X0.0552*%
%ADD87R,0.0680X0.0905*%
%ADD88R,0.0630X0.0730*%
G04:AMPARAMS|DCode=89|XSize=62.1mil|YSize=18.7mil|CornerRadius=4.7mil|HoleSize=0mil|Usage=FLASHONLY|Rotation=270.000|XOffset=0mil|YOffset=0mil|HoleType=Round|Shape=RoundedRectangle|*
%AMROUNDEDRECTD89*
21,1,0.0621,0.0094,0,0,270.0*
21,1,0.0527,0.0187,0,0,270.0*
1,1,0.0094,-0.0047,-0.0263*
1,1,0.0094,-0.0047,0.0263*
1,1,0.0094,0.0047,0.0263*
1,1,0.0094,0.0047,-0.0263*
%
%ADD89ROUNDEDRECTD89*%
%ADD90R,0.0730X0.0630*%
G04:AMPARAMS|DCode=91|XSize=13.2mil|YSize=85.7mil|CornerRadius=3.3mil|HoleSize=0mil|Usage=FLASHONLY|Rotation=270.000|XOffset=0mil|YOffset=0mil|HoleType=Round|Shape=RoundedRectangle|*
%AMROUNDEDRECTD91*
21,1,0.0132,0.0791,0,0,270.0*
21,1,0.0066,0.0857,0,0,270.0*
1,1,0.0066,-0.0395,-0.0033*
1,1,0.0066,-0.0395,0.0033*
1,1,0.0066,0.0395,0.0033*
1,1,0.0066,0.0395,-0.0033*
%
%ADD91ROUNDEDRECTD91*%
G04:AMPARAMS|DCode=92|XSize=13.2mil|YSize=85.7mil|CornerRadius=3.3mil|HoleSize=0mil|Usage=FLASHONLY|Rotation=0.000|XOffset=0mil|YOffset=0mil|HoleType=Round|Shape=RoundedRectangle|*
%AMROUNDEDRECTD92*
21,1,0.0132,0.0791,0,0,0.0*
21,1,0.0066,0.0857,0,0,0.0*
1,1,0.0066,0.0033,-0.0395*
1,1,0.0066,-0.0033,-0.0395*
1,1,0.0066,-0.0033,0.0395*
1,1,0.0066,0.0033,0.0395*
%
%ADD92ROUNDEDRECTD92*%
%ADD93R,0.0474X0.0474*%
%ADD94R,0.2049X0.0907*%
G04:AMPARAMS|DCode=95|XSize=94.6mil|YSize=35.6mil|CornerRadius=8.9mil|HoleSize=0mil|Usage=FLASHONLY|Rotation=0.000|XOffset=0mil|YOffset=0mil|HoleType=Round|Shape=RoundedRectangle|*
%AMROUNDEDRECTD95*
21,1,0.0946,0.0178,0,0,0.0*
21,1,0.0768,0.0356,0,0,0.0*
1,1,0.0178,0.0384,-0.0089*
1,1,0.0178,-0.0384,-0.0089*
1,1,0.0178,-0.0384,0.0089*
1,1,0.0178,0.0384,0.0089*
%
%ADD95ROUNDEDRECTD95*%
%ADD96O,0.0946X0.0356*%
%ADD97R,0.0474X0.0454*%
%ADD98R,0.0474X0.0612*%
%ADD99P,0.0768X8X22.5*%
%ADD100C,0.0710*%
%ADD101P,0.0758X8X292.5*%
%ADD102C,0.0700*%
%ADD103C,0.2047*%
%ADD104C,0.0580*%
%ADD105C,0.0671*%
%ADD106R,0.0671X0.0671*%
%ADD107P,0.0736X8X112.5*%
%ADD108C,0.0680*%
%ADD109C,0.0789*%
%ADD110P,0.0768X8X112.5*%
%ADD111C,0.0867*%
%ADD112R,0.0867X0.0867*%
%ADD113P,0.0736X8X202.5*%
%ADD114C,0.1694*%
%ADD115C,0.0690*%
%ADD116C,0.1261*%
%ADD117C,0.1261*%
D10*
X019570Y015680D02*
Y055050D01*
X058940Y015680D02*
Y055050D01*
X019570D02*
X058940D01*
X019570Y015680D02*
X058940D01*
D49*
X019520Y013750D02*
X019787D01*
X019653D01*
Y013350D01*
X020120Y013750D02*
X019987D01*
X019920Y013683D01*
Y013417D01*
X019987Y013350D01*
X020120D01*
X020186Y013417D01*
Y013683D01*
X020120Y013750D01*
X020320Y013350D02*
Y013750D01*
X020520D01*
X020586Y013683D01*
Y013550D01*
X020520Y013483D01*
X020320D01*
X021386Y013683D02*
X021319Y013750D01*
X021186D01*
X021119Y013683D01*
Y013617D01*
X021186Y013550D01*
X021319D01*
X021386Y013483D01*
Y013417D01*
X021319Y013350D01*
X021186D01*
X021119Y013417D01*
X021719Y013750D02*
X021586D01*
X021519Y013683D01*
Y013417D01*
X021586Y013350D01*
X021719D01*
X021786Y013417D01*
Y013683D01*
X021719Y013750D01*
X021919D02*
Y013350D01*
X022186D01*
X022319Y013750D02*
Y013350D01*
X022519D01*
X022586Y013417D01*
Y013683D01*
X022519Y013750D01*
X022319D01*
X022986D02*
X022719D01*
Y013350D01*
X022986D01*
X022719Y013550D02*
X022852D01*
X023119Y013350D02*
Y013750D01*
X023319D01*
X023385Y013683D01*
Y013550D01*
X023319Y013483D01*
X023119D01*
X023252D02*
X023385Y013350D01*
D75*
X049270Y050480D02*
D03*
Y049630D02*
D03*
X046220Y051480D02*
D03*
Y052330D02*
D03*
X027870Y035530D02*
D03*
Y036380D02*
D03*
X022920Y030930D02*
D03*
Y031780D02*
D03*
X044620Y026730D02*
D03*
Y025880D02*
D03*
X027420Y045830D02*
D03*
Y046680D02*
D03*
X020520Y032430D02*
D03*
Y031580D02*
D03*
Y030180D02*
D03*
Y029330D02*
D03*
X047270Y051480D02*
D03*
Y052330D02*
D03*
X056720Y043380D02*
D03*
Y042530D02*
D03*
X047520Y022080D02*
D03*
Y022930D02*
D03*
X046620Y022080D02*
D03*
Y022930D02*
D03*
X039670Y021630D02*
D03*
Y022480D02*
D03*
X044620Y027580D02*
D03*
Y028430D02*
D03*
X053170Y047680D02*
D03*
Y046830D02*
D03*
X057620Y042530D02*
D03*
Y043380D02*
D03*
X055820D02*
D03*
Y042530D02*
D03*
X049320Y045030D02*
D03*
Y045880D02*
D03*
X050420Y046730D02*
D03*
Y047580D02*
D03*
X030020Y045230D02*
D03*
Y046080D02*
D03*
D76*
X025370Y049030D02*
D03*
X024520D02*
D03*
X025270Y049930D02*
D03*
X024420D02*
D03*
X047170Y053180D02*
D03*
X046320D02*
D03*
X047070Y050530D02*
D03*
X046220D02*
D03*
X049670Y037030D02*
D03*
X050520D02*
D03*
X049670Y038680D02*
D03*
X050520D02*
D03*
X052320Y039480D02*
D03*
X051470D02*
D03*
X055770Y041580D02*
D03*
X056620D02*
D03*
X032620Y053480D02*
D03*
X033470D02*
D03*
X032220Y049180D02*
D03*
X033070D02*
D03*
Y052380D02*
D03*
X032220D02*
D03*
X039070Y051680D02*
D03*
X039920D02*
D03*
X041370Y053280D02*
D03*
X042220D02*
D03*
X039720Y053530D02*
D03*
X040570D02*
D03*
X043120Y049580D02*
D03*
X042270D02*
D03*
X043470Y051730D02*
D03*
X042620D02*
D03*
X041520Y049380D02*
D03*
X040670D02*
D03*
X042620Y050830D02*
D03*
X043470D02*
D03*
X039920Y049880D02*
D03*
X039070D02*
D03*
X039920Y050780D02*
D03*
X039070D02*
D03*
Y052630D02*
D03*
X039920D02*
D03*
X026020Y035630D02*
D03*
X026870D02*
D03*
X027470Y031030D02*
D03*
X026620D02*
D03*
X027820Y032380D02*
D03*
X028670D02*
D03*
X027270Y039980D02*
D03*
X026420D02*
D03*
X024270Y021430D02*
D03*
X023420D02*
D03*
X022920Y034080D02*
D03*
X022070D02*
D03*
X021320D02*
D03*
X020470D02*
D03*
X044270Y023630D02*
D03*
X045120D02*
D03*
X046420Y026480D02*
D03*
X045570D02*
D03*
X029070Y043980D02*
D03*
X028220D02*
D03*
X036270Y016530D02*
D03*
X037120D02*
D03*
X020570Y038530D02*
D03*
X021420D02*
D03*
X057970Y049580D02*
D03*
X057120D02*
D03*
X057970Y050630D02*
D03*
X057120D02*
D03*
X047420Y018080D02*
D03*
X046570D02*
D03*
X052070Y021730D02*
D03*
X051220D02*
D03*
X052070Y022630D02*
D03*
X051220D02*
D03*
X047420Y017180D02*
D03*
X046570D02*
D03*
X051770Y017580D02*
D03*
X050920D02*
D03*
X051770Y016580D02*
D03*
X050920D02*
D03*
X046720Y024380D02*
D03*
X047570D02*
D03*
X030920Y019380D02*
D03*
X031770D02*
D03*
X034670D02*
D03*
X033820D02*
D03*
X022170Y021430D02*
D03*
X021320D02*
D03*
X038970Y018480D02*
D03*
X038120D02*
D03*
X038970Y016530D02*
D03*
X038120D02*
D03*
X036270Y017480D02*
D03*
X037120D02*
D03*
X038120D02*
D03*
X038970D02*
D03*
X038120Y019480D02*
D03*
X038970D02*
D03*
X036270Y018480D02*
D03*
X037120D02*
D03*
X036270Y019480D02*
D03*
X037120D02*
D03*
X039070Y023630D02*
D03*
X039920D02*
D03*
X041820D02*
D03*
X040970D02*
D03*
X042670Y018680D02*
D03*
X043520D02*
D03*
X043270Y019580D02*
D03*
X044120D02*
D03*
X041470Y018680D02*
D03*
X040620D02*
D03*
X025920Y029530D02*
D03*
X026770D02*
D03*
X029870Y035680D02*
D03*
X030720D02*
D03*
X046420Y027730D02*
D03*
X045570D02*
D03*
X046570Y030580D02*
D03*
X047420D02*
D03*
X043270Y029780D02*
D03*
X044120D02*
D03*
X033070Y050080D02*
D03*
X032220D02*
D03*
X049670Y034680D02*
D03*
X050520D02*
D03*
X052320Y033130D02*
D03*
X051470D02*
D03*
X052320Y035480D02*
D03*
X051470D02*
D03*
X044370Y040330D02*
D03*
X043520D02*
D03*
Y038980D02*
D03*
X044370D02*
D03*
X038520Y044230D02*
D03*
X037670D02*
D03*
X038520Y045130D02*
D03*
X037670D02*
D03*
X038520Y046030D02*
D03*
X037670D02*
D03*
X036220Y045730D02*
D03*
X035370D02*
D03*
X034620D02*
D03*
X033770D02*
D03*
X036370Y040480D02*
D03*
X037220D02*
D03*
X038520Y041380D02*
D03*
X037670D02*
D03*
X038520Y042280D02*
D03*
X037670D02*
D03*
X038520Y043180D02*
D03*
X037670D02*
D03*
X035520Y040480D02*
D03*
X034670D02*
D03*
X031720Y043980D02*
D03*
X030870D02*
D03*
D77*
X035870Y049130D02*
D03*
X035270D02*
D03*
X058170Y034530D02*
D03*
X057570D02*
D03*
X030953Y023883D02*
D03*
X030353D02*
D03*
X056270Y050680D02*
D03*
X055670D02*
D03*
X028870Y030880D02*
D03*
X029470D02*
D03*
X034870Y053380D02*
D03*
X035470D02*
D03*
D78*
X028120Y028330D02*
D03*
Y028930D02*
D03*
X054920Y048380D02*
D03*
Y048980D02*
D03*
X055770Y048380D02*
D03*
Y048980D02*
D03*
X029620Y032530D02*
D03*
Y031930D02*
D03*
D79*
X051415Y045505D02*
D03*
X052615Y038305D02*
D03*
X046565Y029405D02*
D03*
X045615Y024805D02*
D03*
X052315Y034305D02*
D03*
X052615Y036655D02*
D03*
D80*
X050470Y045130D02*
D03*
Y045880D02*
D03*
X051670Y037930D02*
D03*
Y038680D02*
D03*
X045620Y029030D02*
D03*
Y029780D02*
D03*
X044670Y024430D02*
D03*
Y025180D02*
D03*
X051370Y033930D02*
D03*
Y034680D02*
D03*
X051670Y036280D02*
D03*
Y037030D02*
D03*
D81*
X035370Y052380D02*
D03*
X034370Y050080D02*
D03*
X034870D02*
D03*
X035370D02*
D03*
X033870Y052380D02*
D03*
X034370D02*
D03*
X034870D02*
D03*
X041970Y022580D02*
D03*
X041470D02*
D03*
X040970D02*
D03*
X042470Y020280D02*
D03*
X041970D02*
D03*
X041470D02*
D03*
X042470Y022580D02*
D03*
X044720Y037780D02*
D03*
X043720Y035480D02*
D03*
X044220D02*
D03*
X044720D02*
D03*
X043220Y037780D02*
D03*
X043720D02*
D03*
X044220D02*
D03*
X043250Y041530D02*
D03*
X044250Y043830D02*
D03*
X043750D02*
D03*
X043250D02*
D03*
X044750Y041530D02*
D03*
X044250D02*
D03*
X043750D02*
D03*
X036370Y044230D02*
D03*
X035370Y041930D02*
D03*
X035870D02*
D03*
X036370D02*
D03*
X034870Y044230D02*
D03*
X035370D02*
D03*
X035870D02*
D03*
D82*
X033870Y050080D02*
D03*
X040970Y020280D02*
D03*
X043220Y035480D02*
D03*
X044750Y043830D02*
D03*
X034870Y041930D02*
D03*
D83*
X041620Y052180D02*
D03*
X041364D02*
D03*
X041108D02*
D03*
X040852D02*
D03*
Y050380D02*
D03*
X041108D02*
D03*
X041364D02*
D03*
X041620D02*
D03*
D84*
X030920Y037780D02*
D03*
Y037080D02*
D03*
X029270Y023630D02*
D03*
Y022930D02*
D03*
D85*
X044920Y020230D02*
D03*
X048070D02*
D03*
X052770D02*
D03*
X049620D02*
D03*
D86*
X048870Y024130D02*
D03*
Y020980D02*
D03*
Y019530D02*
D03*
Y016380D02*
D03*
D87*
X024070Y051280D02*
D03*
Y052380D02*
D03*
X025070Y051280D02*
D03*
Y052380D02*
D03*
D88*
X048220Y027880D02*
D03*
Y026680D02*
D03*
Y028680D02*
D03*
Y029880D02*
D03*
D89*
X022120Y032930D02*
D03*
X021864D02*
D03*
X021608D02*
D03*
X021352D02*
D03*
Y030430D02*
D03*
X021608D02*
D03*
X021864D02*
D03*
X022120D02*
D03*
X054735Y044850D02*
D03*
X054479D02*
D03*
X054223D02*
D03*
X053967D02*
D03*
Y047350D02*
D03*
X054223D02*
D03*
X054479D02*
D03*
X054735D02*
D03*
X055246Y044840D02*
D03*
X054990D02*
D03*
Y047340D02*
D03*
X055246D02*
D03*
X056270Y044830D02*
D03*
X056014D02*
D03*
X055758D02*
D03*
X055502D02*
D03*
Y047330D02*
D03*
X055758D02*
D03*
X056014D02*
D03*
X056270D02*
D03*
D90*
X049820Y025180D02*
D03*
X048620D02*
D03*
X050520Y030280D02*
D03*
X049320D02*
D03*
X051320D02*
D03*
X052520D02*
D03*
D91*
X034645Y028905D02*
D03*
Y028708D02*
D03*
Y028511D02*
D03*
Y028314D02*
D03*
Y028117D02*
D03*
Y027921D02*
D03*
Y027724D02*
D03*
Y027527D02*
D03*
Y027330D02*
D03*
Y027133D02*
D03*
Y026936D02*
D03*
Y026739D02*
D03*
Y026543D02*
D03*
Y026346D02*
D03*
Y026149D02*
D03*
Y025952D02*
D03*
X029842D02*
D03*
Y026149D02*
D03*
Y026346D02*
D03*
Y026543D02*
D03*
Y026739D02*
D03*
Y026936D02*
D03*
Y027133D02*
D03*
Y027330D02*
D03*
Y027527D02*
D03*
Y027724D02*
D03*
Y027921D02*
D03*
Y028117D02*
D03*
Y028314D02*
D03*
Y028511D02*
D03*
Y028708D02*
D03*
Y028905D02*
D03*
D92*
X033720Y025027D02*
D03*
X033523D02*
D03*
X033326D02*
D03*
X033129D02*
D03*
X032933D02*
D03*
X032736D02*
D03*
X032539D02*
D03*
X032342D02*
D03*
X032145D02*
D03*
X031948D02*
D03*
X031751D02*
D03*
X031555D02*
D03*
X031358D02*
D03*
X031161D02*
D03*
X030964D02*
D03*
X030767D02*
D03*
Y029830D02*
D03*
X030964D02*
D03*
X031161D02*
D03*
X031358D02*
D03*
X031555D02*
D03*
X031751D02*
D03*
X031948D02*
D03*
X032145D02*
D03*
X032342D02*
D03*
X032539D02*
D03*
X032736D02*
D03*
X032933D02*
D03*
X033129D02*
D03*
X033326D02*
D03*
X033523D02*
D03*
X033720D02*
D03*
D93*
X028870Y036380D02*
D03*
Y035380D02*
D03*
D94*
X031198Y020880D02*
D03*
X034820D02*
D03*
D95*
X051970Y028480D02*
D03*
Y028980D02*
D03*
Y029480D02*
D03*
X049670Y027980D02*
D03*
Y028480D02*
D03*
Y028980D02*
D03*
Y027480D02*
D03*
Y026980D02*
D03*
Y026480D02*
D03*
X051970Y027980D02*
D03*
Y026980D02*
D03*
Y027480D02*
D03*
Y026480D02*
D03*
X049670Y025980D02*
D03*
X051970D02*
D03*
D96*
X049670Y029480D02*
D03*
D97*
X028250Y044870D02*
D03*
X029000D02*
D03*
X030870Y044880D02*
D03*
X031620D02*
D03*
D98*
X028625Y045815D02*
D03*
X031245Y045825D02*
D03*
D99*
X038570Y029980D02*
D03*
X037320Y024630D02*
D03*
X038570Y028830D02*
D03*
X025070Y054080D02*
D03*
X030770Y033180D02*
D03*
X048320Y031280D02*
D03*
D100*
X039570Y029980D02*
D03*
X053920Y053530D02*
D03*
Y050530D02*
D03*
X050920Y053530D02*
D03*
Y050530D02*
D03*
X034370Y049080D02*
D03*
X044420Y051780D02*
D03*
Y050780D02*
D03*
X043170Y053280D02*
D03*
X038120Y049130D02*
D03*
X031270Y049180D02*
D03*
Y052680D02*
D03*
X038120Y051280D02*
D03*
Y050130D02*
D03*
Y052280D02*
D03*
X036270Y052380D02*
D03*
Y050080D02*
D03*
X047370Y025480D02*
D03*
Y026480D02*
D03*
Y027730D02*
D03*
Y028730D02*
D03*
X053270Y025730D02*
D03*
Y024730D02*
D03*
Y027780D02*
D03*
Y028780D02*
D03*
X043470Y020630D02*
D03*
X056270Y049830D02*
D03*
X028620Y046680D02*
D03*
X029470Y039230D02*
D03*
X027970Y049080D02*
D03*
X029620D02*
D03*
X036320Y024630D02*
D03*
Y022330D02*
D03*
X022920Y039530D02*
D03*
X039570Y028830D02*
D03*
X038570Y024630D02*
D03*
X039570Y025630D02*
D03*
X038570D02*
D03*
Y026630D02*
D03*
Y027630D02*
D03*
X039570D02*
D03*
Y026630D02*
D03*
Y033180D02*
D03*
Y034180D02*
D03*
X038570D02*
D03*
Y033180D02*
D03*
Y032180D02*
D03*
X039570D02*
D03*
X038570Y031180D02*
D03*
X024070Y054080D02*
D03*
X028220Y033430D02*
D03*
X042670Y016580D02*
D03*
X053420Y017580D02*
D03*
X042220Y027780D02*
D03*
X025920Y026130D02*
D03*
Y023830D02*
D03*
X032370Y017880D02*
D03*
X030770Y034180D02*
D03*
X031770Y033180D02*
D03*
Y034180D02*
D03*
X032770D02*
D03*
X033770D02*
D03*
Y033180D02*
D03*
X032770D02*
D03*
X057420Y035430D02*
D03*
X049320Y031280D02*
D03*
X057970Y048080D02*
D03*
X054170Y041830D02*
D03*
X053170D02*
D03*
X055770Y040480D02*
D03*
X057620Y044430D02*
D03*
X053220Y044830D02*
D03*
X049320Y042830D02*
D03*
X045620Y048980D02*
D03*
X029870Y037780D02*
D03*
X028620Y042930D02*
D03*
X026320Y049080D02*
D03*
X044170Y053280D02*
D03*
X036270Y051230D02*
D03*
X031270Y050930D02*
D03*
X043520Y033380D02*
D03*
X044120Y045430D02*
D03*
X042220Y036030D02*
D03*
X045770Y043280D02*
D03*
X033570Y043080D02*
D03*
X040270Y045480D02*
D03*
X033570Y044480D02*
D03*
X040270Y046480D02*
D03*
Y044230D02*
D03*
Y041980D02*
D03*
X033570Y041680D02*
D03*
X040270Y042980D02*
D03*
X031270Y042930D02*
D03*
Y046680D02*
D03*
X039170Y036480D02*
D03*
X026920Y027430D02*
D03*
X036570Y033180D02*
D03*
X026320Y042930D02*
D03*
X057970Y039330D02*
D03*
D101*
X054670Y027980D02*
D03*
D102*
Y026888D02*
D03*
Y025797D02*
D03*
Y024705D02*
D03*
Y023613D02*
D03*
X055670Y027430D02*
D03*
Y026338D02*
D03*
Y025247D02*
D03*
Y024155D02*
D03*
D103*
X055170Y030722D02*
D03*
Y020880D02*
D03*
D104*
X023970Y045880D02*
D03*
X025545D02*
D03*
X034977Y035873D02*
D03*
X036091Y036986D02*
D03*
X048720Y053146D02*
D03*
Y054130D02*
D03*
X047666Y049276D02*
D03*
X046970Y048580D02*
D03*
X023778Y028482D02*
D03*
X024630Y027990D02*
D03*
X022472Y027988D02*
D03*
X021620Y028480D02*
D03*
X022420Y036330D02*
D03*
X020845D02*
D03*
X021670Y045530D02*
D03*
X020686D02*
D03*
D105*
X053520Y036430D02*
D03*
Y035430D02*
D03*
Y034430D02*
D03*
X056520D02*
D03*
Y035430D02*
D03*
Y036430D02*
D03*
Y037430D02*
D03*
X026220Y038230D02*
D03*
X028220D02*
D03*
X029020Y053630D02*
D03*
Y052630D02*
D03*
Y051630D02*
D03*
Y050630D02*
D03*
X026020D02*
D03*
Y051630D02*
D03*
Y052630D02*
D03*
D106*
X053520Y037430D02*
D03*
X026020Y053630D02*
D03*
D107*
X037320Y022330D02*
D03*
D108*
Y023330D02*
D03*
X036320D02*
D03*
X026220Y033430D02*
D03*
Y034430D02*
D03*
X027220Y033430D02*
D03*
Y034430D02*
D03*
X041670Y017580D02*
D03*
Y016580D02*
D03*
X054420D02*
D03*
Y017580D02*
D03*
X043220Y027780D02*
D03*
Y026780D02*
D03*
X026920Y025130D02*
D03*
Y026130D02*
D03*
Y022830D02*
D03*
Y023830D02*
D03*
X033370Y016880D02*
D03*
Y017880D02*
D03*
X050320Y042830D02*
D03*
Y041830D02*
D03*
X044520Y033380D02*
D03*
Y032380D02*
D03*
X043120Y045430D02*
D03*
Y046430D02*
D03*
X025920Y028430D02*
D03*
Y027430D02*
D03*
X035570Y034180D02*
D03*
Y033180D02*
D03*
D109*
X021570Y025430D02*
D03*
Y024430D02*
D03*
Y023430D02*
D03*
X020920Y040680D02*
D03*
Y041680D02*
D03*
Y042680D02*
D03*
D110*
X022920Y038530D02*
D03*
X039570Y024630D02*
D03*
Y031180D02*
D03*
X053220Y043830D02*
D03*
X045620Y047980D02*
D03*
X029870Y036780D02*
D03*
X042220Y037030D02*
D03*
X045770Y042280D02*
D03*
D111*
X021670Y050080D02*
D03*
D112*
Y048080D02*
D03*
D113*
X028220Y034430D02*
D03*
X042670Y017580D02*
D03*
X053420Y016580D02*
D03*
X042220Y026780D02*
D03*
X025920Y025130D02*
D03*
Y022830D02*
D03*
X032370Y016880D02*
D03*
X049320Y041830D02*
D03*
X043520Y032380D02*
D03*
X044120Y046430D02*
D03*
X026920Y028430D02*
D03*
X036570Y034180D02*
D03*
D114*
X021539Y017649D02*
D03*
X056972Y053082D02*
D03*
X021539D02*
D03*
X056972Y017649D02*
D03*
D115*
X027370Y019530D02*
D03*
X026370D02*
D03*
Y018730D02*
D03*
X027370D02*
D03*
D116*
X024508Y017676D02*
D03*
D117*
X029248Y017676D02*
D03*
M02*
